<svg width="131" height="130" viewBox="0 0 131 130" fill="none" xmlns="http://www.w3.org/2000/svg">
<g clip-path="url(#clip0_48_9526)">
<path d="M86.251 67.9003C86.2468 67.8623 83.3346 48.1447 83.3346 48.1447C83.2043 47.0872 82.6923 46.1137 81.8948 45.4072C81.0972 44.7006 80.069 44.3098 79.0035 44.3081H75.0053C74.3923 44.3089 73.7864 44.4389 73.227 44.6896C72.6677 44.9404 72.1674 45.3063 71.759 45.7634C71.346 46.2265 71.0352 46.7716 70.847 47.3629C70.6588 47.9543 70.5974 48.5786 70.6668 49.1953C70.6713 49.2348 73.54 68.1525 73.54 68.1525C73.6902 69.3588 73.6194 70.5824 73.3308 71.7633C72.3153 75.6308 69.2397 78.1298 65.4953 78.1298H65.1067C61.4315 78.1298 58.5513 75.7078 57.5901 71.8089C57.3128 70.6001 57.2488 69.3522 57.4011 68.1215C57.4011 68.1215 60.2663 49.2349 60.2708 49.1953C60.3304 48.5847 60.2633 47.9684 60.0736 47.3849C59.8839 46.8014 59.5757 46.2634 59.1684 45.8046C58.7611 45.3458 58.2634 44.976 57.7065 44.7185C57.1497 44.461 56.5456 44.3213 55.9322 44.3081H51.9871C50.9216 44.3097 49.8934 44.7005 49.0959 45.407C48.2983 46.1135 47.7863 47.087 47.6561 48.1444C47.6561 48.1444 44.7544 67.7648 44.7502 67.8029C44.4111 70.598 44.6415 73.4329 45.4276 76.1365C46.631 80.3293 49.1617 84.0188 52.6399 86.6513C56.1181 89.2838 60.3562 90.7173 64.7182 90.7366H66.2723C70.8108 90.6999 75.2057 89.1414 78.7535 86.3108C82.3013 83.4802 84.7968 79.5411 85.8406 75.1241C86.4021 72.7592 86.541 70.3136 86.251 67.9003ZM75.0053 47.4033H79.0035C79.3191 47.4062 79.6225 47.5254 79.8556 47.7382C80.0887 47.951 80.235 48.2423 80.2665 48.5564L80.7821 52.0462H74.2276L73.7427 48.8494C73.7205 48.6696 73.7364 48.4871 73.7895 48.3139C73.8426 48.1407 73.9317 47.9806 74.0508 47.8442C74.17 47.7077 74.3166 47.5979 74.4811 47.5219C74.6455 47.446 74.8242 47.4056 75.0053 47.4033ZM50.724 48.5564C50.7555 48.2423 50.9018 47.951 51.1349 47.7382C51.368 47.5254 51.6715 47.4062 51.9871 47.4033H55.9323C56.1134 47.4056 56.2921 47.446 56.4565 47.5219C56.621 47.5979 56.7676 47.7077 56.8868 47.8442C57.0059 47.9806 57.095 48.1407 57.1481 48.3139C57.2012 48.4871 57.2171 48.6696 57.1949 48.8494L56.7098 52.0462H50.2078L50.724 48.5564ZM82.8361 74.38C81.9537 78.1233 79.843 81.4631 76.8408 83.8668C73.8386 86.2704 70.1179 87.5993 66.2723 87.6414H64.7182C61.0256 87.6047 57.4431 86.3789 54.5021 84.1456C51.5611 81.9124 49.4182 78.7907 48.3912 75.2435C47.7281 72.9381 47.5361 70.5228 47.8268 68.1416L49.7499 55.1414H56.2401L54.3314 67.7192C54.1302 69.3317 54.216 70.9671 54.5849 72.5497C55.8213 77.565 59.7603 81.2251 65.1067 81.2251H65.4953C70.8424 81.2251 75.0076 77.5649 76.3246 72.5494C76.7141 70.9809 76.8107 69.354 76.6096 67.7504L74.6971 55.1414H81.2394L83.1744 68.2389C83.4236 70.2899 83.3091 72.3688 82.8361 74.38Z" fill="#5A859D"/>
<path d="M62.7146 23.5694C62.9635 23.8942 63.3297 24.1085 63.7347 24.1664C64.1398 24.2242 64.5514 24.121 64.8812 23.8789L67.9764 21.5574C68.1686 21.4132 68.3245 21.2263 68.432 21.0114C68.5394 20.7965 68.5953 20.5595 68.5953 20.3193C68.5953 20.079 68.5394 19.842 68.432 19.6271C68.3245 19.4122 68.1686 19.2253 67.9764 19.0811L64.8812 16.7597C64.5527 16.5142 64.1403 16.4091 63.7344 16.4674C63.3286 16.5257 62.9624 16.7427 62.7164 17.0707C62.4704 17.3987 62.3645 17.811 62.4222 18.2169C62.4798 18.6229 62.6961 18.9894 63.0237 19.236L64.4686 20.3193L63.0237 21.4025C62.8611 21.5245 62.7241 21.6773 62.6206 21.8522C62.5171 22.0271 62.449 22.2207 62.4203 22.4219C62.3916 22.6232 62.4028 22.8281 62.4533 23.025C62.5038 23.2218 62.5926 23.4069 62.7146 23.5694Z" fill="#B4EDFF"/>
<path d="M47.0752 23.4208L46.1556 24.9744C46.0519 25.1493 45.9837 25.3428 45.9549 25.544C45.9261 25.7453 45.9373 25.9502 45.9877 26.1471C46.0382 26.344 46.127 26.529 46.249 26.6916C46.371 26.8541 46.5239 26.991 46.6989 27.0945C47.0531 27.2989 47.4732 27.3565 47.8694 27.2551C48.2656 27.1536 48.6063 26.9011 48.8186 26.5515L50.7901 23.222C50.9125 23.0153 50.9851 22.7829 51.0022 22.5432C51.0192 22.3035 50.9802 22.0632 50.8883 21.8412C50.7963 21.6192 50.6539 21.4217 50.4724 21.2643C50.2909 21.1069 50.0752 20.9939 49.8425 20.9342L46.0943 19.9741C45.8975 19.9237 45.6926 19.9126 45.4914 19.9414C45.2902 19.9701 45.0966 20.0383 44.9218 20.1418C44.7469 20.2454 44.5942 20.3824 44.4722 20.545C44.3503 20.7076 44.2616 20.8926 44.2112 21.0895C44.1608 21.2864 44.1497 21.4913 44.1784 21.6925C44.2072 21.8937 44.2753 22.0872 44.3789 22.2621C44.4825 22.437 44.6195 22.5897 44.7821 22.7116C44.9447 22.8335 45.1297 22.9222 45.3266 22.9727L47.0752 23.4208Z" fill="#5A859D"/>
<path d="M30.7005 33.9077L32.4877 33.6523L32.233 35.4398C32.2074 35.6585 32.2277 35.8802 32.2927 36.0906C32.3576 36.301 32.4657 36.4955 32.61 36.6618C32.7544 36.8281 32.9319 36.9624 33.1311 37.0562C33.3303 37.15 33.5469 37.2012 33.767 37.2066C34.1392 37.206 34.4987 37.0713 34.7796 36.8271C35.0605 36.583 35.244 36.2458 35.2965 35.8773L35.8436 32.0472C35.8776 31.8094 35.8557 31.5669 35.7797 31.339C35.7037 31.111 35.5757 30.9039 35.4059 30.734C35.236 30.5642 35.0289 30.4362 34.8009 30.3602C34.573 30.2842 34.3305 30.2623 34.0927 30.2963L30.2622 30.8434C29.8558 30.9015 29.4892 31.1187 29.243 31.4471C28.9968 31.7755 28.8911 32.1883 28.9492 32.5947C29.0073 33.001 29.2245 33.3677 29.5529 33.6139C29.8813 33.8601 30.2942 33.9658 30.7005 33.9077Z" fill="#B4EDFF"/>
<path d="M21.3716 49.6074L22.9253 48.6877L23.3734 50.4364C23.4815 50.8301 23.7382 51.1665 24.0896 51.3746C24.4409 51.5827 24.8593 51.6462 25.2565 51.5517C25.4535 51.5014 25.6385 51.4127 25.8011 51.2908C25.9638 51.1689 26.1008 51.0161 26.2044 50.8412C26.3079 50.6664 26.3761 50.4728 26.4048 50.2716C26.4336 50.0704 26.4224 49.8655 26.3719 49.6686L25.4122 45.9205C25.3527 45.6877 25.2397 45.472 25.0823 45.2905C24.9249 45.109 24.7274 44.9666 24.5055 44.8746C24.2835 44.7827 24.0432 44.7437 23.8035 44.7607C23.5639 44.7778 23.3315 44.8504 23.1248 44.9728L19.7953 46.9444C19.6204 47.0479 19.4676 47.1848 19.3456 47.3473C19.2236 47.5099 19.1349 47.6949 19.0844 47.8917C19.0339 48.0886 19.0227 48.2934 19.0514 48.4946C19.0801 48.6958 19.1482 48.8894 19.2517 49.0642C19.3552 49.2391 19.4921 49.3919 19.6547 49.5138C19.8173 49.6358 20.0023 49.7245 20.1991 49.7749C20.396 49.8254 20.6009 49.8365 20.8021 49.8078C21.0032 49.779 21.1968 49.7109 21.3716 49.6074Z" fill="#5A859D"/>
<path d="M22.1682 68.2932C22.4533 68.2896 22.7319 68.2076 22.9734 68.0562C23.215 67.9048 23.4103 67.6899 23.538 67.435C23.6656 67.1801 23.7207 66.8949 23.6971 66.6108C23.6736 66.3267 23.5723 66.0545 23.4044 65.8241L21.083 62.7288C20.9326 62.5461 20.7436 62.399 20.5296 62.298C20.3156 62.1969 20.0819 62.1445 19.8452 62.1445C19.6086 62.1445 19.3748 62.1969 19.1608 62.298C18.9468 62.399 18.7578 62.5461 18.6074 62.7288L16.286 65.8241C16.0397 66.1524 15.9339 66.5651 15.9918 66.9714C16.0498 67.3777 16.2668 67.7443 16.5951 67.9906C16.9234 68.2369 17.336 68.3427 17.7423 68.2848C18.1486 68.2268 18.5153 68.0098 18.7616 67.6815L19.8452 66.2371L20.9289 67.6816C21.0743 67.8721 21.2619 68.0265 21.4769 68.1326C21.6919 68.2387 21.9285 68.2937 22.1682 68.2932Z" fill="#B4EDFF"/>
<path d="M26.8457 81.8868L23.5162 79.9152C23.3095 79.7928 23.0771 79.7202 22.8375 79.7031C22.5978 79.6861 22.3575 79.7251 22.1355 79.817C21.9136 79.909 21.7161 80.0514 21.5587 80.2329C21.4013 80.4144 21.2884 80.6301 21.2288 80.8628L20.2683 84.611C20.2179 84.8079 20.2068 85.0128 20.2356 85.2139C20.2643 85.4151 20.3324 85.6087 20.436 85.7836C20.5396 85.9584 20.6766 86.1112 20.8392 86.2331C21.0018 86.355 21.1868 86.4437 21.3837 86.4941C21.7811 86.5909 22.2006 86.5284 22.5525 86.32C22.9044 86.1116 23.1608 85.7737 23.2668 85.3787L23.715 83.6301L25.2694 84.5498C25.6225 84.7587 26.0442 84.8188 26.4416 84.7169C26.8391 84.615 27.1797 84.3593 27.3888 84.0063C27.5978 83.6532 27.658 83.2315 27.5561 82.8341C27.4543 82.4366 27.1987 82.0959 26.8457 81.8868Z" fill="#5A859D"/>
<path d="M36.1722 95.4089L32.3417 94.8618C32.1039 94.8278 31.8613 94.8496 31.6334 94.9255C31.4054 95.0014 31.1983 95.1294 31.0284 95.2994C30.8584 95.4693 30.7305 95.6764 30.6545 95.9044C30.5786 96.1323 30.5568 96.3749 30.5908 96.6127L31.1379 100.443C31.1905 100.812 31.3741 101.149 31.655 101.393C31.9359 101.637 32.2953 101.771 32.6674 101.772C32.8885 101.77 33.1067 101.72 33.3075 101.628C33.5082 101.535 33.687 101.401 33.832 101.234C33.977 101.067 34.0849 100.871 34.1486 100.659C34.2123 100.447 34.2303 100.224 34.2014 100.005L33.9467 98.2178L35.7339 98.4724C36.1402 98.5306 36.5529 98.4249 36.8812 98.1788C37.2096 97.9326 37.4267 97.5661 37.4848 97.1598C37.5429 96.7536 37.4373 96.3409 37.1911 96.0125C36.945 95.6842 36.5785 95.467 36.1722 95.4089Z" fill="#B4EDFF"/>
<path d="M49.9633 104.334L46.2151 105.293C45.9824 105.353 45.7667 105.466 45.5852 105.623C45.4036 105.781 45.2613 105.978 45.1693 106.2C45.0774 106.422 45.0384 106.662 45.0554 106.902C45.0725 107.142 45.1451 107.374 45.2675 107.581L47.2383 110.91C47.4504 111.26 47.791 111.513 48.1873 111.614C48.5835 111.716 49.0038 111.658 49.358 111.453C49.533 111.35 49.6858 111.213 49.8079 111.051C49.9299 110.888 50.0187 110.703 50.0691 110.506C50.1196 110.309 50.1308 110.105 50.102 109.903C50.0732 109.702 50.005 109.509 49.9013 109.334L48.9817 107.78L50.731 107.332C51.1287 107.23 51.4696 106.975 51.6787 106.621C51.8879 106.268 51.9482 105.847 51.8464 105.449C51.7446 105.051 51.489 104.71 51.1358 104.501C50.7827 104.292 50.3609 104.232 49.9633 104.334Z" fill="#5A859D"/>
<path d="M85.6734 107.438L83.9248 106.99L84.8445 105.436C84.948 105.261 85.0161 105.067 85.0449 104.866C85.0736 104.665 85.0624 104.46 85.012 104.263C84.9616 104.066 84.8728 103.882 84.7509 103.719C84.629 103.556 84.4762 103.419 84.3013 103.316C84.1264 103.212 83.9329 103.144 83.7317 103.116C83.5305 103.087 83.3256 103.098 83.1288 103.149C82.9319 103.199 82.7469 103.288 82.5844 103.41C82.4219 103.532 82.2849 103.685 82.1815 103.86L80.2099 107.189C80.0875 107.396 80.0148 107.628 79.9978 107.868C79.9808 108.107 80.0197 108.348 80.1117 108.57C80.2036 108.792 80.346 108.989 80.5276 109.147C80.7091 109.304 80.9248 109.417 81.1575 109.476L84.9057 110.437C85.303 110.534 85.7225 110.471 86.0744 110.263C86.4263 110.054 86.6827 109.716 86.7888 109.322C86.8906 108.924 86.8303 108.502 86.6211 108.149C86.4119 107.796 86.0711 107.54 85.6734 107.438Z" fill="#5A859D"/>
<path d="M100.3 96.5041L98.5124 96.7587L98.7671 94.9716C98.8252 94.5653 98.7195 94.1526 98.4734 93.8243C98.2272 93.4959 97.8607 93.2788 97.4545 93.2207C97.0482 93.1626 96.6355 93.2682 96.3072 93.5144C95.9788 93.7605 95.7617 94.127 95.7036 94.5333L95.1565 98.3638C95.1251 98.5833 95.1412 98.807 95.2038 99.0197C95.2663 99.2324 95.3739 99.4292 95.5191 99.5968C95.6644 99.7643 95.8439 99.8987 96.0456 99.9908C96.2473 100.083 96.4665 100.131 96.6882 100.131C96.7608 100.131 100.738 99.5676 100.738 99.5676C100.939 99.5388 101.133 99.4707 101.307 99.3671C101.482 99.2636 101.635 99.1266 101.757 98.964C101.879 98.8014 101.967 98.6164 102.018 98.4195C102.068 98.2227 102.079 98.0178 102.05 97.8167C102.022 97.6155 101.954 97.422 101.85 97.2472C101.746 97.0724 101.609 96.9196 101.447 96.7978C101.284 96.6759 101.099 96.5872 100.902 96.5368C100.706 96.4864 100.501 96.4753 100.3 96.5041Z" fill="#B4EDFF"/>
<path d="M109.628 80.804L108.075 81.7237L107.626 79.9743C107.576 79.7774 107.487 79.5924 107.365 79.4298C107.244 79.2672 107.091 79.1302 106.916 79.0266C106.741 78.923 106.547 78.8549 106.346 78.8261C106.145 78.7974 105.94 78.8085 105.743 78.8589C105.546 78.9093 105.361 78.998 105.199 79.1199C105.036 79.2419 104.899 79.3946 104.796 79.5695C104.692 79.7443 104.624 79.9379 104.595 80.1391C104.566 80.3403 104.578 80.5452 104.628 80.7421L105.588 84.4902C105.647 84.7229 105.76 84.9386 105.918 85.1201C106.075 85.3016 106.272 85.444 106.494 85.536C106.717 85.6257 106.957 85.6635 107.196 85.6464C107.435 85.6294 107.668 85.558 107.875 85.4378L111.205 83.467C111.558 83.2579 111.813 82.9171 111.915 82.5197C112.017 82.1222 111.957 81.7006 111.748 81.3475C111.539 80.9944 111.198 80.7388 110.8 80.6369C110.403 80.5349 109.981 80.5951 109.628 80.804Z" fill="#5A859D"/>
<path d="M114.405 62.4196C114.077 62.1736 113.664 62.0681 113.258 62.1261C112.851 62.1841 112.485 62.401 112.238 62.7291L111.155 64.1736L110.071 62.7291C109.949 62.5665 109.796 62.4296 109.622 62.3261C109.447 62.2226 109.253 62.1546 109.052 62.1259C108.851 62.0972 108.646 62.1084 108.449 62.1588C108.252 62.2093 108.067 62.2981 107.905 62.42C107.742 62.542 107.605 62.6948 107.502 62.8697C107.398 63.0445 107.33 63.2381 107.301 63.4393C107.273 63.6404 107.284 63.8453 107.334 64.0422C107.385 64.239 107.474 64.424 107.596 64.5865L109.917 67.6818C110.061 67.8739 110.248 68.0299 110.463 68.1373C110.678 68.2448 110.915 68.3007 111.155 68.3007C111.395 68.3007 111.632 68.2448 111.847 68.1373C112.062 68.0299 112.248 67.8739 112.393 67.6818L114.714 64.5865C114.836 64.424 114.925 64.239 114.975 64.0421C115.026 63.8452 115.037 63.6403 115.008 63.4391C114.98 63.2378 114.912 63.0442 114.808 62.8693C114.705 62.6944 114.568 62.5416 114.405 62.4196Z" fill="#B4EDFF"/>
<path d="M108.272 50.7023C108.613 50.6981 108.944 50.5833 109.214 50.3752C109.484 50.1672 109.68 49.877 109.771 49.5483L110.732 45.8001C110.833 45.4025 110.773 44.9807 110.564 44.6275C110.355 44.2742 110.014 44.0185 109.617 43.9166C109.219 43.8147 108.797 43.8749 108.444 44.084C108.091 44.2931 107.835 44.634 107.733 45.0316L107.285 46.781L105.73 45.8609C105.377 45.6537 104.956 45.5948 104.56 45.6972C104.163 45.7996 103.824 46.055 103.615 46.4075C103.407 46.7599 103.346 47.1806 103.447 47.5774C103.548 47.9743 103.802 48.3149 104.154 48.5247C104.154 48.5247 107.476 50.4911 107.484 50.4959C107.722 50.6368 107.995 50.7083 108.272 50.7023Z" fill="#5A859D"/>
<path d="M98.6581 35.5492C98.896 35.5817 99.1381 35.5591 99.3658 35.4832C99.5935 35.4072 99.8007 35.28 99.9715 35.1113C100.142 34.9416 100.27 34.7345 100.346 34.5066C100.421 34.2786 100.443 34.0361 100.409 33.7983L99.8619 29.9682C99.8039 29.5619 99.5869 29.1954 99.2586 28.9491C98.9303 28.7029 98.5177 28.5972 98.1114 28.6552C97.7052 28.7132 97.3386 28.9302 97.0924 29.2585C96.8461 29.5868 96.7404 29.9995 96.7984 30.4057L97.0531 32.1933L95.2659 31.9378C94.8596 31.8797 94.4468 31.9854 94.1183 32.2316C93.7899 32.4779 93.5727 32.8445 93.5146 33.2508C93.4565 33.6572 93.5622 34.07 93.8084 34.3984C94.0547 34.7268 94.4213 34.944 94.8276 35.0021L98.6581 35.5492Z" fill="#B4EDFF"/>
<path d="M80.652 26.1239C81.2006 26.1302 84.6226 25.159 84.7847 25.1174C85.0175 25.0578 85.2332 24.9449 85.4147 24.7874C85.5963 24.63 85.7387 24.4325 85.8306 24.2105C85.9226 23.9885 85.9615 23.7481 85.9445 23.5085C85.9274 23.2688 85.8548 23.0364 85.7323 22.8296L83.7615 19.5005C83.658 19.3255 83.5211 19.1726 83.3585 19.0506C83.1959 18.9285 83.0109 18.8397 82.8139 18.7892C82.617 18.7387 82.412 18.7275 82.2108 18.7563C82.0095 18.785 81.8159 18.8531 81.641 18.9567C81.4661 19.0603 81.3133 19.1973 81.1913 19.36C81.0694 19.5227 80.9807 19.7078 80.9303 19.9048C80.8799 20.1017 80.8689 20.3067 80.8977 20.5079C80.9266 20.7092 80.9948 20.9027 81.0985 21.0776L82.0182 22.6313L80.2688 23.0794C80.0719 23.1298 79.8868 23.2185 79.7242 23.3404C79.5616 23.4624 79.4245 23.6152 79.321 23.7901C79.2174 23.965 79.1493 24.1586 79.1205 24.3598C79.0918 24.5611 79.103 24.766 79.1534 24.9629C79.2437 25.2926 79.4387 25.5841 79.7089 25.7935C79.9792 26.0029 80.3101 26.1189 80.652 26.1239Z" fill="#5A859D"/>
<path d="M65.3916 32.7002C66.2463 32.7002 66.9392 32.0073 66.9392 31.1526C66.9392 30.2979 66.2463 29.605 65.3916 29.605C64.5369 29.605 63.844 30.2979 63.844 31.1526C63.844 32.0073 64.5369 32.7002 65.3916 32.7002Z" fill="#B4EDFF"/>
<path d="M74.4043 33.8472C75.259 33.8472 75.9519 33.1543 75.9519 32.2996C75.9519 31.4448 75.259 30.752 74.4043 30.752C73.5496 30.752 72.8567 31.4448 72.8567 32.2996C72.8567 33.1543 73.5496 33.8472 74.4043 33.8472Z" fill="#5A859D"/>
<path d="M82.814 37.3032C83.6687 37.3032 84.3616 36.6104 84.3616 35.7556C84.3616 34.9009 83.6687 34.208 82.814 34.208C81.9593 34.208 81.2664 34.9009 81.2664 35.7556C81.2664 36.6104 81.9593 37.3032 82.814 37.3032Z" fill="#B4EDFF"/>
<path d="M90.0359 42.814C90.8906 42.814 91.5835 42.1211 91.5835 41.2664C91.5835 40.4116 90.8906 39.7188 90.0359 39.7188C89.1812 39.7188 88.4883 40.4116 88.4883 41.2664C88.4883 42.1211 89.1812 42.814 90.0359 42.814Z" fill="#5A859D"/>
<path d="M95.5974 49.9956C96.4522 49.9956 97.145 49.3027 97.145 48.448C97.145 47.5933 96.4522 46.9004 95.5974 46.9004C94.7427 46.9004 94.0498 47.5933 94.0498 48.448C94.0498 49.3027 94.7427 49.9956 95.5974 49.9956Z" fill="#B4EDFF"/>
<path d="M99.1065 58.3755C99.9612 58.3755 100.654 57.6826 100.654 56.8279C100.654 55.9732 99.9612 55.2803 99.1065 55.2803C98.2517 55.2803 97.5588 55.9732 97.5588 56.8279C97.5588 57.6826 98.2517 58.3755 99.1065 58.3755Z" fill="#5A859D"/>
<path d="M100.322 67.4522C101.176 67.4522 101.869 66.7593 101.869 65.9046C101.869 65.0498 101.176 64.3569 100.322 64.3569C99.4668 64.3569 98.7739 65.0498 98.7739 65.9046C98.7739 66.7593 99.4668 67.4522 100.322 67.4522Z" fill="#B4EDFF"/>
<path d="M99.1453 76.5288C100 76.5288 100.693 75.8359 100.693 74.9812C100.693 74.1265 100 73.4336 99.1453 73.4336C98.2905 73.4336 97.5977 74.1265 97.5977 74.9812C97.5977 75.8359 98.2905 76.5288 99.1453 76.5288Z" fill="#5A859D"/>
<path d="M95.667 84.9258C96.5217 84.9258 97.2146 84.2329 97.2146 83.3782C97.2146 82.5235 96.5217 81.8306 95.667 81.8306C94.8123 81.8306 94.1194 82.5235 94.1194 83.3782C94.1194 84.2329 94.8123 84.9258 95.667 84.9258Z" fill="#B4EDFF"/>
<path d="M90.1343 92.1314C90.989 92.1314 91.6819 91.4385 91.6819 90.5838C91.6819 89.729 90.989 89.0361 90.1343 89.0361C89.2796 89.0361 88.5867 89.729 88.5867 90.5838C88.5867 91.4385 89.2796 92.1314 90.1343 92.1314Z" fill="#5A859D"/>
<path d="M82.9324 97.6704C83.7871 97.6704 84.48 96.9775 84.48 96.1228C84.48 95.2681 83.7871 94.5752 82.9324 94.5752C82.0777 94.5752 81.3848 95.2681 81.3848 96.1228C81.3848 96.9775 82.0777 97.6704 82.9324 97.6704Z" fill="#B4EDFF"/>
<path d="M74.542 101.159C75.3967 101.159 76.0896 100.466 76.0896 99.6116C76.0896 98.7569 75.3967 98.064 74.542 98.064C73.6873 98.064 72.9944 98.7569 72.9944 99.6116C72.9944 100.466 73.6873 101.159 74.542 101.159Z" fill="#5A859D"/>
<path d="M65.5 102.343C66.3547 102.343 67.0476 101.65 67.0476 100.796C67.0476 99.9409 66.3547 99.248 65.5 99.248C64.6453 99.248 63.9524 99.9409 63.9524 100.796C63.9524 101.65 64.6453 102.343 65.5 102.343Z" fill="#B4EDFF"/>
<path d="M56.5247 101.175C57.3794 101.175 58.0723 100.482 58.0723 99.6272C58.0723 98.7725 57.3794 98.0796 56.5247 98.0796C55.6699 98.0796 54.9771 98.7725 54.9771 99.6272C54.9771 100.482 55.6699 101.175 56.5247 101.175Z" fill="#5A859D"/>
<path d="M48.1272 97.7056C48.9819 97.7056 49.6748 97.0127 49.6748 96.158C49.6748 95.3032 48.9819 94.6104 48.1272 94.6104C47.2725 94.6104 46.5796 95.3032 46.5796 96.158C46.5796 97.0127 47.2725 97.7056 48.1272 97.7056Z" fill="#B4EDFF"/>
<path d="M40.9121 92.1817C41.7668 92.1817 42.4597 91.4888 42.4597 90.634C42.4597 89.7793 41.7668 89.0864 40.9121 89.0864C40.0574 89.0864 39.3645 89.7793 39.3645 90.634C39.3645 91.4888 40.0574 92.1817 40.9121 92.1817Z" fill="#5A859D"/>
<path d="M35.3662 84.9854C36.2209 84.9854 36.9138 84.2925 36.9138 83.4378C36.9138 82.583 36.2209 81.8901 35.3662 81.8901C34.5115 81.8901 33.8186 82.583 33.8186 83.4378C33.8186 84.2925 34.5115 84.9854 35.3662 84.9854Z" fill="#B4EDFF"/>
<path d="M31.8718 76.5987C32.7266 76.5987 33.4195 75.9058 33.4195 75.051C33.4195 74.1963 32.7266 73.5034 31.8718 73.5034C31.0171 73.5034 30.3242 74.1963 30.3242 75.051C30.3242 75.9058 31.0171 76.5987 31.8718 76.5987Z" fill="#5A859D"/>
<path d="M30.6785 67.522C31.5332 67.522 32.2261 66.8291 32.2261 65.9744C32.2261 65.1197 31.5332 64.4268 30.6785 64.4268C29.8238 64.4268 29.1309 65.1197 29.1309 65.9744C29.1309 66.8291 29.8238 67.522 30.6785 67.522Z" fill="#B4EDFF"/>
<path d="M31.8355 58.5821C32.6902 58.5821 33.3831 57.8892 33.3831 57.0344C33.3831 56.1797 32.6902 55.4868 31.8355 55.4868C30.9807 55.4868 30.2878 56.1797 30.2878 57.0344C30.2878 57.8892 30.9807 58.5821 31.8355 58.5821Z" fill="#5A859D"/>
<path d="M35.2944 50.1782C36.1492 50.1782 36.8421 49.4854 36.8421 48.6306C36.8421 47.7759 36.1492 47.083 35.2944 47.083C34.4397 47.083 33.7468 47.7759 33.7468 48.6306C33.7468 49.4854 34.4397 50.1782 35.2944 50.1782Z" fill="#B4EDFF"/>
<path d="M40.8154 42.9595C41.6702 42.9595 42.3631 42.2666 42.3631 41.4119C42.3631 40.5572 41.6702 39.8643 40.8154 39.8643C39.9607 39.8643 39.2678 40.5572 39.2678 41.4119C39.2678 42.2666 39.9607 42.9595 40.8154 42.9595Z" fill="#5A859D"/>
<path d="M48.0056 37.4058C48.8604 37.4058 49.5532 36.7129 49.5532 35.8582C49.5532 35.0034 48.8604 34.3105 48.0056 34.3105C47.1509 34.3105 46.458 35.0034 46.458 35.8582C46.458 36.7129 47.1509 37.4058 48.0056 37.4058Z" fill="#B4EDFF"/>
<path d="M56.3906 33.9053C57.2454 33.9053 57.9383 33.2124 57.9383 32.3577C57.9383 31.503 57.2454 30.8101 56.3906 30.8101C55.5359 30.8101 54.843 31.503 54.843 32.3577C54.843 33.2124 55.5359 33.9053 56.3906 33.9053Z" fill="#5A859D"/>
<path d="M99.1308 4.71268C99.5899 4.71268 100.039 4.57653 100.42 4.32145C100.802 4.06637 101.1 3.70381 101.275 3.27963C101.451 2.85544 101.497 2.38868 101.408 1.93837C101.318 1.48805 101.097 1.07441 100.772 0.749756C100.448 0.425098 100.034 0.204004 99.5836 0.114431C99.1333 0.024858 98.6666 0.0708301 98.2424 0.246533C97.8182 0.422237 97.4556 0.71978 97.2006 1.10154C96.9455 1.48329 96.8093 1.93212 96.8093 2.39125C96.81 3.00672 97.0548 3.59677 97.49 4.03197C97.9252 4.46717 98.5153 4.71198 99.1308 4.71268ZM99.1308 1.23054C99.3603 1.23054 99.5847 1.29861 99.7756 1.42616C99.9665 1.5537 100.115 1.73497 100.203 1.94707C100.291 2.15916 100.314 2.39254 100.269 2.6177C100.224 2.84285 100.114 3.04967 99.9515 3.212C99.7892 3.37433 99.5824 3.48488 99.3572 3.52966C99.132 3.57445 98.8987 3.55147 98.6866 3.46361C98.4745 3.37576 98.2932 3.22699 98.1657 3.03611C98.0381 2.84523 97.97 2.62082 97.97 2.39125C97.9703 2.08351 98.0927 1.78845 98.3103 1.57084C98.528 1.35323 98.823 1.23084 99.1308 1.23054Z" fill="#5A859D"/>
<path d="M23.2544 18.6348C22.9483 18.6348 22.6491 18.7255 22.3946 18.8956C22.1401 19.0656 21.9417 19.3073 21.8246 19.5901C21.7075 19.8729 21.6768 20.1841 21.7365 20.4843C21.7962 20.7845 21.9436 21.0603 22.1601 21.2767C22.3765 21.4932 22.6523 21.6406 22.9525 21.7003C23.2527 21.76 23.5639 21.7293 23.8467 21.6122C24.1294 21.4951 24.3711 21.2967 24.5412 21.0422C24.7113 20.7877 24.802 20.4885 24.802 20.1824C24.8016 19.7721 24.6384 19.3787 24.3482 19.0886C24.0581 18.7984 23.6647 18.6352 23.2544 18.6348ZM23.2544 20.9562C23.1014 20.9562 22.9518 20.9108 22.8245 20.8258C22.6972 20.7408 22.5981 20.6199 22.5395 20.4785C22.4809 20.3371 22.4656 20.1815 22.4955 20.0314C22.5253 19.8813 22.599 19.7434 22.7072 19.6352C22.8155 19.527 22.9533 19.4533 23.1034 19.4234C23.2535 19.3936 23.4091 19.4089 23.5505 19.4675C23.6919 19.526 23.8128 19.6252 23.8978 19.7525C23.9828 19.8797 24.0282 20.0293 24.0282 20.1824C24.028 20.3875 23.9464 20.5843 23.8013 20.7293C23.6563 20.8744 23.4596 20.956 23.2544 20.9562Z" fill="#5A859D"/>
<path d="M40.8599 1.89453C40.5538 1.89453 40.2546 1.9853 40.0001 2.15535C39.7456 2.32541 39.5472 2.56711 39.4301 2.8499C39.3129 3.13269 39.2823 3.44387 39.342 3.74408C39.4017 4.04428 39.5491 4.32004 39.7655 4.53648C39.982 4.75292 40.2577 4.90032 40.5579 4.96003C40.8582 5.01975 41.1693 4.9891 41.4521 4.87196C41.7349 4.75483 41.9766 4.55647 42.1467 4.30196C42.3167 4.04746 42.4075 3.74824 42.4075 3.44215C42.407 3.03184 42.2438 2.63847 41.9537 2.34834C41.6636 2.0582 41.2702 1.895 40.8599 1.89453ZM40.8599 4.21596C40.7068 4.21596 40.5572 4.17058 40.43 4.08555C40.3027 4.00052 40.2035 3.87967 40.145 3.73827C40.0864 3.59688 40.0711 3.44129 40.1009 3.29119C40.1308 3.14108 40.2045 3.0032 40.3127 2.89498C40.4209 2.78676 40.5588 2.71307 40.7089 2.68321C40.859 2.65335 41.0146 2.66868 41.156 2.72724C41.2974 2.78581 41.4182 2.88499 41.5033 3.01224C41.5883 3.1395 41.6337 3.28911 41.6337 3.44215C41.6335 3.64731 41.5519 3.84402 41.4068 3.98909C41.2617 4.13416 41.065 4.21575 40.8599 4.21596Z" fill="#5A859D"/>
<path d="M123.857 34.0532C123.551 34.0532 123.252 34.144 122.997 34.314C122.743 34.4841 122.544 34.7258 122.427 35.0086C122.31 35.2914 122.279 35.6026 122.339 35.9028C122.399 36.203 122.546 36.4787 122.763 36.6952C122.979 36.9116 123.255 37.059 123.555 37.1187C123.855 37.1784 124.166 37.1478 124.449 37.0307C124.732 36.9135 124.974 36.7152 125.144 36.4607C125.314 36.2061 125.405 35.9069 125.405 35.6008C125.404 35.1905 125.241 34.7972 124.951 34.507C124.661 34.2169 124.267 34.0537 123.857 34.0532ZM123.857 36.3747C123.704 36.3747 123.554 36.3293 123.427 36.2442C123.3 36.1592 123.201 36.0384 123.142 35.897C123.083 35.7556 123.068 35.6 123.098 35.4499C123.128 35.2998 123.202 35.1619 123.31 35.0537C123.418 34.9455 123.556 34.8718 123.706 34.8419C123.856 34.812 124.012 34.8274 124.153 34.8859C124.294 34.9445 124.415 35.0437 124.5 35.1709C124.585 35.2982 124.631 35.4478 124.631 35.6008C124.631 35.806 124.549 36.0027 124.404 36.1478C124.259 36.2929 124.062 36.3744 123.857 36.3747Z" fill="#5A859D"/>
<path d="M8.01199 4.5818C8.01199 4.27571 7.92122 3.97649 7.75117 3.72199C7.58111 3.46748 7.33941 3.26912 7.05662 3.15199C6.77383 3.03485 6.46265 3.0042 6.16244 3.06392C5.86223 3.12363 5.58647 3.27103 5.37004 3.48747C5.1536 3.70391 5.0062 3.97967 4.94649 4.27987C4.88677 4.58008 4.91742 4.89126 5.03455 5.17405C5.15169 5.45684 5.35005 5.69854 5.60456 5.8686C5.85906 6.03865 6.15828 6.12942 6.46437 6.12942C6.87468 6.12895 7.26805 5.96575 7.55818 5.67561C7.84832 5.38548 8.01152 4.99211 8.01199 4.5818ZM5.69056 4.5818C5.69056 4.42875 5.73594 4.27915 5.82097 4.15189C5.906 4.02464 6.02685 3.92546 6.16824 3.86689C6.30964 3.80832 6.46523 3.793 6.61533 3.82286C6.76544 3.85272 6.90331 3.92641 7.01153 4.03463C7.11975 4.14285 7.19345 4.28073 7.22331 4.43084C7.25317 4.58094 7.23784 4.73653 7.17928 4.87792C7.12071 5.01932 7.02153 5.14017 6.89427 5.2252C6.76702 5.31023 6.61741 5.35561 6.46437 5.35561C6.2592 5.3554 6.0625 5.27381 5.91743 5.12874C5.77235 4.98367 5.69076 4.78696 5.69056 4.5818Z" fill="#5A859D"/>
<path d="M71.26 6.09927L72.4107 4.58647L71.6841 4.1748L70.9459 5.86945H70.9211L70.1713 4.18641L69.4315 4.61046L70.5698 6.08766V6.11165L68.79 5.88183V6.70439L70.5822 6.47457V6.49933L69.4315 7.97576L70.1218 8.41219L70.9095 6.70439H70.9327L71.6593 8.3998L72.4223 7.96415L71.26 6.51094V6.48695L73.0878 6.70439V5.88183L71.26 6.12326V6.09927Z" fill="#B4EDFF"/>
<path d="M6.03246 37.5306L5.37008 38.381L5.76782 38.6325L6.22127 37.649H6.2352L6.65306 38.6255L7.09258 38.3748L6.42324 37.5376V37.5236L7.47562 37.649V37.1754L6.42324 37.3147V37.3008L7.08562 36.4295L6.66776 36.1919L6.24217 37.1684H6.22824L5.79645 36.1989L5.37008 36.4434L6.02627 37.2938V37.3077L5.00098 37.1754V37.649L6.03246 37.5167V37.5306Z" fill="#B4EDFF"/>
<path d="M105.686 20.5148V19.707L103.894 19.9445V19.9213L105.022 18.4364L104.31 18.0332L103.586 19.6953H103.562L102.826 18.0448L102.101 18.4603L103.217 19.9097V19.9329L101.471 19.707V20.5148L103.229 20.2896V20.3128L102.101 21.7614L102.777 22.1893L103.55 20.5148H103.573L104.286 22.1777L105.034 21.7498L103.894 20.3245V20.3012L105.686 20.5148Z" fill="#B4EDFF"/>
<path d="M120.331 9.07048L121.305 7.7906L120.69 7.44238L120.065 8.87625H120.044L119.41 7.45244L118.784 7.81072L119.748 9.06042V9.08131L118.241 8.88631V9.58274L119.758 9.38851V9.40863L118.784 10.6583L119.368 11.0274L120.035 9.58274H120.054L120.669 11.0174L121.315 10.6483L120.331 9.41869V9.39857L121.878 9.58274V8.88631L120.331 9.09137V9.07048Z" fill="#B4EDFF"/>
<path d="M2.04762 116.272C2.90235 116.272 3.59524 115.579 3.59524 114.724C3.59524 113.87 2.90235 113.177 2.04762 113.177C1.19289 113.177 0.5 113.87 0.5 114.724C0.5 115.579 1.19289 116.272 2.04762 116.272Z" fill="#5A859D"/>
<path d="M9.01187 113.177H6.69044C6.27999 113.177 5.88634 113.34 5.59611 113.63C5.30587 113.92 5.14282 114.314 5.14282 114.724C5.14282 115.135 5.30587 115.528 5.59611 115.819C5.88634 116.109 6.27999 116.272 6.69044 116.272H9.01187C9.42232 116.272 9.81597 116.109 10.1062 115.819C10.3964 115.528 10.5595 115.135 10.5595 114.724C10.5595 114.314 10.3964 113.92 10.1062 113.63C9.81597 113.34 9.42232 113.177 9.01187 113.177Z" fill="#5A859D"/>
<path d="M124.309 113.177H121.988C121.578 113.177 121.184 113.34 120.894 113.63C120.603 113.92 120.44 114.314 120.44 114.724C120.44 115.135 120.603 115.528 120.894 115.819C121.184 116.109 121.578 116.272 121.988 116.272H124.309C124.72 116.272 125.114 116.109 125.404 115.819C125.694 115.528 125.857 115.135 125.857 114.724C125.857 114.314 125.694 113.92 125.404 113.63C125.114 113.34 124.72 113.177 124.309 113.177Z" fill="#5A859D"/>
<path d="M128.952 116.272C129.807 116.272 130.5 115.579 130.5 114.724C130.5 113.87 129.807 113.177 128.952 113.177C128.098 113.177 127.405 113.87 127.405 114.724C127.405 115.579 128.098 116.272 128.952 116.272Z" fill="#5A859D"/>
<path d="M95.9285 119.367H89.4999C89.1108 119.398 88.7478 119.575 88.483 119.862C88.2183 120.149 88.0713 120.525 88.0713 120.915C88.0713 121.305 88.2183 121.681 88.483 121.968C88.7478 122.255 89.1108 122.431 89.4999 122.462H95.9285C96.3175 122.431 96.6806 122.255 96.9453 121.968C97.21 121.681 97.3571 121.305 97.3571 120.915C97.3571 120.525 97.21 120.149 96.9453 119.862C96.6806 119.575 96.3175 119.398 95.9285 119.367Z" fill="#B4EDFF"/>
<path d="M41.4998 119.367H35.0712C34.6821 119.398 34.3191 119.575 34.0543 119.862C33.7896 120.149 33.6426 120.525 33.6426 120.915C33.6426 121.305 33.7896 121.681 34.0543 121.968C34.3191 122.255 34.6821 122.431 35.0712 122.462H41.4998C41.8888 122.431 42.2519 122.255 42.5166 121.968C42.7813 121.681 42.9283 121.305 42.9283 120.915C42.9283 120.525 42.7813 120.149 42.5166 119.862C42.2519 119.575 41.8888 119.398 41.4998 119.367Z" fill="#B4EDFF"/>
<path d="M80.9761 119.367H50.0237C49.6132 119.367 49.2196 119.53 48.9294 119.82C48.6391 120.111 48.4761 120.504 48.4761 120.915C48.4761 121.325 48.6391 121.719 48.9294 122.009C49.2196 122.299 49.6132 122.462 50.0237 122.462H62.3582V124.01H56.2142C55.8037 124.01 55.4101 124.173 55.1198 124.463C54.8296 124.754 54.6666 125.147 54.6666 125.558C54.6666 125.968 54.8296 126.362 55.1198 126.652C55.4101 126.942 55.8037 127.105 56.2142 127.105H75.5594C75.9699 127.105 76.3635 126.942 76.6537 126.652C76.944 126.362 77.107 125.968 77.107 125.558C77.107 125.147 76.944 124.754 76.6537 124.463C76.3635 124.173 75.9699 124.01 75.5594 124.01H68.6415V122.462H80.9761C81.3865 122.462 81.7802 122.299 82.0704 122.009C82.3606 121.719 82.5237 121.325 82.5237 120.915C82.5237 120.504 82.3606 120.111 82.0704 119.82C81.7802 119.53 81.3865 119.367 80.9761 119.367Z" fill="#B4EDFF"/>
<path d="M117.13 113.177H68.382C68.2784 113 68.1405 112.846 67.9763 112.723L66.5315 111.639L67.9763 110.556C68.3046 110.309 68.5216 109.943 68.5796 109.537C68.6375 109.13 68.5317 108.718 68.2854 108.389C68.0391 108.061 67.6725 107.844 67.2662 107.786C66.8599 107.728 66.4472 107.834 66.1189 108.08L63.0237 110.402C62.8315 110.546 62.6755 110.733 62.5681 110.947C62.4607 111.162 62.4048 111.399 62.4048 111.639C62.4048 111.88 62.4607 112.117 62.5681 112.331C62.6755 112.546 62.8315 112.733 63.0237 112.877C63.0237 112.877 63.1832 112.997 63.4234 113.177H13.8704C13.6502 113.148 13.4265 113.167 13.214 113.231C13.0016 113.296 12.8054 113.405 12.6385 113.552C12.4717 113.698 12.338 113.879 12.2464 114.081C12.1548 114.283 12.1074 114.503 12.1074 114.725C12.1074 114.947 12.1548 115.166 12.2464 115.368C12.338 115.571 12.4717 115.751 12.6385 115.898C12.8054 116.044 13.0016 116.153 13.214 116.218C13.4265 116.283 13.6502 116.301 13.8704 116.272H117.13C117.35 116.301 117.574 116.283 117.786 116.218C117.998 116.153 118.195 116.044 118.361 115.898C118.528 115.751 118.662 115.571 118.754 115.368C118.845 115.166 118.893 114.947 118.893 114.725C118.893 114.503 118.845 114.283 118.754 114.081C118.662 113.879 118.528 113.698 118.361 113.552C118.195 113.405 117.998 113.296 117.786 113.231C117.574 113.167 117.35 113.148 117.13 113.177Z" fill="#5A859D"/>
</g>
<defs>
<clipPath id="clip0_48_9526">
<rect width="130" height="130" fill="white" transform="translate(0.5)"/>
</clipPath>
</defs>
</svg>
