<svg width="131" height="130" viewBox="0 0 131 130" fill="none" xmlns="http://www.w3.org/2000/svg">
<g clip-path="url(#clip0_2067_981)">
<path d="M65.4999 83.3457C70.834 83.3397 75.9479 81.2181 79.7196 77.4464C83.4914 73.6746 85.613 68.5607 85.619 63.2267V21.441C85.619 20.2096 85.1298 19.0287 84.2591 18.158C83.3884 17.2873 82.2075 16.7981 80.9761 16.7981C79.7447 16.7981 78.5638 17.2873 77.6931 18.158C76.8224 19.0287 76.3332 20.2096 76.3332 21.441V63.2267C76.3332 66.0998 75.1919 68.8554 73.1602 70.887C71.1286 72.9186 68.3731 74.06 65.4999 74.06C62.6267 74.06 59.8712 72.9186 57.8396 70.887C55.8079 68.8554 54.6666 66.0998 54.6666 63.2267V21.441C54.6666 20.2096 54.1774 19.0287 53.3067 18.158C52.436 17.2873 51.2551 16.7981 50.0237 16.7981C48.7924 16.7981 47.6114 17.2873 46.7407 18.158C45.87 19.0287 45.3809 20.2096 45.3809 21.441V63.2267C45.3868 68.5607 47.5084 73.6746 51.2802 77.4464C55.0519 81.2181 60.1658 83.3397 65.4999 83.3457ZM48.4761 21.441C48.4761 21.0305 48.6391 20.6369 48.9294 20.3466C49.2196 20.0564 49.6133 19.8933 50.0237 19.8933C50.4342 19.8933 50.8278 20.0564 51.118 20.3466C51.4083 20.6369 51.5713 21.0305 51.5713 21.441V63.2267C51.5713 65.0558 51.9316 66.867 52.6316 68.5569C53.3316 70.2468 54.3575 71.7823 55.6509 73.0757C56.9443 74.369 58.4798 75.395 60.1697 76.095C61.8596 76.795 63.6708 77.1552 65.4999 77.1552C67.329 77.1552 69.1403 76.795 70.8301 76.095C72.52 75.395 74.0555 74.369 75.3489 73.0757C76.6423 71.7823 77.6683 70.2468 78.3682 68.5569C79.0682 66.867 79.4285 65.0558 79.4285 63.2267V21.441C79.4285 21.0305 79.5915 20.6369 79.8818 20.3466C80.172 20.0564 80.5656 19.8933 80.9761 19.8933C81.3866 19.8933 81.7802 20.0564 82.0704 20.3466C82.3607 20.6369 82.5237 21.0305 82.5237 21.441V63.2267C82.5237 67.7417 80.7301 72.0717 77.5376 75.2643C74.345 78.4569 70.0149 80.2505 65.4999 80.2505C60.9849 80.2505 56.6548 78.4569 53.4623 75.2643C50.2697 72.0717 48.4761 67.7417 48.4761 63.2267V21.441Z" fill="#3A576A"/>
<path d="M65.4998 70.9647C67.0303 70.9647 68.5263 70.5109 69.7989 69.6606C71.0714 68.8103 72.0632 67.6018 72.6489 66.1879C73.2346 64.7739 73.3878 63.218 73.0892 61.717C72.7906 60.216 72.0537 58.8372 70.9715 57.755C69.8893 56.6728 68.5105 55.9358 67.0094 55.6372C65.5084 55.3386 63.9525 55.4919 62.5386 56.0776C61.1246 56.6632 59.9161 57.655 59.0658 58.9276C58.2155 60.2001 57.7617 61.6962 57.7617 63.2266C57.7641 65.2782 58.5801 67.245 60.0307 68.6957C61.4814 70.1464 63.4483 70.9624 65.4998 70.9647ZM65.4998 58.5838C66.4181 58.5838 67.3157 58.8561 68.0792 59.3662C68.8428 59.8764 69.4378 60.6015 69.7893 61.4499C70.1407 62.2983 70.2326 63.2318 70.0535 64.1324C69.8743 65.033 69.4321 65.8603 68.7828 66.5096C68.1335 67.1589 67.3062 67.6011 66.4056 67.7803C65.505 67.9594 64.5714 67.8675 63.7231 67.5161C62.8747 67.1647 62.1496 66.5696 61.6394 65.8061C61.1293 65.0425 60.857 64.1449 60.857 63.2266C60.8583 61.9957 61.3479 60.8155 62.2183 59.9451C63.0887 59.0747 64.2689 58.5851 65.4998 58.5838Z" fill="#B4EDFF"/>
<path d="M34.5479 90.3099C34.5479 92.4525 35.1832 94.547 36.3736 96.3286C37.564 98.1101 39.2559 99.4986 41.2354 100.319C43.215 101.139 45.3932 101.353 47.4947 100.935C49.5961 100.517 51.5264 99.4853 53.0415 97.9702C54.5566 96.4552 55.5884 94.5248 56.0064 92.4234C56.4244 90.3219 56.2098 88.1437 55.3899 86.1642C54.5699 84.1846 53.1814 82.4927 51.3999 81.3023C49.6183 80.1119 47.5238 79.4766 45.3812 79.4766C42.509 79.4798 39.7554 80.6222 37.7244 82.6531C35.6935 84.6841 34.5511 87.4377 34.5479 90.3099ZM45.3812 82.5718C46.9116 82.5718 48.4077 83.0256 49.6802 83.8759C50.9528 84.7262 51.9446 85.9347 52.5303 87.3487C53.1159 88.7626 53.2692 90.3185 52.9706 91.8195C52.672 93.3206 51.935 94.6994 50.8528 95.7816C49.7707 96.8637 48.3919 97.6007 46.8908 97.8993C45.3898 98.1979 43.8339 98.0446 42.4199 97.459C41.006 96.8733 39.7975 95.8815 38.9472 94.609C38.0969 93.3364 37.6431 91.8403 37.6431 90.3099C37.6454 88.2583 38.4615 86.2915 39.9121 84.8408C41.3628 83.3902 43.3296 82.5741 45.3812 82.5718Z" fill="#B4EDFF"/>
<path d="M85.6195 79.4766C83.4768 79.4766 81.3823 80.1119 79.6008 81.3023C77.8193 82.4927 76.4307 84.1846 75.6108 86.1642C74.7908 88.1437 74.5763 90.3219 74.9943 92.4234C75.4123 94.5248 76.4441 96.4552 77.9591 97.9702C79.4742 99.4853 81.4045 100.517 83.506 100.935C85.6075 101.353 87.7857 101.139 89.7652 100.319C91.7447 99.4986 93.4367 98.1101 94.6271 96.3286C95.8174 94.547 96.4528 92.4525 96.4528 90.3099C96.4496 87.4377 95.3072 84.6841 93.2762 82.6531C91.2453 80.6222 88.4917 79.4798 85.6195 79.4766ZM85.6195 98.048C84.089 98.048 82.5929 97.5942 81.3204 96.7439C80.0479 95.8936 79.0561 94.6851 78.4704 93.2711C77.8847 91.8572 77.7315 90.3013 78.0301 88.8003C78.3286 87.2992 79.0656 85.9204 80.1478 84.8382C81.23 83.756 82.6088 83.0191 84.1098 82.7205C85.6109 82.4219 87.1668 82.5752 88.5807 83.1608C89.9947 83.7465 91.2032 84.7383 92.0535 86.0108C92.9037 87.2834 93.3576 88.7794 93.3576 90.3099C93.3552 92.3614 92.5392 94.3283 91.0885 95.779C89.6379 97.2296 87.671 98.0456 85.6195 98.048Z" fill="#B4EDFF"/>
<path d="M60.083 91.8578C60.083 92.9291 60.4007 93.9764 60.9959 94.8672C61.5911 95.7579 62.437 96.4522 63.4268 96.8622C64.4166 97.2722 65.5057 97.3794 66.5564 97.1704C67.6071 96.9614 68.5723 96.4455 69.3298 95.688C70.0874 94.9305 70.6033 93.9653 70.8123 92.9146C71.0213 91.8638 70.914 90.7747 70.504 89.785C70.094 88.7952 69.3998 87.9492 68.509 87.354C67.6182 86.7588 66.571 86.4412 65.4997 86.4412C64.0636 86.4428 62.6868 87.0141 61.6714 88.0295C60.6559 89.045 60.0847 90.4218 60.083 91.8578ZM67.8211 91.8578C67.8211 92.317 67.685 92.7658 67.4299 93.1475C67.1748 93.5293 66.8122 93.8268 66.388 94.0025C65.9639 94.1783 65.4971 94.2242 65.0468 94.1347C64.5965 94.0451 64.1828 93.824 63.8582 93.4993C63.5335 93.1747 63.3124 92.761 63.2229 92.3107C63.1333 91.8604 63.1793 91.3936 63.355 90.9695C63.5307 90.5453 63.8282 90.1827 64.21 89.9276C64.5917 89.6726 65.0405 89.5364 65.4997 89.5364C66.1151 89.5371 66.7052 89.7819 67.1404 90.2171C67.5756 90.6523 67.8204 91.2424 67.8211 91.8578Z" fill="#3A576A"/>
<path d="M104.19 57.8102C104.19 56.7389 103.872 55.6916 103.277 54.8009C102.682 53.9101 101.836 53.2158 100.846 52.8059C99.8562 52.3959 98.7671 52.2886 97.7164 52.4976C96.6656 52.7066 95.7005 53.2225 94.943 53.9801C94.1854 54.7376 93.6695 55.7028 93.4605 56.7535C93.2515 57.8042 93.3588 58.8933 93.7688 59.8831C94.1787 60.8729 94.873 61.7188 95.7638 62.314C96.6545 62.9092 97.7018 63.2269 98.7731 63.2269C100.209 63.2252 101.586 62.654 102.601 61.6385C103.617 60.6231 104.188 59.2463 104.19 57.8102ZM96.4517 57.8102C96.4517 57.3511 96.5878 56.9023 96.8429 56.5205C97.098 56.1387 97.4606 55.8412 97.8847 55.6655C98.3089 55.4898 98.7757 55.4438 99.226 55.5334C99.6763 55.623 100.09 55.8441 100.415 56.1687C100.739 56.4934 100.96 56.907 101.05 57.3573C101.14 57.8077 101.094 58.2744 100.918 58.6986C100.742 59.1228 100.445 59.4853 100.063 59.7404C99.6811 59.9955 99.2322 60.1316 98.7731 60.1316C98.1576 60.131 97.5676 59.8862 97.1324 59.451C96.6971 59.0158 96.4524 58.4257 96.4517 57.8102Z" fill="#3A576A"/>
<path d="M32.2262 52.3936C31.1549 52.3936 30.1077 52.7112 29.2169 53.3064C28.3261 53.9016 27.6319 54.7476 27.2219 55.7374C26.8119 56.7271 26.7046 57.8162 26.9137 58.867C27.1227 59.9177 27.6385 60.8829 28.3961 61.6404C29.1536 62.3979 30.1188 62.9138 31.1695 63.1228C32.2202 63.3318 33.3093 63.2245 34.2991 62.8146C35.2889 62.4046 36.1348 61.7103 36.73 60.8196C37.3252 59.9288 37.6429 58.8815 37.6429 57.8102C37.6412 56.3741 37.07 54.9974 36.0546 53.9819C35.0391 52.9665 33.6623 52.3952 32.2262 52.3936ZM32.2262 60.1316C31.7671 60.1316 31.3183 59.9955 30.9365 59.7404C30.5548 59.4853 30.2572 59.1228 30.0815 58.6986C29.9058 58.2744 29.8598 57.8077 29.9494 57.3573C30.039 56.907 30.2601 56.4934 30.5847 56.1687C30.9094 55.8441 31.323 55.623 31.7734 55.5334C32.2237 55.4438 32.6904 55.4898 33.1146 55.6655C33.5388 55.8412 33.9014 56.1387 34.1564 56.5205C34.4115 56.9023 34.5477 57.3511 34.5477 57.8102C34.547 58.4257 34.3022 59.0158 33.867 59.451C33.4318 59.8862 32.8417 60.131 32.2262 60.1316Z" fill="#3A576A"/>
<path d="M57.7617 46.2026H73.2379V49.2979H57.7617V46.2026Z" fill="#3A576A"/>
<path d="M57.7617 40.0122H73.2379V43.1074H57.7617V40.0122Z" fill="#3A576A"/>
<path d="M65.1124 9.31815C65.5716 9.31815 66.0204 9.182 66.4022 8.92692C66.7839 8.67184 67.0815 8.30928 67.2572 7.88509C67.4329 7.46091 67.4788 6.99415 67.3893 6.54383C67.2997 6.09352 67.0786 5.67988 66.7539 5.35522C66.4293 5.03057 66.0156 4.80947 65.5653 4.7199C65.115 4.63033 64.6483 4.6763 64.2241 4.852C63.7999 5.02771 63.4373 5.32525 63.1822 5.70701C62.9272 6.08876 62.791 6.53759 62.791 6.99672C62.7917 7.61219 63.0365 8.20224 63.4717 8.63744C63.9069 9.07264 64.497 9.31745 65.1124 9.31815ZM65.1124 5.83601C65.342 5.83601 65.5664 5.90408 65.7573 6.03162C65.9482 6.15916 66.097 6.34044 66.1848 6.55254C66.2727 6.76463 66.2956 6.99801 66.2509 7.22317C66.2061 7.44832 66.0955 7.65514 65.9332 7.81747C65.7709 7.9798 65.564 8.09035 65.3389 8.13513C65.1137 8.17992 64.8803 8.15693 64.6683 8.06908C64.4562 7.98123 64.2749 7.83246 64.1473 7.64158C64.0198 7.4507 63.9517 7.22629 63.9517 6.99672C63.952 6.68897 64.0744 6.39392 64.292 6.17631C64.5096 5.9587 64.8047 5.83631 65.1124 5.83601Z" fill="#3A576A"/>
<path d="M28.866 3.32104C28.5599 3.32104 28.2607 3.41181 28.0062 3.58187C27.7517 3.75192 27.5533 3.99363 27.4362 4.27642C27.319 4.55921 27.2884 4.87038 27.3481 5.17059C27.4078 5.4708 27.5552 5.74656 27.7716 5.963C27.9881 6.17943 28.2638 6.32683 28.5641 6.38655C28.8643 6.44626 29.1754 6.41561 29.4582 6.29848C29.741 6.18134 29.9827 5.98298 30.1528 5.72848C30.3228 5.47397 30.4136 5.17475 30.4136 4.86866C30.4131 4.45835 30.2499 4.06498 29.9598 3.77485C29.6697 3.48472 29.2763 3.32151 28.866 3.32104ZM28.866 5.64247C28.7129 5.64247 28.5633 5.59709 28.4361 5.51206C28.3088 5.42704 28.2096 5.30618 28.1511 5.16479C28.0925 5.02339 28.0772 4.86781 28.107 4.7177C28.1369 4.5676 28.2106 4.42972 28.3188 4.3215C28.427 4.21328 28.5649 4.13958 28.715 4.10972C28.8651 4.07987 29.0207 4.09519 29.1621 4.15376C29.3035 4.21233 29.4244 4.31151 29.5094 4.43876C29.5944 4.56601 29.6398 4.71562 29.6398 4.86866C29.6396 5.07383 29.558 5.27053 29.4129 5.4156C29.2678 5.56068 29.0711 5.64227 28.866 5.64247Z" fill="#3A576A"/>
<path d="M106.593 3.96582C106.286 3.96582 105.987 4.05659 105.733 4.22664C105.478 4.3967 105.28 4.6384 105.163 4.92119C105.046 5.20398 105.015 5.51516 105.075 5.81536C105.134 6.11557 105.282 6.39133 105.498 6.60777C105.715 6.82421 105.99 6.97161 106.291 7.03132C106.591 7.09104 106.902 7.06039 107.185 6.94325C107.468 6.82612 107.709 6.62775 107.879 6.37325C108.049 6.11875 108.14 5.81953 108.14 5.51344C108.14 5.10313 107.976 4.70976 107.686 4.41963C107.396 4.12949 107.003 3.96629 106.593 3.96582ZM106.593 6.28725C106.44 6.28725 106.29 6.24187 106.163 6.15684C106.035 6.07181 105.936 5.95096 105.878 5.80956C105.819 5.66817 105.804 5.51258 105.834 5.36248C105.863 5.21237 105.937 5.07449 106.045 4.96627C106.154 4.85805 106.291 4.78436 106.442 4.7545C106.592 4.72464 106.747 4.73996 106.889 4.79853C107.03 4.8571 107.151 4.95628 107.236 5.08353C107.321 5.21079 107.366 5.36039 107.366 5.51344C107.366 5.7186 107.285 5.91531 107.139 6.06038C106.994 6.20545 106.798 6.28704 106.593 6.28725Z" fill="#3A576A"/>
<path d="M94.1306 17.8301C93.8245 17.8301 93.5253 17.9208 93.2708 18.0909C93.0163 18.261 92.818 18.5027 92.7008 18.7854C92.5837 19.0682 92.553 19.3794 92.6127 19.6796C92.6725 19.9798 92.8199 20.2556 93.0363 20.472C93.2527 20.6885 93.5285 20.8359 93.8287 20.8956C94.1289 20.9553 94.4401 20.9246 94.7229 20.8075C95.0057 20.6904 95.2474 20.492 95.4174 20.2375C95.5875 19.983 95.6782 19.6838 95.6782 19.3777C95.6778 18.9674 95.5146 18.574 95.2244 18.2839C94.9343 17.9938 94.5409 17.8305 94.1306 17.8301ZM94.1306 20.1515C93.9776 20.1515 93.828 20.1061 93.7007 20.0211C93.5735 19.9361 93.4743 19.8152 93.4157 19.6738C93.3572 19.5324 93.3418 19.3768 93.3717 19.2267C93.4015 19.0766 93.4752 18.9387 93.5835 18.8305C93.6917 18.7223 93.8296 18.6486 93.9797 18.6188C94.1298 18.5889 94.2854 18.6042 94.4268 18.6628C94.5681 18.7214 94.689 18.8205 94.774 18.9478C94.8591 19.075 94.9044 19.2247 94.9044 19.3777C94.9042 19.5829 94.8226 19.7796 94.6776 19.9246C94.5325 20.0697 94.3358 20.1513 94.1306 20.1515Z" fill="#3A576A"/>
<path d="M19.7095 35.3052C19.7095 34.9991 19.6187 34.6999 19.4487 34.4454C19.2786 34.1909 19.0369 33.9925 18.7541 33.8754C18.4713 33.7582 18.1602 33.7276 17.86 33.7873C17.5597 33.847 17.284 33.9944 17.0675 34.2109C16.8511 34.4273 16.7037 34.7031 16.644 35.0033C16.5843 35.3035 16.6149 35.6146 16.7321 35.8974C16.8492 36.1802 17.0476 36.4219 17.3021 36.592C17.5566 36.762 17.8558 36.8528 18.1619 36.8528C18.5722 36.8523 18.9656 36.6891 19.2557 36.399C19.5458 36.1089 19.709 35.7155 19.7095 35.3052ZM17.3881 35.3052C17.3881 35.1521 17.4335 35.0025 17.5185 34.8753C17.6035 34.748 17.7244 34.6489 17.8658 34.5903C18.0071 34.5317 18.1627 34.5164 18.3128 34.5462C18.4629 34.5761 18.6008 34.6498 18.709 34.758C18.8173 34.8662 18.891 35.0041 18.9208 35.1542C18.9507 35.3043 18.9354 35.4599 18.8768 35.6013C18.8182 35.7427 18.719 35.8636 18.5918 35.9486C18.4645 36.0336 18.3149 36.079 18.1619 36.079C17.9567 36.0788 17.76 35.9972 17.6149 35.8521C17.4699 35.7071 17.3883 35.5104 17.3881 35.3052Z" fill="#3A576A"/>
<path d="M36.7852 22.8715L37.9359 21.3579L37.2093 20.947L36.4703 22.6417H36.4463L35.6957 20.9586L34.9567 21.3827L36.095 22.8599V22.8839L34.3145 22.6533V23.4766L36.1066 23.2468V23.2715L34.9567 24.748L35.6462 25.1844L36.4339 23.4766H36.4579L37.1845 25.172L37.9475 24.7364L36.7852 23.2832V23.2592L38.613 23.4766V22.6533L36.7852 22.8955V22.8715Z" fill="#B4EDFF"/>
<path d="M6.66507 13.7298L6.00269 14.5802L6.39966 14.8317L6.85311 13.8482H6.86704L7.28567 14.8247L7.72442 14.5733L7.05585 13.7368V13.7228L8.10823 13.8482V13.3746L7.05585 13.5139V13.5L7.71823 12.6287L7.2996 12.3911L6.874 13.3669H6.86007L6.42829 12.3981L6.00269 12.6426L6.65811 13.493V13.5069L5.63281 13.3746V13.8482L6.66507 13.7159V13.7298Z" fill="#B4EDFF"/>
<path d="M110.809 33.6034V32.7956L109.016 33.0331V33.0091L110.145 31.525L109.432 31.1218L108.708 32.784H108.684L107.948 31.1334L107.223 31.549L108.339 32.9975V33.0215L106.593 32.7956V33.6034L108.351 33.3783V33.4015L107.223 34.85L107.899 35.278L108.672 33.6034H108.695L109.408 35.2656L110.156 34.8384L109.016 33.4131V33.3899L110.809 33.6034Z" fill="#B4EDFF"/>
<path d="M125.993 16.5695L126.967 15.2889L126.352 14.9407L125.728 16.3745H125.707L125.072 14.9507L124.447 15.3098L125.41 16.5595V16.5796L123.903 16.3854V17.0818L125.42 16.8876V16.9077L124.447 18.1574L125.03 18.5265L125.697 17.0818H125.717L126.332 18.5157L126.977 18.1473L125.993 16.9178V16.8976L127.54 17.0818V16.3854L125.993 16.5897V16.5695Z" fill="#B4EDFF"/>
<path d="M2.04762 115.845C2.90235 115.845 3.59524 115.153 3.59524 114.298C3.59524 113.443 2.90235 112.75 2.04762 112.75C1.19289 112.75 0.5 113.443 0.5 114.298C0.5 115.153 1.19289 115.845 2.04762 115.845Z" fill="#3A576A"/>
<path d="M9.01163 112.75H6.6902C6.27974 112.75 5.8861 112.914 5.59587 113.204C5.30563 113.494 5.14258 113.888 5.14258 114.298C5.14258 114.709 5.30563 115.102 5.59587 115.392C5.8861 115.683 6.27974 115.846 6.6902 115.846H9.01163C9.42208 115.846 9.81572 115.683 10.106 115.392C10.3962 115.102 10.5592 114.709 10.5592 114.298C10.5592 113.888 10.3962 113.494 10.106 113.204C9.81572 112.914 9.42208 112.75 9.01163 112.75Z" fill="#3A576A"/>
<path d="M124.309 112.75H121.988C121.578 112.75 121.184 112.914 120.894 113.204C120.603 113.494 120.44 113.888 120.44 114.298C120.44 114.709 120.603 115.102 120.894 115.392C121.184 115.683 121.578 115.846 121.988 115.846H124.309C124.72 115.846 125.114 115.683 125.404 115.392C125.694 115.102 125.857 114.709 125.857 114.298C125.857 113.888 125.694 113.494 125.404 113.204C125.114 112.914 124.72 112.75 124.309 112.75Z" fill="#3A576A"/>
<path d="M128.952 115.845C129.807 115.845 130.5 115.153 130.5 114.298C130.5 113.443 129.807 112.75 128.952 112.75C128.097 112.75 127.404 113.443 127.404 114.298C127.404 115.153 128.097 115.845 128.952 115.845Z" fill="#3A576A"/>
<path d="M91.9285 118.941H85.4999C85.1108 118.972 84.7478 119.149 84.483 119.435C84.2183 119.722 84.0713 120.098 84.0713 120.489C84.0713 120.879 84.2183 121.255 84.483 121.542C84.7478 121.828 85.1108 122.005 85.4999 122.036H91.9285C92.3175 122.005 92.6806 121.828 92.9453 121.542C93.21 121.255 93.3571 120.879 93.3571 120.489C93.3571 120.098 93.21 119.722 92.9453 119.435C92.6806 119.149 92.3175 118.972 91.9285 118.941Z" fill="#B4EDFF"/>
<path d="M45.4998 118.941H39.0712C38.6821 118.972 38.3191 119.149 38.0543 119.435C37.7896 119.722 37.6426 120.098 37.6426 120.489C37.6426 120.879 37.7896 121.255 38.0543 121.542C38.3191 121.828 38.6821 122.005 39.0712 122.036H45.4998C45.8888 122.005 46.2519 121.828 46.5166 121.542C46.7813 121.255 46.9283 120.879 46.9283 120.489C46.9283 120.098 46.7813 119.722 46.5166 119.435C46.2519 119.149 45.8888 118.972 45.4998 118.941Z" fill="#B4EDFF"/>
<path d="M80.9766 118.941H50.0242C49.6137 118.941 49.2201 119.104 48.9298 119.394C48.6396 119.684 48.4766 120.078 48.4766 120.489C48.4766 120.899 48.6396 121.293 48.9298 121.583C49.2201 121.873 49.6137 122.036 50.0242 122.036H62.3587V123.584H56.2147C55.8042 123.584 55.4106 123.747 55.1203 124.037C54.8301 124.327 54.667 124.721 54.667 125.131C54.667 125.542 54.8301 125.935 55.1203 126.226C55.4106 126.516 55.8042 126.679 56.2147 126.679H75.5599C75.9703 126.679 76.364 126.516 76.6542 126.226C76.9445 125.935 77.1075 125.542 77.1075 125.131C77.1075 124.721 76.9445 124.327 76.6542 124.037C76.364 123.747 75.9703 123.584 75.5599 123.584H68.642V122.036H80.9766C81.387 122.036 81.7807 121.873 82.0709 121.583C82.3611 121.293 82.5242 120.899 82.5242 120.489C82.5242 120.078 82.3611 119.684 82.0709 119.394C81.7807 119.104 81.387 118.941 80.9766 118.941Z" fill="#B4EDFF"/>
<path d="M117.13 112.751H98.7738V109.655H105.738C106.969 109.654 108.149 109.164 109.02 108.294C109.89 107.424 110.38 106.243 110.381 105.012V50.8458C110.38 49.6148 109.89 48.4347 109.02 47.5643C108.149 46.6939 106.969 46.2043 105.738 46.2029H98.7738V43.1077C98.7729 42.287 98.4465 41.5003 97.8663 40.92C97.286 40.3397 96.4992 40.0133 95.6786 40.0125H88.7143V43.1077H95.6786V46.2029H88.7143V49.2982H105.738C106.148 49.2986 106.542 49.4618 106.832 49.752C107.122 50.0421 107.285 50.4355 107.286 50.8458V105.012C107.285 105.423 107.122 105.816 106.832 106.106C106.542 106.396 106.148 106.56 105.738 106.56H25.2619C24.8516 106.56 24.4582 106.396 24.1681 106.106C23.878 105.816 23.7147 105.423 23.7143 105.012V50.8458C23.7147 50.4355 23.878 50.0421 24.1681 49.752C24.4582 49.4618 24.8516 49.2986 25.2619 49.2982H42.2857V46.2029H35.3214V43.1077H42.2857V40.0125H35.3214C34.5008 40.0133 33.714 40.3397 33.1337 40.92C32.5534 41.5003 32.2271 42.287 32.2262 43.1077V46.2029H25.2619C24.0309 46.2043 22.8508 46.6939 21.9804 47.5643C21.11 48.4347 20.6204 49.6148 20.619 50.8458V105.012C20.6204 106.243 21.11 107.424 21.9804 108.294C22.8508 109.164 24.0309 109.654 25.2619 109.655H32.2262V112.751H13.8704C13.6502 112.722 13.4265 112.74 13.214 112.805C13.0016 112.87 12.8054 112.979 12.6385 113.125C12.4717 113.272 12.338 113.452 12.2464 113.654C12.1548 113.857 12.1074 114.076 12.1074 114.298C12.1074 114.52 12.1548 114.74 12.2464 114.942C12.338 115.144 12.4717 115.325 12.6385 115.471C12.8054 115.618 13.0016 115.727 13.214 115.791C13.4265 115.856 13.6502 115.875 13.8704 115.846H117.13C117.35 115.875 117.574 115.856 117.786 115.791C117.998 115.727 118.195 115.618 118.361 115.471C118.528 115.325 118.662 115.144 118.754 114.942C118.845 114.74 118.893 114.52 118.893 114.298C118.893 114.076 118.845 113.857 118.754 113.654C118.662 113.452 118.528 113.272 118.361 113.125C118.195 112.979 117.998 112.87 117.786 112.805C117.574 112.74 117.35 112.722 117.13 112.751ZM35.3214 112.751V109.655H95.6793L95.6809 112.751H35.3214Z" fill="#3A576A"/>
</g>
<defs>
<clipPath id="clip0_2067_981">
<rect width="130" height="130" fill="white" transform="translate(0.5)"/>
</clipPath>
</defs>
</svg>
