<svg width="131" height="130" viewBox="0 0 131 130" fill="none" xmlns="http://www.w3.org/2000/svg">
<g clip-path="url(#clip0_2067_2202)">
<path d="M86.2513 67.9C86.2471 67.862 83.3348 48.1445 83.3348 48.1445C83.2046 47.087 82.6926 46.1134 81.895 45.4069C81.0975 44.7004 80.0693 44.3096 79.0038 44.3079H75.0056C74.3926 44.3086 73.7866 44.4386 73.2273 44.6894C72.6679 44.9401 72.1677 45.306 71.7593 45.7631C71.3462 46.2263 71.0354 46.7713 70.8472 47.3627C70.659 47.954 70.5976 48.5784 70.667 49.1951C70.6715 49.2346 73.5402 68.1523 73.5402 68.1523C73.6905 69.3586 73.6196 70.5822 73.3311 71.763C72.3155 75.6305 69.2399 78.1296 65.4955 78.1296H65.107C61.4318 78.1296 58.5515 75.7075 57.5904 71.8086C57.313 70.5999 57.2491 69.352 57.4013 68.1212C57.4013 68.1212 60.2666 49.2347 60.271 49.1951C60.3307 48.5845 60.2635 47.9681 60.0738 47.3847C59.8841 46.8012 59.576 46.2632 59.1686 45.8044C58.7613 45.3456 58.2637 44.9758 57.7068 44.7183C57.1499 44.4608 56.5459 44.321 55.9325 44.3079H51.9873C50.9219 44.3095 49.8937 44.7003 49.0961 45.4068C48.2986 46.1132 47.7865 47.0867 47.6563 48.1442C47.6563 48.1442 44.7547 67.7645 44.7505 67.8027C44.4113 70.5978 44.6417 73.4326 45.4279 76.1363C46.6312 80.3291 49.1619 84.0186 52.6401 86.6511C56.1183 89.2835 60.3564 90.717 64.7185 90.7364H66.2726C70.811 90.6996 75.206 89.1412 78.7537 86.3106C82.3015 83.48 84.7971 79.5409 85.8408 75.1239C86.4023 72.7589 86.5413 70.3134 86.2513 67.9ZM75.0056 47.4031H79.0037C79.3193 47.4059 79.6227 47.5252 79.8558 47.738C80.0889 47.9507 80.2353 48.2421 80.2668 48.5561L80.7823 52.0459H74.2278L73.7429 48.8492C73.7207 48.6694 73.7367 48.4869 73.7898 48.3137C73.8429 48.1405 73.9319 47.9804 74.0511 47.8439C74.1702 47.7075 74.3168 47.5977 74.4813 47.5217C74.6458 47.4457 74.8244 47.4053 75.0056 47.4031ZM50.7242 48.5561C50.7557 48.2421 50.9021 47.9507 51.1352 47.738C51.3683 47.5252 51.6717 47.4059 51.9873 47.4031H55.9325C56.1137 47.4053 56.2923 47.4457 56.4568 47.5217C56.6213 47.5977 56.7679 47.7075 56.887 47.8439C57.0062 47.9804 57.0952 48.1405 57.1483 48.3137C57.2014 48.4869 57.2174 48.6694 57.1952 48.8492L56.7101 52.0459H50.208L50.7242 48.5561ZM82.8363 74.3798C81.9539 78.123 79.8432 81.4629 76.841 83.8665C73.8389 86.2701 70.1181 87.599 66.2725 87.6412H64.7185C61.0258 87.6045 57.4434 86.3786 54.5023 84.1454C51.5613 81.9121 49.4185 78.7904 48.3915 75.2433C47.7283 72.9379 47.5364 70.5226 47.8271 68.1414L49.7501 55.1412H56.2404L54.3317 67.719C54.1305 69.3315 54.2163 70.9669 54.5851 72.5494C55.8215 77.5648 59.7605 81.2248 65.107 81.2248H65.4955C70.8426 81.2248 75.0078 77.5646 76.3248 72.5491C76.7143 70.9806 76.8109 69.3537 76.6099 67.7502L74.6973 55.1412H81.2396L83.1746 68.2387C83.4239 70.2897 83.3093 72.3686 82.8363 74.3798Z" fill="#3A576A"/>
<path d="M62.7142 23.5694C62.963 23.8942 63.3292 24.1085 63.7342 24.1664C64.1393 24.2242 64.5509 24.121 64.8807 23.8789L67.9759 21.5574C68.1681 21.4132 68.324 21.2263 68.4315 21.0114C68.5389 20.7965 68.5948 20.5595 68.5948 20.3193C68.5948 20.079 68.5389 19.842 68.4315 19.6271C68.324 19.4122 68.1681 19.2253 67.9759 19.0811L64.8807 16.7597C64.5522 16.5142 64.1398 16.4091 63.734 16.4674C63.3281 16.5257 62.962 16.7427 62.7159 17.0707C62.4699 17.3987 62.3641 17.811 62.4217 18.2169C62.4793 18.6229 62.6956 18.9894 63.0232 19.236L64.4681 20.3193L63.0232 21.4025C62.8606 21.5245 62.7236 21.6773 62.6201 21.8522C62.5166 22.0271 62.4485 22.2207 62.4198 22.4219C62.3911 22.6232 62.4023 22.8281 62.4528 23.025C62.5033 23.2218 62.5921 23.4069 62.7142 23.5694Z" fill="#3A576A"/>
<path d="M47.0754 23.4208L46.1558 24.9744C46.0521 25.1493 45.984 25.3428 45.9552 25.544C45.9264 25.7453 45.9375 25.9502 45.988 26.1471C46.0384 26.344 46.1272 26.529 46.2492 26.6916C46.3713 26.8541 46.5241 26.991 46.6991 27.0945C47.0533 27.2989 47.4735 27.3565 47.8696 27.2551C48.2658 27.1536 48.6065 26.9011 48.8188 26.5515L50.7903 23.222C50.9128 23.0153 50.9854 22.7829 51.0024 22.5432C51.0194 22.3035 50.9804 22.0632 50.8885 21.8412C50.7966 21.6192 50.6542 21.4217 50.4727 21.2643C50.2912 21.1069 50.0755 20.9939 49.8427 20.9342L46.0946 19.9741C45.8977 19.9237 45.6928 19.9126 45.4916 19.9414C45.2904 19.9701 45.0969 20.0383 44.922 20.1418C44.7472 20.2454 44.5944 20.3824 44.4725 20.545C44.3506 20.7076 44.2619 20.8926 44.2115 21.0895C44.161 21.2864 44.1499 21.4913 44.1787 21.6925C44.2074 21.8937 44.2756 22.0872 44.3791 22.2621C44.4827 22.437 44.6197 22.5897 44.7823 22.7116C44.9449 22.8335 45.1299 22.9222 45.3268 22.9727L47.0754 23.4208Z" fill="#B4EDFF"/>
<path d="M30.7005 33.9077L32.4877 33.6523L32.233 35.4398C32.2074 35.6585 32.2277 35.8802 32.2927 36.0906C32.3576 36.301 32.4657 36.4955 32.61 36.6618C32.7544 36.8281 32.9319 36.9624 33.1311 37.0562C33.3303 37.15 33.5469 37.2012 33.767 37.2066C34.1392 37.206 34.4987 37.0713 34.7796 36.8271C35.0605 36.583 35.244 36.2458 35.2965 35.8773L35.8436 32.0472C35.8776 31.8094 35.8557 31.5669 35.7797 31.339C35.7037 31.111 35.5757 30.9039 35.4059 30.734C35.236 30.5642 35.0289 30.4362 34.8009 30.3602C34.573 30.2842 34.3305 30.2623 34.0927 30.2963L30.2622 30.8434C29.8558 30.9015 29.4892 31.1187 29.243 31.4471C28.9968 31.7755 28.8911 32.1883 28.9492 32.5947C29.0073 33.001 29.2245 33.3677 29.5529 33.6139C29.8813 33.8601 30.2942 33.9658 30.7005 33.9077Z" fill="#3A576A"/>
<path d="M21.3719 49.6071L22.9255 48.6875L23.3737 50.4361C23.4817 50.8299 23.7385 51.1663 24.0898 51.3744C24.4411 51.5824 24.8595 51.646 25.2568 51.5515C25.4537 51.5011 25.6388 51.4124 25.8014 51.2905C25.964 51.1686 26.101 51.0159 26.2046 50.841C26.3082 50.6661 26.3763 50.4726 26.4051 50.2713C26.4338 50.0701 26.4226 49.8652 26.3722 49.6684L25.4125 45.9202C25.3529 45.6875 25.24 45.4718 25.0826 45.2903C24.9252 45.1087 24.7277 44.9663 24.5057 44.8744C24.2838 44.7824 24.0434 44.7434 23.8038 44.7605C23.5641 44.7775 23.3318 44.8502 23.125 44.9726L19.7955 46.9442C19.6206 47.0476 19.4678 47.1846 19.3459 47.3471C19.2239 47.5096 19.1351 47.6946 19.0846 47.8915C19.0341 48.0883 19.0229 48.2932 19.0516 48.4944C19.0803 48.6956 19.1484 48.8891 19.2519 49.064C19.3554 49.2389 19.4924 49.3916 19.655 49.5136C19.8175 49.6355 20.0025 49.7243 20.1994 49.7747C20.3963 49.8251 20.6011 49.8363 20.8023 49.8076C21.0035 49.7788 21.197 49.7107 21.3719 49.6071Z" fill="#B4EDFF"/>
<path d="M22.1684 68.2935C22.4535 68.2898 22.7321 68.2078 22.9737 68.0564C23.2153 67.9051 23.4106 67.6902 23.5382 67.4352C23.6659 67.1803 23.7209 66.8952 23.6974 66.6111C23.6738 66.3269 23.5726 66.0548 23.4047 65.8243L21.0833 62.7291C20.9329 62.5464 20.7439 62.3992 20.5299 62.2982C20.3158 62.1972 20.0821 62.1448 19.8455 62.1448C19.6088 62.1448 19.3751 62.1972 19.1611 62.2982C18.9471 62.3992 18.7581 62.5464 18.6077 62.7291L16.2862 65.8243C16.0399 66.1526 15.9341 66.5653 15.9921 66.9716C16.05 67.3779 16.267 67.7445 16.5953 67.9908C16.9236 68.2372 17.3363 68.343 17.7426 68.285C18.1489 68.2271 18.5155 68.0101 18.7618 67.6818L19.8455 66.2373L20.9291 67.6818C21.0746 67.8724 21.2621 68.0267 21.4771 68.1328C21.6921 68.2389 21.9287 68.2939 22.1684 68.2935Z" fill="#3A576A"/>
<path d="M26.8455 81.887L23.516 79.9155C23.3093 79.793 23.0769 79.7204 22.8372 79.7034C22.5976 79.6863 22.3573 79.7253 22.1353 79.8173C21.9133 79.9092 21.7158 80.0516 21.5584 80.2331C21.4011 80.4147 21.2881 80.6303 21.2286 80.8631L20.2681 84.6112C20.2177 84.8081 20.2065 85.013 20.2353 85.2142C20.2641 85.4154 20.3322 85.6089 20.4358 85.7838C20.5393 85.9587 20.6763 86.1114 20.8389 86.2333C21.0016 86.3553 21.1866 86.444 21.3835 86.4944C21.7808 86.5912 22.2003 86.5287 22.5522 86.3202C22.9041 86.1118 23.1605 85.774 23.2666 85.379L23.7147 83.6304L25.2691 84.55C25.6223 84.7589 26.0439 84.819 26.4414 84.7171C26.8388 84.6152 27.1795 84.3596 27.3885 84.0065C27.5975 83.6534 27.6577 83.2318 27.5559 82.8343C27.454 82.4368 27.1985 82.0961 26.8455 81.887Z" fill="#B4EDFF"/>
<path d="M36.1722 95.4089L32.3417 94.8618C32.1039 94.8278 31.8613 94.8496 31.6334 94.9255C31.4054 95.0014 31.1983 95.1294 31.0284 95.2994C30.8584 95.4693 30.7305 95.6764 30.6545 95.9044C30.5786 96.1323 30.5568 96.3749 30.5908 96.6127L31.1379 100.443C31.1905 100.812 31.3741 101.149 31.655 101.393C31.9359 101.637 32.2953 101.771 32.6674 101.772C32.8885 101.77 33.1067 101.72 33.3075 101.628C33.5082 101.535 33.687 101.401 33.832 101.234C33.977 101.067 34.0849 100.871 34.1486 100.659C34.2123 100.447 34.2303 100.224 34.2014 100.005L33.9467 98.2178L35.7339 98.4724C36.1402 98.5306 36.5529 98.4249 36.8812 98.1788C37.2096 97.9326 37.4267 97.5661 37.4848 97.1598C37.5429 96.7536 37.4373 96.3409 37.1911 96.0125C36.945 95.6842 36.5785 95.467 36.1722 95.4089Z" fill="#3A576A"/>
<path d="M49.9635 104.334L46.2154 105.293C45.9826 105.353 45.7669 105.466 45.5854 105.623C45.4039 105.781 45.2615 105.978 45.1696 106.2C45.0776 106.422 45.0386 106.662 45.0557 106.902C45.0727 107.142 45.1453 107.374 45.2678 107.581L47.2386 110.91C47.4506 111.26 47.7913 111.513 48.1875 111.614C48.5838 111.716 49.0041 111.658 49.3582 111.453C49.5332 111.35 49.6861 111.213 49.8081 111.051C49.9301 110.888 50.0189 110.703 50.0694 110.506C50.1198 110.309 50.131 110.105 50.1022 109.903C50.0734 109.702 50.0052 109.509 49.9016 109.334L48.9819 107.78L50.7313 107.332C51.1289 107.23 51.4698 106.975 51.679 106.621C51.8882 106.268 51.9485 105.847 51.8467 105.449C51.7448 105.051 51.4892 104.71 51.1361 104.501C50.7829 104.292 50.3612 104.232 49.9635 104.334Z" fill="#B4EDFF"/>
<path d="M85.6737 107.438L83.925 106.99L84.8447 105.436C84.9483 105.261 85.0164 105.067 85.0451 104.866C85.0738 104.665 85.0627 104.46 85.0122 104.263C84.9618 104.066 84.8731 103.882 84.7511 103.719C84.6292 103.556 84.4764 103.419 84.3015 103.316C84.1267 103.212 83.9331 103.144 83.7319 103.116C83.5307 103.087 83.3259 103.098 83.129 103.149C82.9322 103.199 82.7472 103.288 82.5846 103.41C82.4221 103.532 82.2852 103.685 82.1817 103.86L80.2101 107.189C80.0877 107.396 80.0151 107.628 79.998 107.868C79.981 108.107 80.02 108.348 80.1119 108.57C80.2039 108.792 80.3463 108.989 80.5278 109.147C80.7093 109.304 80.925 109.417 81.1578 109.476L84.9059 110.437C85.3033 110.534 85.7227 110.471 86.0746 110.263C86.4265 110.054 86.6829 109.716 86.789 109.322C86.8908 108.924 86.8305 108.502 86.6214 108.149C86.4122 107.796 86.0713 107.54 85.6737 107.438Z" fill="#B4EDFF"/>
<path d="M100.299 96.5038L98.5122 96.7585L98.7668 94.9713C98.8249 94.5651 98.7193 94.1524 98.4731 93.824C98.227 93.4957 97.8605 93.2786 97.4542 93.2204C97.048 93.1623 96.6353 93.268 96.3069 93.5141C95.9786 93.7603 95.7614 94.1268 95.7033 94.533L95.1562 98.3636C95.1248 98.5831 95.141 98.8067 95.2035 99.0195C95.2661 99.2322 95.3736 99.429 95.5189 99.5965C95.6641 99.764 95.8437 99.8984 96.0454 99.9905C96.2471 100.083 96.4662 100.13 96.688 100.13C96.7605 100.13 100.738 99.5673 100.738 99.5673C100.939 99.5386 101.132 99.4704 101.307 99.3669C101.482 99.2633 101.635 99.1263 101.757 98.9637C101.878 98.8012 101.967 98.6162 102.018 98.4193C102.068 98.2224 102.079 98.0176 102.05 97.8164C102.021 97.6153 101.953 97.4218 101.85 97.2469C101.746 97.0721 101.609 96.9194 101.447 96.7975C101.284 96.6756 101.099 96.587 100.902 96.5366C100.705 96.4862 100.5 96.4751 100.299 96.5038Z" fill="#3A576A"/>
<path d="M109.629 80.804L108.075 81.7237L107.627 79.9743C107.577 79.7774 107.488 79.5924 107.366 79.4298C107.244 79.2672 107.091 79.1302 106.916 79.0266C106.742 78.923 106.548 78.8549 106.347 78.8261C106.146 78.7974 105.941 78.8085 105.744 78.8589C105.547 78.9093 105.362 78.998 105.199 79.1199C105.037 79.2419 104.9 79.3946 104.796 79.5695C104.693 79.7443 104.624 79.9379 104.596 80.1391C104.567 80.3403 104.578 80.5452 104.628 80.7421L105.588 84.4902C105.648 84.7229 105.761 84.9386 105.918 85.1201C106.076 85.3016 106.273 85.444 106.495 85.536C106.717 85.6257 106.957 85.6635 107.197 85.6464C107.436 85.6294 107.668 85.558 107.876 85.4378L111.205 83.467C111.558 83.2579 111.814 82.9171 111.915 82.5197C112.017 82.1222 111.957 81.7006 111.748 81.3475C111.539 80.9944 111.198 80.7388 110.801 80.6369C110.404 80.5349 109.982 80.5951 109.629 80.804Z" fill="#B4EDFF"/>
<path d="M114.405 62.4196C114.077 62.1736 113.664 62.0681 113.258 62.1261C112.852 62.1841 112.485 62.401 112.239 62.7291L111.155 64.1736L110.071 62.7291C109.949 62.5665 109.797 62.4296 109.622 62.3261C109.447 62.2226 109.253 62.1546 109.052 62.1259C108.851 62.0972 108.646 62.1084 108.449 62.1588C108.252 62.2093 108.067 62.2981 107.905 62.42C107.742 62.542 107.605 62.6948 107.502 62.8697C107.398 63.0445 107.33 63.2381 107.302 63.4393C107.273 63.6404 107.284 63.8453 107.335 64.0422C107.385 64.239 107.474 64.424 107.596 64.5865L109.917 67.6818C110.061 67.8739 110.248 68.0299 110.463 68.1373C110.678 68.2448 110.915 68.3007 111.155 68.3007C111.395 68.3007 111.632 68.2448 111.847 68.1373C112.062 68.0299 112.249 67.8739 112.393 67.6818L114.714 64.5865C114.836 64.424 114.925 64.239 114.976 64.0421C115.026 63.8452 115.037 63.6403 115.009 63.4391C114.98 63.2378 114.912 63.0442 114.808 62.8693C114.705 62.6944 114.568 62.5416 114.405 62.4196Z" fill="#3A576A"/>
<path d="M108.272 50.7023C108.613 50.6981 108.944 50.5833 109.214 50.3752C109.484 50.1672 109.68 49.877 109.771 49.5483L110.732 45.8001C110.833 45.4025 110.773 44.9807 110.564 44.6275C110.355 44.2742 110.014 44.0185 109.617 43.9166C109.219 43.8147 108.797 43.8749 108.444 44.084C108.091 44.2931 107.835 44.634 107.733 45.0316L107.285 46.781L105.73 45.8609C105.377 45.6537 104.956 45.5948 104.56 45.6972C104.163 45.7996 103.824 46.055 103.615 46.4075C103.407 46.7599 103.346 47.1806 103.447 47.5774C103.548 47.9743 103.802 48.3149 104.154 48.5247C104.154 48.5247 107.476 50.4911 107.484 50.4959C107.722 50.6368 107.995 50.7083 108.272 50.7023Z" fill="#B4EDFF"/>
<path d="M98.6581 35.549C98.896 35.5814 99.1381 35.5588 99.3658 35.4829C99.5935 35.407 99.8007 35.2798 99.9715 35.1111C100.142 34.9413 100.27 34.7342 100.346 34.5063C100.421 34.2784 100.443 34.0359 100.409 33.7981L99.8619 29.9679C99.8039 29.5617 99.5869 29.1951 99.2586 28.9489C98.9303 28.7027 98.5177 28.5969 98.1114 28.655C97.7052 28.713 97.3386 28.93 97.0924 29.2583C96.8461 29.5866 96.7404 29.9992 96.7984 30.4055L97.0531 32.193L95.2659 31.9376C94.8596 31.8795 94.4468 31.9852 94.1183 32.2314C93.7899 32.4776 93.5727 32.8442 93.5146 33.2506C93.4565 33.6569 93.5622 34.0697 93.8084 34.3982C94.0547 34.7266 94.4213 34.9438 94.8276 35.0019L98.6581 35.549Z" fill="#3A576A"/>
<path d="M80.6525 26.1237C81.2011 26.1299 84.6231 25.1587 84.7852 25.1172C85.018 25.0576 85.2337 24.9446 85.4152 24.7872C85.5968 24.6298 85.7391 24.4322 85.8311 24.2102C85.923 23.9882 85.962 23.7479 85.945 23.5082C85.9279 23.2685 85.8553 23.0361 85.7328 22.8294L83.762 19.5003C83.6585 19.3253 83.5216 19.1724 83.359 19.0503C83.1964 18.9283 83.0113 18.8395 82.8144 18.789C82.6175 18.7385 82.4125 18.7273 82.2113 18.756C82.01 18.7848 81.8164 18.8529 81.6415 18.9565C81.4665 19.0601 81.3137 19.1971 81.1918 19.3598C81.0699 19.5224 80.9812 19.7076 80.9308 19.9045C80.8804 20.1015 80.8693 20.3064 80.8982 20.5077C80.9271 20.7089 80.9953 20.9025 81.099 21.0774L82.0187 22.631L80.2693 23.0791C80.0724 23.1295 79.8873 23.2183 79.7247 23.3402C79.562 23.4621 79.425 23.6149 79.3214 23.7898C79.2179 23.9648 79.1498 24.1583 79.121 24.3596C79.0923 24.5608 79.1035 24.7657 79.1539 24.9626C79.2442 25.2924 79.4392 25.5839 79.7094 25.7933C79.9797 26.0027 80.3106 26.1186 80.6525 26.1237Z" fill="#B4EDFF"/>
<path d="M65.3914 32.7005C66.2461 32.7005 66.939 32.0076 66.939 31.1528C66.939 30.2981 66.2461 29.6052 65.3914 29.6052C64.5366 29.6052 63.8438 30.2981 63.8438 31.1528C63.8438 32.0076 64.5366 32.7005 65.3914 32.7005Z" fill="#3A576A"/>
<path d="M74.4041 33.8472C75.2588 33.8472 75.9517 33.1543 75.9517 32.2996C75.9517 31.4448 75.2588 30.752 74.4041 30.752C73.5493 30.752 72.8564 31.4448 72.8564 32.2996C72.8564 33.1543 73.5493 33.8472 74.4041 33.8472Z" fill="#B4EDFF"/>
<path d="M82.8142 37.303C83.6689 37.303 84.3618 36.6101 84.3618 35.7554C84.3618 34.9007 83.6689 34.2078 82.8142 34.2078C81.9595 34.2078 81.2666 34.9007 81.2666 35.7554C81.2666 36.6101 81.9595 37.303 82.8142 37.303Z" fill="#3A576A"/>
<path d="M90.0359 42.814C90.8906 42.814 91.5835 42.1211 91.5835 41.2664C91.5835 40.4116 90.8906 39.7188 90.0359 39.7188C89.1812 39.7188 88.4883 40.4116 88.4883 41.2664C88.4883 42.1211 89.1812 42.814 90.0359 42.814Z" fill="#B4EDFF"/>
<path d="M95.5974 49.9959C96.4522 49.9959 97.145 49.303 97.145 48.4483C97.145 47.5935 96.4522 46.9006 95.5974 46.9006C94.7427 46.9006 94.0498 47.5935 94.0498 48.4483C94.0498 49.303 94.7427 49.9959 95.5974 49.9959Z" fill="#3A576A"/>
<path d="M99.1062 58.3755C99.9609 58.3755 100.654 57.6826 100.654 56.8279C100.654 55.9732 99.9609 55.2803 99.1062 55.2803C98.2515 55.2803 97.5586 55.9732 97.5586 56.8279C97.5586 57.6826 98.2515 58.3755 99.1062 58.3755Z" fill="#B4EDFF"/>
<path d="M100.321 67.4522C101.176 67.4522 101.869 66.7593 101.869 65.9046C101.869 65.0498 101.176 64.3569 100.321 64.3569C99.4663 64.3569 98.7734 65.0498 98.7734 65.9046C98.7734 66.7593 99.4663 67.4522 100.321 67.4522Z" fill="#3A576A"/>
<path d="M99.1453 76.5291C100 76.5291 100.693 75.8362 100.693 74.9815C100.693 74.1267 100 73.4338 99.1453 73.4338C98.2905 73.4338 97.5977 74.1267 97.5977 74.9815C97.5977 75.8362 98.2905 76.5291 99.1453 76.5291Z" fill="#B4EDFF"/>
<path d="M95.6668 84.9256C96.5215 84.9256 97.2144 84.2327 97.2144 83.3779C97.2144 82.5232 96.5215 81.8303 95.6668 81.8303C94.812 81.8303 94.1191 82.5232 94.1191 83.3779C94.1191 84.2327 94.812 84.9256 95.6668 84.9256Z" fill="#3A576A"/>
<path d="M90.1345 92.1314C90.9893 92.1314 91.6822 91.4385 91.6822 90.5838C91.6822 89.729 90.9893 89.0361 90.1345 89.0361C89.2798 89.0361 88.5869 89.729 88.5869 90.5838C88.5869 91.4385 89.2798 92.1314 90.1345 92.1314Z" fill="#B4EDFF"/>
<path d="M82.9324 97.6702C83.7871 97.6702 84.48 96.9773 84.48 96.1226C84.48 95.2678 83.7871 94.575 82.9324 94.575C82.0777 94.575 81.3848 95.2678 81.3848 96.1226C81.3848 96.9773 82.0777 97.6702 82.9324 97.6702Z" fill="#3A576A"/>
<path d="M74.5418 101.159C75.3965 101.159 76.0894 100.467 76.0894 99.6118C76.0894 98.7571 75.3965 98.0642 74.5418 98.0642C73.687 98.0642 72.9941 98.7571 72.9941 99.6118C72.9941 100.467 73.687 101.159 74.5418 101.159Z" fill="#B4EDFF"/>
<path d="M65.4998 102.343C66.3545 102.343 67.0474 101.65 67.0474 100.796C67.0474 99.9409 66.3545 99.248 65.4998 99.248C64.645 99.248 63.9521 99.9409 63.9521 100.796C63.9521 101.65 64.645 102.343 65.4998 102.343Z" fill="#3A576A"/>
<path d="M56.5242 101.175C57.3789 101.175 58.0718 100.482 58.0718 99.6272C58.0718 98.7725 57.3789 98.0796 56.5242 98.0796C55.6695 98.0796 54.9766 98.7725 54.9766 99.6272C54.9766 100.482 55.6695 101.175 56.5242 101.175Z" fill="#B4EDFF"/>
<path d="M48.1267 97.7058C48.9814 97.7058 49.6743 97.0129 49.6743 96.1582C49.6743 95.3035 48.9814 94.6106 48.1267 94.6106C47.272 94.6106 46.5791 95.3035 46.5791 96.1582C46.5791 97.0129 47.272 97.7058 48.1267 97.7058Z" fill="#3A576A"/>
<path d="M40.9119 92.1817C41.7666 92.1817 42.4595 91.4888 42.4595 90.634C42.4595 89.7793 41.7666 89.0864 40.9119 89.0864C40.0572 89.0864 39.3643 89.7793 39.3643 90.634C39.3643 91.4888 40.0572 92.1817 40.9119 92.1817Z" fill="#B4EDFF"/>
<path d="M35.366 84.9851C36.2207 84.9851 36.9136 84.2922 36.9136 83.4375C36.9136 82.5828 36.2207 81.8899 35.366 81.8899C34.5113 81.8899 33.8184 82.5828 33.8184 83.4375C33.8184 84.2922 34.5113 84.9851 35.366 84.9851Z" fill="#3A576A"/>
<path d="M31.8718 76.5987C32.7266 76.5987 33.4195 75.9058 33.4195 75.051C33.4195 74.1963 32.7266 73.5034 31.8718 73.5034C31.0171 73.5034 30.3242 74.1963 30.3242 75.051C30.3242 75.9058 31.0171 76.5987 31.8718 76.5987Z" fill="#B4EDFF"/>
<path d="M30.6785 67.5218C31.5332 67.5218 32.2261 66.8289 32.2261 65.9741C32.2261 65.1194 31.5332 64.4265 30.6785 64.4265C29.8238 64.4265 29.1309 65.1194 29.1309 65.9741C29.1309 66.8289 29.8238 67.5218 30.6785 67.5218Z" fill="#3A576A"/>
<path d="M31.8357 58.5821C32.6904 58.5821 33.3833 57.8892 33.3833 57.0344C33.3833 56.1797 32.6904 55.4868 31.8357 55.4868C30.981 55.4868 30.2881 56.1797 30.2881 57.0344C30.2881 57.8892 30.981 58.5821 31.8357 58.5821Z" fill="#B4EDFF"/>
<path d="M35.2947 50.1785C36.1494 50.1785 36.8423 49.4856 36.8423 48.6309C36.8423 47.7761 36.1494 47.0833 35.2947 47.0833C34.44 47.0833 33.7471 47.7761 33.7471 48.6309C33.7471 49.4856 34.44 50.1785 35.2947 50.1785Z" fill="#3A576A"/>
<path d="M40.8152 42.9595C41.6699 42.9595 42.3628 42.2666 42.3628 41.4119C42.3628 40.5572 41.6699 39.8643 40.8152 39.8643C39.9605 39.8643 39.2676 40.5572 39.2676 41.4119C39.2676 42.2666 39.9605 42.9595 40.8152 42.9595Z" fill="#B4EDFF"/>
<path d="M48.0056 37.406C48.8604 37.406 49.5532 36.7131 49.5532 35.8584C49.5532 35.0037 48.8604 34.3108 48.0056 34.3108C47.1509 34.3108 46.458 35.0037 46.458 35.8584C46.458 36.7131 47.1509 37.406 48.0056 37.406Z" fill="#3A576A"/>
<path d="M56.3904 33.9053C57.2451 33.9053 57.938 33.2124 57.938 32.3577C57.938 31.503 57.2451 30.8101 56.3904 30.8101C55.5357 30.8101 54.8428 31.503 54.8428 32.3577C54.8428 33.2124 55.5357 33.9053 56.3904 33.9053Z" fill="#B4EDFF"/>
<path d="M94.131 8.71268C94.5901 8.71268 95.039 8.57653 95.4207 8.32145C95.8025 8.06637 96.1 7.70381 96.2757 7.27963C96.4514 6.85544 96.4974 6.38868 96.4078 5.93837C96.3182 5.48805 96.0972 5.07441 95.7725 4.74976C95.4478 4.4251 95.0342 4.204 94.5839 4.11443C94.1336 4.02486 93.6668 4.07083 93.2426 4.24653C92.8184 4.42224 92.4559 4.71978 92.2008 5.10154C91.9457 5.48329 91.8096 5.93212 91.8096 6.39125C91.8103 7.00672 92.0551 7.59677 92.4903 8.03197C92.9255 8.46717 93.5155 8.71198 94.131 8.71268ZM94.131 5.23054C94.3606 5.23054 94.585 5.29861 94.7759 5.42616C94.9667 5.5537 95.1155 5.73497 95.2034 5.94707C95.2912 6.15916 95.3142 6.39254 95.2694 6.6177C95.2246 6.84285 95.1141 7.04967 94.9517 7.212C94.7894 7.37433 94.5826 7.48488 94.3574 7.52966C94.1323 7.57445 93.8989 7.55147 93.6868 7.46361C93.4747 7.37576 93.2934 7.22699 93.1659 7.03611C93.0384 6.84523 92.9703 6.62082 92.9703 6.39125C92.9706 6.08351 93.093 5.78845 93.3106 5.57084C93.5282 5.35323 93.8233 5.23084 94.131 5.23054Z" fill="#3A576A"/>
<path d="M25.2546 22.6348C24.9486 22.6348 24.6493 22.7255 24.3948 22.8956C24.1403 23.0656 23.942 23.3073 23.8248 23.5901C23.7077 23.8729 23.6771 24.1841 23.7368 24.4843C23.7965 24.7845 23.9439 25.0603 24.1603 25.2767C24.3768 25.4932 24.6525 25.6406 24.9527 25.7003C25.2529 25.76 25.5641 25.7293 25.8469 25.6122C26.1297 25.4951 26.3714 25.2967 26.5414 25.0422C26.7115 24.7877 26.8023 24.4885 26.8023 24.1824C26.8018 23.7721 26.6386 23.3787 26.3485 23.0886C26.0583 22.7984 25.665 22.6352 25.2546 22.6348ZM25.2546 24.9562C25.1016 24.9562 24.952 24.9108 24.8247 24.8258C24.6975 24.7408 24.5983 24.6199 24.5397 24.4785C24.4812 24.3371 24.4659 24.1815 24.4957 24.0314C24.5256 23.8813 24.5993 23.7434 24.7075 23.6352C24.8157 23.527 24.9536 23.4533 25.1037 23.4234C25.2538 23.3936 25.4094 23.4089 25.5508 23.4675C25.6922 23.526 25.813 23.6252 25.8981 23.7525C25.9831 23.8797 26.0285 24.0293 26.0285 24.1824C26.0283 24.3875 25.9467 24.5843 25.8016 24.7293C25.6565 24.8744 25.4598 24.956 25.2546 24.9562Z" fill="#3A576A"/>
<path d="M35.8601 2.89453C35.554 2.89453 35.2548 2.9853 35.0003 3.15535C34.7458 3.32541 34.5474 3.56711 34.4303 3.8499C34.3132 4.13269 34.2825 4.44387 34.3422 4.74408C34.402 5.04428 34.5493 5.32004 34.7658 5.53648C34.9822 5.75292 35.258 5.90032 35.5582 5.96003C35.8584 6.01975 36.1696 5.9891 36.4524 5.87196C36.7352 5.75483 36.9769 5.55647 37.1469 5.30196C37.317 5.04746 37.4077 4.74824 37.4077 4.44215C37.4073 4.03184 37.2441 3.63847 36.9539 3.34834C36.6638 3.0582 36.2704 2.895 35.8601 2.89453ZM35.8601 5.21596C35.7071 5.21596 35.5575 5.17058 35.4302 5.08555C35.303 5.00052 35.2038 4.87967 35.1452 4.73827C35.0866 4.59688 35.0713 4.44129 35.1012 4.29119C35.131 4.14108 35.2047 4.0032 35.313 3.89498C35.4212 3.78676 35.5591 3.71307 35.7092 3.68321C35.8593 3.65335 36.0148 3.66868 36.1562 3.72724C36.2976 3.78581 36.4185 3.88499 36.5035 4.01224C36.5885 4.1395 36.6339 4.28911 36.6339 4.44215C36.6337 4.64731 36.5521 4.84402 36.4071 4.98909C36.262 5.13416 36.0653 5.21575 35.8601 5.21596Z" fill="#3A576A"/>
<path d="M125.857 37.0535C125.551 37.0535 125.252 37.1442 124.997 37.3143C124.743 37.4843 124.545 37.726 124.427 38.0088C124.31 38.2916 124.28 38.6028 124.339 38.903C124.399 39.2032 124.546 39.479 124.763 39.6954C124.979 39.9119 125.255 40.0593 125.555 40.119C125.855 40.1787 126.167 40.148 126.449 40.0309C126.732 39.9138 126.974 39.7154 127.144 39.4609C127.314 39.2064 127.405 38.9072 127.405 38.6011C127.404 38.1908 127.241 37.7974 126.951 37.5073C126.661 37.2171 126.267 37.0539 125.857 37.0535ZM125.857 39.3749C125.704 39.3749 125.555 39.3295 125.427 39.2445C125.3 39.1595 125.201 39.0386 125.142 38.8972C125.084 38.7558 125.068 38.6002 125.098 38.4501C125.128 38.3 125.202 38.1621 125.31 38.0539C125.418 37.9457 125.556 37.872 125.706 37.8421C125.856 37.8123 126.012 37.8276 126.153 37.8862C126.295 37.9447 126.416 38.0439 126.501 38.1712C126.586 38.2984 126.631 38.448 126.631 38.6011C126.631 38.8063 126.549 39.003 126.404 39.148C126.259 39.2931 126.062 39.3747 125.857 39.3749Z" fill="#3A576A"/>
<path d="M9.01223 12.5818C9.01223 12.2757 8.92146 11.9765 8.75141 11.722C8.58136 11.4675 8.33965 11.2691 8.05686 11.152C7.77407 11.0349 7.4629 11.0042 7.16269 11.0639C6.86248 11.1236 6.58672 11.271 6.37028 11.4875C6.15384 11.7039 6.00645 11.9797 5.94673 12.2799C5.88701 12.5801 5.91766 12.8913 6.0348 13.174C6.15193 13.4568 6.3503 13.6985 6.6048 13.8686C6.85931 14.0387 7.15852 14.1294 7.46461 14.1294C7.87492 14.1289 8.26829 13.9657 8.55843 13.6756C8.84856 13.3855 9.01176 12.9921 9.01223 12.5818ZM6.6908 12.5818C6.6908 12.4288 6.73619 12.2791 6.82121 12.1519C6.90624 12.0246 7.02709 11.9255 7.16849 11.8669C7.30988 11.8083 7.46547 11.793 7.61557 11.8229C7.76568 11.8527 7.90356 11.9264 8.01178 12.0346C8.12 12.1429 8.1937 12.2807 8.22355 12.4308C8.25341 12.5809 8.23809 12.7365 8.17952 12.8779C8.12095 13.0193 8.02177 13.1402 7.89452 13.2252C7.76727 13.3102 7.61766 13.3556 7.46461 13.3556C7.25945 13.3554 7.06275 13.2738 6.91767 13.1287C6.7726 12.9837 6.69101 12.787 6.6908 12.5818Z" fill="#3A576A"/>
<path d="M67.26 8.09951L68.4107 6.58672L67.6841 6.17505L66.9459 7.86969H66.9211L66.1713 6.18666L65.4315 6.6107L66.5698 8.08791V8.11189L64.79 7.88207V8.70463L66.5822 8.47481V8.49957L65.4315 9.976L66.1218 10.4124L66.9095 8.70463H66.9327L67.6593 10.4L68.4223 9.96439L67.26 8.51118V8.48719L69.0878 8.70463V7.88207L67.26 8.1235V8.09951Z" fill="#B4EDFF"/>
<path d="M8.03246 41.5303L7.37008 42.3808L7.76782 42.6322L8.22127 41.6487H8.2352L8.65306 42.6253L9.09258 42.3746L8.42324 41.5373V41.5234L9.47562 41.6487V41.1752L8.42324 41.3144V41.3005L9.08562 40.4292L8.66776 40.1917L8.24217 41.1682H8.22824L7.79645 40.1986L7.37008 40.4431L8.02627 41.2936V41.3075L7.00098 41.1752V41.6487L8.03246 41.5164V41.5303Z" fill="#B4EDFF"/>
<path d="M106.686 25.5148V24.707L104.894 24.9445V24.9213L106.022 23.4364L105.31 23.0332L104.586 24.6953H104.562L103.826 23.0448L103.101 23.4603L104.217 24.9097V24.9329L102.471 24.707V25.5148L104.229 25.2896V25.3128L103.101 26.7614L103.777 27.1893L104.55 25.5148H104.573L105.286 27.1777L106.034 26.7498L104.894 25.3245V25.3012L106.686 25.5148Z" fill="#B4EDFF"/>
<path d="M122.331 6.07048L123.305 4.7906L122.69 4.44238L122.065 5.87625H122.044L121.41 4.45244L120.784 4.81072L121.748 6.06042V6.08131L120.241 5.88631V6.58274L121.758 6.38851V6.40863L120.784 7.65834L121.368 8.02744L122.035 6.58274H122.054L122.669 8.01738L123.315 7.64828L122.331 6.41869V6.39857L123.878 6.58274V5.88631L122.331 6.09137V6.07048Z" fill="#B4EDFF"/>
<path d="M2.04762 116.272C2.90235 116.272 3.59524 115.579 3.59524 114.724C3.59524 113.869 2.90235 113.177 2.04762 113.177C1.19289 113.177 0.5 113.869 0.5 114.724C0.5 115.579 1.19289 116.272 2.04762 116.272Z" fill="#3A576A"/>
<path d="M9.01163 113.177H6.6902C6.27974 113.177 5.8861 113.34 5.59587 113.63C5.30563 113.921 5.14258 114.314 5.14258 114.725C5.14258 115.135 5.30563 115.529 5.59587 115.819C5.8861 116.109 6.27974 116.272 6.6902 116.272H9.01163C9.42208 116.272 9.81572 116.109 10.106 115.819C10.3962 115.529 10.5592 115.135 10.5592 114.725C10.5592 114.314 10.3962 113.921 10.106 113.63C9.81572 113.34 9.42208 113.177 9.01163 113.177Z" fill="#3A576A"/>
<path d="M124.309 113.177H121.988C121.578 113.177 121.184 113.34 120.894 113.63C120.603 113.921 120.44 114.314 120.44 114.725C120.44 115.135 120.603 115.529 120.894 115.819C121.184 116.109 121.578 116.272 121.988 116.272H124.309C124.72 116.272 125.114 116.109 125.404 115.819C125.694 115.529 125.857 115.135 125.857 114.725C125.857 114.314 125.694 113.921 125.404 113.63C125.114 113.34 124.72 113.177 124.309 113.177Z" fill="#3A576A"/>
<path d="M128.952 116.272C129.807 116.272 130.5 115.579 130.5 114.724C130.5 113.869 129.807 113.177 128.952 113.177C128.097 113.177 127.404 113.869 127.404 114.724C127.404 115.579 128.097 116.272 128.952 116.272Z" fill="#3A576A"/>
<path d="M91.9285 119.367H85.4999C85.1108 119.399 84.7478 119.575 84.483 119.862C84.2183 120.149 84.0713 120.525 84.0713 120.915C84.0713 121.305 84.2183 121.681 84.483 121.968C84.7478 122.255 85.1108 122.431 85.4999 122.463H91.9285C92.3175 122.431 92.6806 122.255 92.9453 121.968C93.21 121.681 93.3571 121.305 93.3571 120.915C93.3571 120.525 93.21 120.149 92.9453 119.862C92.6806 119.575 92.3175 119.399 91.9285 119.367Z" fill="#B4EDFF"/>
<path d="M45.4998 119.367H39.0712C38.6821 119.399 38.3191 119.575 38.0543 119.862C37.7896 120.149 37.6426 120.525 37.6426 120.915C37.6426 121.305 37.7896 121.681 38.0543 121.968C38.3191 122.255 38.6821 122.431 39.0712 122.463H45.4998C45.8888 122.431 46.2519 122.255 46.5166 121.968C46.7813 121.681 46.9283 121.305 46.9283 120.915C46.9283 120.525 46.7813 120.149 46.5166 119.862C46.2519 119.575 45.8888 119.399 45.4998 119.367Z" fill="#B4EDFF"/>
<path d="M80.9766 119.367H50.0242C49.6137 119.367 49.2201 119.53 48.9298 119.821C48.6396 120.111 48.4766 120.505 48.4766 120.915C48.4766 121.326 48.6396 121.719 48.9298 122.009C49.2201 122.3 49.6137 122.463 50.0242 122.463H62.3587V124.01H56.2147C55.8042 124.01 55.4106 124.173 55.1203 124.464C54.8301 124.754 54.667 125.147 54.667 125.558C54.667 125.968 54.8301 126.362 55.1203 126.652C55.4106 126.942 55.8042 127.106 56.2147 127.106H75.5599C75.9703 127.106 76.364 126.942 76.6542 126.652C76.9445 126.362 77.1075 125.968 77.1075 125.558C77.1075 125.147 76.9445 124.754 76.6542 124.464C76.364 124.173 75.9703 124.01 75.5599 124.01H68.642V122.463H80.9766C81.387 122.463 81.7807 122.3 82.0709 122.009C82.3611 121.719 82.5242 121.326 82.5242 120.915C82.5242 120.505 82.3611 120.111 82.0709 119.821C81.7807 119.53 81.387 119.367 80.9766 119.367Z" fill="#B4EDFF"/>
<path d="M117.13 113.177H68.382C68.2784 113 68.1405 112.846 67.9763 112.723L66.5315 111.639L67.9763 110.556C68.3046 110.309 68.5216 109.943 68.5796 109.536C68.6375 109.13 68.5317 108.717 68.2854 108.389C68.0391 108.061 67.6725 107.844 67.2662 107.786C66.8599 107.728 66.4472 107.834 66.1189 108.08L63.0237 110.401C62.8315 110.545 62.6755 110.732 62.5681 110.947C62.4607 111.162 62.4048 111.399 62.4048 111.639C62.4048 111.879 62.4607 112.116 62.5681 112.331C62.6755 112.546 62.8315 112.733 63.0237 112.877C63.0237 112.877 63.1832 112.997 63.4234 113.177H13.8704C13.6502 113.148 13.4265 113.167 13.214 113.231C13.0016 113.296 12.8054 113.405 12.6385 113.551C12.4717 113.698 12.338 113.878 12.2464 114.081C12.1548 114.283 12.1074 114.502 12.1074 114.724C12.1074 114.946 12.1548 115.166 12.2464 115.368C12.338 115.571 12.4717 115.751 12.6385 115.897C12.8054 116.044 13.0016 116.153 13.214 116.218C13.4265 116.282 13.6502 116.301 13.8704 116.272H117.13C117.35 116.301 117.574 116.282 117.786 116.218C117.998 116.153 118.195 116.044 118.361 115.897C118.528 115.751 118.662 115.571 118.754 115.368C118.845 115.166 118.893 114.946 118.893 114.724C118.893 114.502 118.845 114.283 118.754 114.081C118.662 113.878 118.528 113.698 118.361 113.551C118.195 113.405 117.998 113.296 117.786 113.231C117.574 113.167 117.35 113.148 117.13 113.177Z" fill="#3A576A"/>
</g>
<defs>
<clipPath id="clip0_2067_2202">
<rect width="130" height="130" fill="white" transform="translate(0.5)"/>
</clipPath>
</defs>
</svg>
