<svg width="131" height="130" viewBox="0 0 131 130" fill="none" xmlns="http://www.w3.org/2000/svg">
<g clip-path="url(#clip0_48_9590)">
<path d="M45.3165 50.3354C44.9474 50.3409 44.5936 50.4838 44.324 50.7361C44.0545 50.9884 43.8886 51.332 43.8586 51.6999C43.7356 57.2045 44.4008 62.6984 45.8338 68.0145C48.9616 79.5242 55.8372 87.4478 64.9971 90.9299C65.2857 91.0388 65.6009 91.0557 65.8995 90.9783C66.1192 90.9212 70.9701 89.5111 76.2588 83.9909C81.0555 78.9831 86.8415 69.4586 87.1663 52.5221C87.1711 52.1672 87.046 51.8227 86.8146 51.5536C86.5832 51.2844 86.2614 51.1091 85.9098 51.0606C85.7806 51.0417 72.9164 49.1231 66.6174 41.999C66.4804 41.8492 66.3145 41.7288 66.1296 41.6451C65.9447 41.5614 65.7447 41.5162 65.5418 41.512C65.3389 41.5079 65.1373 41.545 64.9491 41.6211C64.761 41.6972 64.5903 41.8108 64.4473 41.9548C64.3666 42.0387 56.2567 50.3392 46.173 50.3392C45.8859 50.3392 45.5973 50.3163 45.3165 50.3354ZM65.4584 45.254C71.3392 50.8835 80.4978 53.1657 84.0311 53.8685C83.4494 68.9235 78.3072 77.3777 74.0237 81.8496C71.664 84.4261 68.7771 86.4642 65.5594 87.8252C57.4815 84.5407 51.5486 77.2408 48.8207 67.2027C47.6276 62.7039 46.9936 58.0751 46.9332 53.4212C55.6604 53.1185 62.7156 47.6915 65.4584 45.254Z" fill="#5A859D"/>
<path d="M64.2622 29.729C64.4064 29.9211 64.5932 30.0771 64.8081 30.1845C65.0229 30.2919 65.2598 30.3479 65.5 30.3479C65.7402 30.3479 65.9771 30.2919 66.192 30.1845C66.4068 30.0771 66.5937 29.9211 66.7378 29.729L69.0593 26.6337C69.2734 26.3486 69.3825 25.9981 69.368 25.6418C69.3535 25.2854 69.2163 24.945 68.9797 24.6782C68.743 24.4114 68.4215 24.2345 68.0694 24.1775C67.7173 24.1205 67.3564 24.1869 67.0477 24.3654V20.2883C67.0477 19.8779 66.8846 19.4842 66.5944 19.194C66.3041 18.9038 65.9105 18.7407 65.5 18.7407C65.0896 18.7407 64.6959 18.9038 64.4057 19.194C64.1155 19.4842 63.9524 19.8779 63.9524 20.2883V24.3651C63.6436 24.1867 63.2827 24.1203 62.9306 24.1774C62.5786 24.2344 62.2571 24.4113 62.0204 24.6782C61.7838 24.945 61.6467 25.2854 61.6321 25.6418C61.6176 25.9981 61.7267 26.3485 61.9408 26.6337L64.2622 29.729Z" fill="#5A859D"/>
<path d="M111.477 64.7169H107.4C107.578 64.4081 107.645 64.0472 107.587 63.6952C107.53 63.3432 107.353 63.0218 107.086 62.7852C106.82 62.5486 106.479 62.4114 106.123 62.3968C105.767 62.3822 105.416 62.491 105.131 62.7049L102.036 65.0264C101.844 65.1706 101.688 65.3575 101.58 65.5724C101.473 65.7873 101.417 66.0243 101.417 66.2645C101.417 66.5048 101.473 66.7417 101.58 66.9567C101.688 67.1716 101.844 67.3585 102.036 67.5027L105.131 69.8241C105.416 70.038 105.767 70.1469 106.123 70.1323C106.479 70.1176 106.82 69.9804 107.086 69.7439C107.353 69.5073 107.53 69.1858 107.587 68.8339C107.645 68.4819 107.578 68.121 107.4 67.8122H111.477C111.887 67.8122 112.281 67.6491 112.571 67.3589C112.861 67.0686 113.024 66.675 113.024 66.2645C113.024 65.8541 112.861 65.4604 112.571 65.1702C112.281 64.88 111.887 64.7169 111.477 64.7169Z" fill="#5A859D"/>
<path d="M28.9648 65.0264L25.8696 62.7049C25.5843 62.491 25.2339 62.3822 24.8776 62.3968C24.5213 62.4114 24.181 62.5486 23.9142 62.7852C23.6474 63.0218 23.4705 63.3432 23.4133 63.6952C23.3562 64.0472 23.4223 64.4081 23.6006 64.7169H19.5242C19.1137 64.7169 18.7201 64.88 18.4298 65.1702C18.1396 65.4604 17.9766 65.8541 17.9766 66.2645C17.9766 66.675 18.1396 67.0686 18.4298 67.3589C18.7201 67.6491 19.1137 67.8122 19.5242 67.8122H23.6006C23.4223 68.121 23.3562 68.4819 23.4133 68.8339C23.4705 69.1859 23.6474 69.5073 23.9142 69.7439C24.181 69.9805 24.5213 70.1177 24.8776 70.1323C25.2339 70.1469 25.5843 70.0381 25.8696 69.8241L28.9648 67.5027C29.157 67.3585 29.3129 67.1716 29.4204 66.9567C29.5278 66.7417 29.5837 66.5048 29.5837 66.2645C29.5837 66.0243 29.5278 65.7873 29.4204 65.5724C29.3129 65.3575 29.157 65.1706 28.9648 65.0264Z" fill="#5A859D"/>
<path d="M99.6354 98.2117C99.9798 98.1195 100.282 97.9112 100.49 97.6221C100.699 97.3329 100.801 96.9806 100.78 96.6246C100.759 96.2687 100.615 95.9311 100.374 95.6688C100.132 95.4065 99.8076 95.2357 99.4546 95.1852L95.6248 94.6381C95.387 94.6041 95.1445 94.626 94.9166 94.702C94.6887 94.778 94.4816 94.906 94.3117 95.0758C94.1418 95.2457 94.0138 95.4528 93.9378 95.6808C93.8618 95.9087 93.84 96.1512 93.8739 96.389L94.421 100.219C94.4736 100.588 94.6572 100.925 94.9381 101.169C95.219 101.413 95.5784 101.548 95.9505 101.548C96.0246 101.548 96.0986 101.543 96.1719 101.532C96.472 101.489 96.7529 101.359 96.9796 101.158C97.2063 100.957 97.369 100.693 97.4473 100.401L100.33 103.283C100.621 103.572 101.014 103.734 101.424 103.734C101.833 103.733 102.226 103.57 102.516 103.28C102.806 102.991 102.969 102.598 102.969 102.188C102.97 101.779 102.808 101.385 102.519 101.095L99.6354 98.2117Z" fill="#B4EDFF"/>
<path d="M31.3641 34.317C31.0198 34.4095 30.7179 34.6179 30.5095 34.9072C30.3011 35.1965 30.1989 35.5488 30.2203 35.9047C30.2416 36.2606 30.3852 36.5982 30.6266 36.8604C30.8681 37.1227 31.1927 37.2936 31.5457 37.3442L35.3754 37.8913C35.448 37.9015 35.5212 37.9067 35.5945 37.9068C35.8162 37.9068 36.0354 37.8591 36.237 37.767C36.4387 37.675 36.6182 37.5406 36.7635 37.3732C36.9087 37.2057 37.0163 37.0089 37.0789 36.7962C37.1415 36.5835 37.1577 36.3599 37.1263 36.1404L36.5792 32.3103C36.5289 31.9573 36.3582 31.6324 36.096 31.3908C35.8338 31.1491 35.4961 31.0055 35.1401 30.9841C34.7842 30.9628 34.4318 31.0651 34.1425 31.2737C33.8533 31.4823 33.645 31.7844 33.5529 32.1289L30.6699 29.2461C30.3795 28.9568 29.9862 28.7945 29.5763 28.7949C29.1664 28.7953 28.7734 28.9583 28.4835 29.2482C28.1937 29.538 28.0307 29.931 28.0303 30.3409C28.0299 30.7508 28.1921 31.1441 28.4814 31.4345L31.3641 34.317Z" fill="#B4EDFF"/>
<path d="M35.3749 94.6381L31.5452 95.1852C31.1923 95.2358 30.8676 95.4067 30.6262 95.669C30.3847 95.9313 30.2412 96.2689 30.2198 96.6248C30.1985 96.9807 30.3006 97.333 30.5091 97.6223C30.7175 97.9116 31.0193 98.12 31.3637 98.2124L28.4809 101.095C28.3372 101.239 28.2231 101.409 28.1453 101.597C28.0674 101.785 28.0274 101.986 28.0273 102.189C28.0273 102.393 28.0673 102.594 28.1451 102.782C28.2229 102.969 28.3369 103.14 28.4806 103.284C28.6243 103.427 28.7949 103.541 28.9827 103.619C29.1705 103.697 29.3718 103.737 29.575 103.737C29.7783 103.737 29.9796 103.697 30.1673 103.619C30.3551 103.541 30.5257 103.427 30.6694 103.283L33.5524 100.401C33.6308 100.693 33.7934 100.957 34.0202 101.158C34.2469 101.359 34.5277 101.489 34.8278 101.532C34.9012 101.543 34.9752 101.548 35.0492 101.548C35.4214 101.548 35.7809 101.413 36.0618 101.169C36.3427 100.925 36.5263 100.588 36.5788 100.219L37.1258 96.389C37.1598 96.1512 37.1379 95.9087 37.062 95.6808C36.986 95.4528 36.858 95.2457 36.6881 95.0758C36.5182 94.906 36.3111 94.778 36.0832 94.702C35.8553 94.626 35.6128 94.6041 35.3749 94.6381Z" fill="#B4EDFF"/>
<path d="M100.33 29.2462L97.4473 32.129C97.3552 31.7845 97.147 31.4824 96.8577 31.2738C96.5685 31.0652 96.2161 30.9629 95.8601 30.9842C95.5042 31.0056 95.1665 31.1492 94.9042 31.3909C94.642 31.6325 94.4713 31.9574 94.421 32.3104L93.874 36.1406C93.8426 36.36 93.8588 36.5837 93.9214 36.7964C93.9839 37.009 94.0915 37.2058 94.2368 37.3733C94.382 37.5408 94.5615 37.6751 94.7632 37.7672C94.9649 37.8593 95.184 37.9069 95.4057 37.9069C95.479 37.9068 95.5523 37.9017 95.6249 37.8915L99.4546 37.3444C99.8076 37.2939 100.132 37.1231 100.374 36.8608C100.615 36.5985 100.759 36.2608 100.78 35.9049C100.801 35.549 100.699 35.1967 100.49 34.9075C100.282 34.6183 99.9798 34.4101 99.6353 34.318L102.519 31.4346C102.808 31.1442 102.97 30.751 102.969 30.3413C102.969 29.9316 102.806 29.5388 102.516 29.2491C102.226 28.9594 101.833 28.7964 101.424 28.7959C101.014 28.7954 100.621 28.9573 100.33 29.2462Z" fill="#B4EDFF"/>
<path d="M31.661 58.0077C31.565 58.4059 31.6309 58.8259 31.8442 59.1756C32.0576 59.5253 32.401 59.776 32.7991 59.8727C32.9204 59.9034 33.045 59.919 33.1701 59.9192C33.4611 59.9189 33.7462 59.8366 33.9926 59.6819C34.2391 59.5272 34.4371 59.3062 34.5638 59.0443C34.6906 58.7823 34.7411 58.49 34.7095 58.2007C34.6779 57.9114 34.5655 57.6369 34.3852 57.4084C34.2048 57.18 33.9639 57.007 33.6898 56.9091C33.4157 56.8113 33.1197 56.7925 32.8355 56.855C32.5512 56.9176 32.2904 57.0588 32.0827 57.2627C31.875 57.4665 31.7289 57.7247 31.661 58.0077Z" fill="#B4EDFF"/>
<path d="M88.4665 43.7387C88.8282 43.7409 89.1793 43.617 89.4595 43.3884C89.7398 43.1597 89.9316 42.8406 90.0019 42.4858C90.0723 42.131 90.0169 41.7628 89.8452 41.4445C89.6735 41.1262 89.3962 40.8777 89.0611 40.7416C88.726 40.6056 88.3539 40.5906 88.0089 40.6992C87.6639 40.8078 87.3676 41.0333 87.1708 41.3367C86.974 41.6402 86.8891 42.0027 86.9307 42.362C86.9723 42.7213 87.1378 43.0548 87.3987 43.3053C87.6853 43.5822 88.068 43.7375 88.4665 43.7387Z" fill="#5A859D"/>
<path d="M33.4256 52.684C33.3062 52.9656 33.2731 53.2763 33.3303 53.5767C33.3875 53.8771 33.5325 54.1538 33.747 54.3718C33.9615 54.5899 34.2358 54.7394 34.5352 54.8015C34.8347 54.8636 35.1458 54.8356 35.4293 54.7209C35.7128 54.6062 35.9559 54.41 36.1279 54.1571C36.2999 53.9042 36.3931 53.606 36.3956 53.3002C36.3982 52.9944 36.31 52.6947 36.1422 52.439C35.9744 52.1833 35.7346 51.9831 35.453 51.8637C35.2661 51.7841 35.0653 51.7422 34.8621 51.7403C34.6589 51.7384 34.4573 51.7767 34.269 51.8529C34.0806 51.9291 33.9091 52.0418 33.7644 52.1844C33.6197 52.327 33.5045 52.4968 33.4256 52.684Z" fill="#5A859D"/>
<path d="M83.4368 40.0866C83.6927 40.2671 83.998 40.3643 84.3111 40.3651C84.5623 40.3635 84.8095 40.3015 85.0318 40.1843C85.2541 40.0671 85.4449 39.8982 85.5882 39.6918C85.7628 39.4396 85.8587 39.1413 85.8637 38.8346C85.8687 38.5279 85.7826 38.2266 85.6162 37.9689C85.4498 37.7112 85.2107 37.5087 84.9292 37.387C84.6476 37.2653 84.3363 37.2299 84.0346 37.2852C83.7329 37.3406 83.4544 37.4843 83.2344 37.698C83.0144 37.9118 82.8628 38.186 82.7988 38.486C82.7348 38.786 82.7612 39.0982 82.8748 39.3832C82.9884 39.6681 83.1839 39.9129 83.4368 40.0866Z" fill="#B4EDFF"/>
<path d="M36.5056 49.8524C36.7528 50.0098 37.04 50.093 37.3331 50.0919C37.7058 50.0918 38.0658 49.9572 38.3472 49.7128C38.6285 49.4685 38.8122 49.1308 38.8645 48.7618C38.9168 48.3928 38.8341 48.0174 38.6317 47.7045C38.4293 47.3916 38.1208 47.1622 37.7628 47.0586C37.4049 46.955 37.0215 46.984 36.6833 47.1404C36.345 47.2968 36.0746 47.57 35.9217 47.9098C35.7687 48.2497 35.7436 48.6333 35.8509 48.9902C35.9582 49.347 36.1907 49.6532 36.5056 49.8524Z" fill="#B4EDFF"/>
<path d="M32.3343 70.5517H32.4658C32.889 70.5345 33.2885 70.3521 33.5787 70.0436C33.8689 69.7352 34.0266 69.3253 34.018 68.9018C34.0094 68.4784 33.8352 68.0752 33.5327 67.7788C33.2302 67.4824 32.8236 67.3164 32.4001 67.3164C31.9765 67.3164 31.5699 67.4824 31.2674 67.7788C30.9649 68.0752 30.7907 68.4784 30.7821 68.9018C30.7735 69.3253 30.9312 69.7352 31.2214 70.0436C31.5116 70.3521 31.9111 70.5345 32.3343 70.5517Z" fill="#5A859D"/>
<path d="M53.6139 36.728C53.9444 36.7282 54.2662 36.6226 54.5324 36.4268C54.7986 36.231 54.9952 35.9552 55.0935 35.6397C55.1918 35.3243 55.1866 34.9856 55.0787 34.6733C54.9709 34.3609 54.7659 34.0913 54.4939 33.9037C54.2219 33.7161 53.897 33.6204 53.5667 33.6306C53.2364 33.6408 52.918 33.7564 52.6581 33.9604C52.3981 34.1644 52.2103 34.4462 52.1219 34.7646C52.0335 35.083 52.0492 35.4214 52.1668 35.7302C52.2775 36.0242 52.4755 36.2773 52.7341 36.4557C52.9928 36.634 53.2998 36.7291 53.6139 36.728Z" fill="#B4EDFF"/>
<path d="M30.7866 63.5411L30.7868 63.5403L30.7866 63.5332V63.5411Z" fill="#B4EDFF"/>
<path d="M30.7867 63.5401C30.77 63.742 30.7935 63.9452 30.8558 64.138C30.9181 64.3308 31.0179 64.5094 31.1496 64.6634C31.2812 64.8174 31.4421 64.9438 31.6228 65.0353C31.8036 65.1268 32.0006 65.1816 32.2027 65.1966C32.2437 65.2029 32.2852 65.2056 32.3266 65.2045C32.7154 65.2046 33.0899 65.0581 33.3754 64.7942C33.6608 64.5303 33.8363 64.1684 33.8667 63.7808V63.7729C33.8829 63.5702 33.8589 63.3662 33.7961 63.1728C33.7332 62.9794 33.6328 62.8003 33.5006 62.6458C33.3684 62.4912 33.2069 62.3643 33.0255 62.2724C32.8442 62.1804 32.6464 62.1252 32.4436 62.1099C32.2408 62.0945 32.037 62.1194 31.8438 62.1831C31.6507 62.2467 31.472 62.3479 31.318 62.4808C31.1641 62.6137 31.0379 62.7757 30.9467 62.9575C30.8555 63.1392 30.8011 63.3372 30.7867 63.5401Z" fill="#B4EDFF"/>
<path d="M58.7445 35.2267C58.8508 35.2237 58.9569 35.2134 59.0618 35.1958C59.4631 35.11 59.8142 34.8692 60.0388 34.5258C60.2634 34.1824 60.3433 33.7642 60.2611 33.3621C60.2014 33.0756 60.0617 32.8118 59.8581 32.6014C59.6546 32.3909 59.3956 32.2425 59.1112 32.1733C58.8267 32.1041 58.5285 32.1169 58.251 32.2103C57.9736 32.3036 57.7283 32.4737 57.5435 32.7008C57.3588 32.9279 57.2422 33.2028 57.2073 33.4934C57.1724 33.7841 57.2206 34.0787 57.3463 34.343C57.472 34.6074 57.6701 34.8308 57.9175 34.9872C58.165 35.1436 58.4517 35.2266 58.7445 35.2267Z" fill="#5A859D"/>
<path d="M79.0105 37.5485C79.2157 37.6466 79.4405 37.6968 79.6679 37.6954C80.049 37.6957 80.4169 37.5552 80.7009 37.3011C80.9849 37.0469 81.1651 36.6969 81.207 36.3181C81.249 35.9392 81.1497 35.5583 80.9281 35.2481C80.7066 34.938 80.3784 34.7205 80.0064 34.6374C79.6345 34.5542 79.2449 34.6112 78.9124 34.7975C78.5799 34.9838 78.3278 35.2862 78.2044 35.6468C78.081 36.0074 78.0951 36.4008 78.2438 36.7518C78.3926 37.1027 78.6655 37.3864 79.0105 37.5485Z" fill="#B4EDFF"/>
<path d="M63.9909 31.4742C63.5866 31.4923 63.2055 31.668 62.9291 31.9636C62.6527 32.2592 62.503 32.6512 62.5121 33.0558C62.5212 33.4604 62.6883 33.8454 62.9777 34.1283C63.2671 34.4112 63.6557 34.5695 64.0604 34.5695H64.1224C64.326 34.5613 64.5259 34.5131 64.7109 34.4276C64.8958 34.342 65.062 34.2208 65.2 34.0709C65.338 33.9211 65.4451 33.7454 65.5152 33.5541C65.5852 33.3628 65.6168 33.1595 65.6081 32.9559C65.5995 32.7524 65.5508 32.5525 65.4648 32.3678C65.3788 32.1831 65.2572 32.0172 65.1069 31.8795C64.9567 31.7419 64.7808 31.6353 64.5893 31.5657C64.3978 31.4962 64.1944 31.4651 63.9909 31.4742Z" fill="#B4EDFF"/>
<path d="M48.7851 39.0343C49.0595 39.0337 49.3291 38.9617 49.5673 38.8254C49.8321 38.6708 50.0451 38.4412 50.1795 38.1655C50.3138 37.8899 50.3633 37.5806 50.3219 37.2767C50.2804 36.9729 50.1498 36.6882 49.9465 36.4586C49.7432 36.2291 49.4764 36.0649 49.1798 35.987C48.8833 35.909 48.5702 35.9208 48.2803 36.0207C47.9904 36.1207 47.7367 36.3044 47.5512 36.5485C47.3657 36.7927 47.2568 37.0864 47.2382 37.3925C47.2196 37.6986 47.2922 38.0033 47.4468 38.2681C47.5827 38.5023 47.778 38.6966 48.013 38.8311C48.248 38.9657 48.5143 39.0358 48.7851 39.0343Z" fill="#B4EDFF"/>
<path d="M67.8673 33.0375C67.8438 33.2397 67.8604 33.4446 67.9161 33.6404C67.9718 33.8362 68.0656 34.0191 68.1921 34.1786C68.3186 34.3381 68.4752 34.4711 68.6532 34.5701C68.8311 34.669 69.0268 34.7319 69.229 34.7551C69.2882 34.7617 69.3478 34.7644 69.4074 34.7631C69.7051 34.762 69.9962 34.675 70.2456 34.5125C70.4951 34.35 70.6923 34.1189 70.8135 33.847C70.9348 33.575 70.9749 33.2739 70.929 32.9797C70.8832 32.6855 70.7533 32.4109 70.5551 32.1887C70.3568 31.9666 70.0986 31.8065 69.8115 31.7276C69.5244 31.6487 69.2207 31.6544 68.9368 31.7441C68.6529 31.8337 68.4009 32.0035 68.2112 32.2329C68.0214 32.4624 67.902 32.7418 67.8673 33.0375Z" fill="#B4EDFF"/>
<path d="M39.5154 45.4182C39.7984 45.6707 40.1653 45.8086 40.5446 45.8051C40.9055 45.8034 41.2545 45.6754 41.5307 45.4431C41.807 45.2109 41.9932 44.8892 42.057 44.534C42.1207 44.1788 42.0579 43.8124 41.8796 43.4986C41.7012 43.1849 41.4186 42.9435 41.0807 42.8165C40.7429 42.6895 40.3712 42.6849 40.0304 42.8035C39.6895 42.9221 39.4009 43.1563 39.2149 43.4656C39.0288 43.7749 38.957 44.1395 39.0119 44.4963C39.0668 44.853 39.2449 45.1792 39.5154 45.4182Z" fill="#B4EDFF"/>
<path d="M64.2541 97.9675C64.0506 97.9595 63.8475 97.9916 63.6564 98.0621C63.4653 98.1327 63.29 98.2402 63.1406 98.3786C62.9911 98.517 62.8704 98.6835 62.7854 98.8685C62.7004 99.0536 62.6527 99.2537 62.6451 99.4572C62.6375 99.6607 62.6701 99.8638 62.7411 100.055C62.8121 100.246 62.92 100.421 63.0587 100.57C63.1975 100.719 63.3642 100.839 63.5495 100.924C63.7348 101.008 63.9349 101.056 64.1385 101.063H64.1921C64.5975 101.063 64.9867 100.904 65.2762 100.62C65.5657 100.337 65.7324 99.9508 65.7405 99.5455C65.7486 99.1403 65.5975 98.748 65.3196 98.453C65.0417 98.1579 64.6591 97.9836 64.2541 97.9675Z" fill="#5A859D"/>
<path d="M74.2287 35.7533C74.3671 35.7928 74.5102 35.8136 74.6541 35.8153C75.0472 35.8175 75.4266 35.6706 75.7156 35.404C76.0046 35.1375 76.1818 34.7713 76.2113 34.3793C76.2408 33.9872 76.1205 33.5986 75.8747 33.2918C75.6289 32.985 75.2758 32.7828 74.8868 32.7262C74.4978 32.6695 74.1017 32.7625 73.7786 32.9865C73.4555 33.2104 73.2293 33.5486 73.1458 33.9328C73.0623 34.3169 73.1276 34.7185 73.3286 35.0564C73.5296 35.3943 73.8512 35.6433 74.2287 35.7533Z" fill="#5A859D"/>
<path d="M45.4658 90.8718C45.3088 90.7429 45.128 90.6461 44.9336 90.5871C44.7392 90.5281 44.5351 90.508 44.333 90.528C44.1308 90.548 43.9346 90.6076 43.7555 90.7035C43.5765 90.7994 43.4181 90.9297 43.2894 91.0868C43.1607 91.244 43.0643 91.425 43.0057 91.6195C42.9471 91.814 42.9274 92.0182 42.9477 92.2203C42.9681 92.4224 43.0281 92.6185 43.1243 92.7974C43.2206 92.9763 43.3511 93.1344 43.5086 93.2628C43.7851 93.4905 44.1328 93.6138 44.4909 93.6112C44.8102 93.6126 45.122 93.5148 45.3832 93.3314C45.6445 93.1479 45.8423 92.8878 45.9493 92.5871C46.0564 92.2863 46.0673 91.9597 45.9807 91.6525C45.8941 91.3452 45.7141 91.0724 45.4658 90.8718Z" fill="#B4EDFF"/>
<path d="M97.0715 78.344C97.46 78.343 97.8339 78.1956 98.1187 77.9313C98.4035 77.6671 98.5784 77.3052 98.6084 76.9178C98.6385 76.5304 98.5216 76.146 98.2809 75.8409C98.0403 75.5358 97.6936 75.3326 97.3099 75.2716C96.9262 75.2106 96.5335 75.2964 96.2102 75.5118C95.8868 75.7273 95.6565 76.0566 95.565 76.4342C95.4735 76.8118 95.5275 77.21 95.7164 77.5496C95.9052 77.8891 96.215 78.1451 96.5841 78.2666C96.7413 78.3186 96.9059 78.3447 97.0715 78.344Z" fill="#B4EDFF"/>
<path d="M94.2551 83.095C94.4773 83.2109 94.7239 83.2719 94.9745 83.273C95.2496 83.2737 95.5199 83.2012 95.7577 83.063C95.9954 82.9247 96.1922 82.7257 96.3276 82.4863C96.4631 82.2469 96.5324 81.9758 96.5285 81.7008C96.5246 81.4257 96.4475 81.1567 96.3053 80.9213C96.163 80.6859 95.9607 80.4925 95.719 80.3611C95.4774 80.2298 95.2051 80.165 94.9302 80.1736C94.6553 80.1822 94.3876 80.2638 94.1546 80.41C93.9216 80.5562 93.7318 80.7618 93.6045 81.0056V80.998C93.5093 81.1784 93.4507 81.3758 93.4319 81.5788C93.4131 81.7819 93.4345 81.9867 93.495 82.1814C93.5554 82.3762 93.6536 82.5571 93.7841 82.7139C93.9145 82.8707 94.0746 83.0002 94.2551 83.095Z" fill="#B4EDFF"/>
<path d="M92.0341 47.7242C92.382 47.7224 92.7191 47.6032 92.9907 47.3859C93.2624 47.1686 93.4527 46.866 93.5309 46.527C93.6091 46.188 93.5705 45.8326 93.4214 45.5183C93.2724 45.204 93.0216 44.9492 92.7096 44.7952C92.3977 44.6413 92.0429 44.5971 91.7027 44.67C91.3626 44.7428 91.057 44.9284 90.8355 45.1966C90.614 45.4649 90.4895 45.8 90.4823 46.1478C90.475 46.4956 90.5854 46.8357 90.7956 47.1129C90.9402 47.3041 91.1275 47.4589 91.3425 47.5651C91.5575 47.6712 91.7944 47.7257 92.0341 47.7242Z" fill="#B4EDFF"/>
<path d="M99.8799 71.8438C99.9279 71.5419 99.8854 71.2325 99.7577 70.9546C99.63 70.6768 99.4229 70.443 99.1625 70.2828C98.9021 70.1226 98.6001 70.043 98.2946 70.0543C97.989 70.0655 97.6936 70.167 97.4457 70.3459C97.1978 70.5248 97.0084 70.7732 96.9015 71.0596C96.7945 71.3461 96.7748 71.6578 96.8448 71.9554C96.9149 72.253 97.0715 72.5232 97.2949 72.7319C97.5184 72.9406 97.7986 73.0785 98.1003 73.1281C98.1823 73.1407 98.2652 73.1459 98.3482 73.1436C98.7165 73.145 99.0732 73.0149 99.3541 72.7766C99.6349 72.5383 99.8214 72.2075 99.8799 71.8438Z" fill="#5A859D"/>
<path d="M87.4842 89.1388C87.2637 89.3537 87.1121 89.6293 87.0488 89.9306C86.9855 90.2319 87.0132 90.5452 87.1285 90.8306C87.2439 91.1161 87.4415 91.3608 87.6964 91.5335C87.9512 91.7063 88.2517 91.7993 88.5595 91.8007C88.813 91.8008 89.0627 91.7386 89.2865 91.6196C89.5104 91.5006 89.7016 91.3285 89.8434 91.1184C89.9852 90.9082 90.0732 90.6665 90.0997 90.4144C90.1262 90.1623 90.0905 89.9075 89.9955 89.6725C89.9006 89.4374 89.7493 89.2293 89.5551 89.0663C89.3609 88.9034 89.1297 88.7906 88.8817 88.7379C88.6338 88.6852 88.3767 88.6942 88.133 88.7641C87.8893 88.834 87.6665 88.9627 87.4842 89.1388Z" fill="#B4EDFF"/>
<path d="M93.3411 87.173C93.5247 86.9287 93.6317 86.6353 93.6486 86.3302C93.6654 86.025 93.5913 85.7216 93.4356 85.4586C93.28 85.1955 93.0497 84.9846 92.7741 84.8525C92.4985 84.7203 92.1899 84.6729 91.8873 84.7163C91.5848 84.7597 91.3019 84.8918 91.0745 85.0961C90.8471 85.3003 90.6854 85.5674 90.6099 85.8636C90.5344 86.1598 90.5484 86.4717 90.6503 86.7599C90.7522 87.0481 90.9373 87.2995 91.1822 87.4825C91.3441 87.6044 91.5285 87.6931 91.7247 87.7435C91.921 87.7939 92.1253 87.8051 92.3259 87.7763C92.5265 87.7476 92.7195 87.6795 92.8937 87.5759C93.0679 87.4724 93.22 87.3355 93.3411 87.173Z" fill="#5A859D"/>
<path d="M100.321 66.1949V66.1254C100.32 65.7149 100.156 65.3217 99.8654 65.0322C99.5744 64.7426 99.1804 64.5805 98.7699 64.5815C98.3595 64.5826 97.9662 64.7466 97.6767 65.0375C97.3872 65.3285 97.2251 65.7225 97.2261 66.1329V66.2648C97.2261 66.6753 97.3891 67.0689 97.6794 67.3591C97.9696 67.6494 98.3632 67.8124 98.7737 67.8124C99.1842 67.8124 99.5778 67.6494 99.868 67.3591C100.158 67.0689 100.321 66.6753 100.321 66.2648V66.1949Z" fill="#B4EDFF"/>
<path d="M83.5371 92.3651C83.2846 92.5389 83.0893 92.7836 82.976 93.0684C82.8626 93.3532 82.8364 93.6652 82.9005 93.9649C82.9645 94.2646 83.1161 94.5386 83.336 94.7522C83.5559 94.9657 83.8342 95.1092 84.1357 95.1644C84.4372 95.2197 84.7483 95.1843 85.0296 95.0627C85.3109 94.941 85.5499 94.7387 85.7161 94.4812C85.8824 94.2237 85.9685 93.9227 85.9636 93.6162C85.9587 93.3097 85.8629 93.0116 85.6885 92.7596C85.4545 92.4233 85.097 92.1931 84.694 92.1192C84.291 92.0453 83.8752 92.1337 83.5371 92.3651Z" fill="#B4EDFF"/>
<path d="M94.1845 49.3261C93.9138 49.4691 93.6915 49.6892 93.5459 49.9586C93.4004 50.228 93.338 50.5346 93.3667 50.8394C93.3954 51.1443 93.5139 51.4338 93.7072 51.6713C93.9005 51.9088 94.1599 52.0836 94.4526 52.1735C94.7453 52.2635 95.0581 52.2646 95.3515 52.1768C95.6448 52.0889 95.9055 51.9159 96.1005 51.6798C96.2955 51.4437 96.4161 51.1551 96.447 50.8504C96.4778 50.5458 96.4176 50.2388 96.274 49.9684C96.1792 49.7888 96.0499 49.6297 95.8935 49.5002C95.7371 49.3707 95.5566 49.2733 95.3625 49.2137C95.1684 49.154 94.9645 49.1332 94.7623 49.1525C94.5602 49.1718 94.3639 49.2308 94.1845 49.3261Z" fill="#B4EDFF"/>
<path d="M98.077 59.2696C97.6936 59.3332 97.348 59.5384 97.1088 59.8447C96.8696 60.151 96.7541 60.536 96.7853 60.9234C96.8165 61.3108 96.992 61.6724 97.2771 61.9365C97.5623 62.2006 97.9362 62.3479 98.3249 62.3494C98.4105 62.3492 98.496 62.3414 98.5803 62.3259C98.9856 62.2592 99.3478 62.0342 99.5872 61.7004C99.8266 61.3666 99.9235 60.9514 99.8568 60.5461C99.7901 60.1408 99.5651 59.7787 99.2313 59.5393C98.8975 59.2999 98.4823 59.2029 98.077 59.2696Z" fill="#B4EDFF"/>
<path d="M96.5293 54.1388C96.1826 54.2567 95.8891 54.4938 95.7009 54.8079C95.5127 55.122 95.442 55.4927 95.5015 55.854C95.561 56.2153 95.7468 56.5438 96.0258 56.7809C96.3048 57.0181 96.6589 57.1485 97.025 57.149C97.1931 57.1505 97.3604 57.1244 97.52 57.0716C97.7136 57.0074 97.8926 56.9055 98.0467 56.7719C98.2008 56.6383 98.327 56.4755 98.418 56.2929C98.509 56.1104 98.563 55.9116 98.5769 55.7081C98.5909 55.5046 98.5644 55.3004 98.4991 55.1071C98.4339 54.9139 98.331 54.7354 98.1965 54.5821C98.0621 54.4287 97.8986 54.3034 97.7155 54.2134C97.5325 54.1234 97.3334 54.0705 97.1299 54.0577C96.9263 54.0449 96.7222 54.0725 96.5293 54.1388Z" fill="#5A859D"/>
<path d="M59.1857 97.3639C58.7841 97.2845 58.3674 97.3674 58.0269 97.5946C57.6864 97.8218 57.4498 98.1747 57.3689 98.576C57.288 98.9773 57.3695 99.3942 57.5954 99.7356C57.8214 100.077 58.1734 100.315 58.5744 100.397C58.6763 100.419 58.7801 100.429 58.8842 100.428C59.2682 100.428 59.6384 100.285 59.9228 100.027C60.2072 99.7692 60.3856 99.4147 60.4232 99.0326C60.4608 98.6504 60.3549 98.268 60.1262 97.9596C59.8975 97.6512 59.5623 97.4389 59.1857 97.3639Z" fill="#B4EDFF"/>
<path d="M44.3902 42.0909C44.7497 42.092 45.0979 41.9659 45.3734 41.7349C45.6515 41.5034 45.839 41.1813 45.9031 40.8251C45.9671 40.469 45.9035 40.1017 45.7234 39.7878C45.5434 39.4739 45.2584 39.2336 44.9187 39.1091C44.5789 38.9845 44.2061 38.9838 43.8659 39.107C43.5257 39.2302 43.2398 39.4694 43.0585 39.7826C42.8772 40.0957 42.8121 40.4628 42.8748 40.8192C42.9374 41.1756 43.1237 41.4985 43.4009 41.7311C43.6781 41.9637 44.0284 42.0911 44.3902 42.0909Z" fill="#5A859D"/>
<path d="M49.6679 93.7659C49.3119 93.5615 48.8894 93.5066 48.493 93.6135C48.0966 93.7203 47.7588 93.9801 47.5537 94.3358C47.3487 94.6914 47.2932 95.114 47.3995 95.5105C47.5057 95.9071 47.765 96.2453 48.1203 96.4508V96.4433C48.3544 96.5821 48.622 96.6544 48.8941 96.6522C49.2344 96.6518 49.5651 96.5393 49.8349 96.332C50.1048 96.1247 50.2988 95.8342 50.3869 95.5055C50.475 95.1769 50.4523 94.8283 50.3224 94.5138C50.1924 94.1993 49.9624 93.9365 49.6679 93.7659Z" fill="#5A859D"/>
<path d="M39.5924 87.2041C39.3628 87.4077 39.1988 87.6747 39.121 87.9715C39.0432 88.2683 39.0552 88.5815 39.1554 88.8715C39.2556 89.1615 39.4396 89.4153 39.684 89.6007C39.9284 89.7862 40.2224 89.895 40.5286 89.9134C40.8349 89.9317 41.1398 89.8589 41.4046 89.704C41.6695 89.5492 41.8825 89.3192 42.0167 89.0433C42.1509 88.7674 42.2002 88.4579 42.1585 88.1539C42.1168 87.85 41.9859 87.5652 41.7823 87.3356C41.509 87.0283 41.1251 86.8419 40.7145 86.8172C40.304 86.7926 39.9005 86.9317 39.5924 87.2041Z" fill="#B4EDFF"/>
<path d="M34.9037 80.9127C35.1142 80.9099 35.322 80.8652 35.515 80.7812C35.8614 80.6276 36.1385 80.351 36.2927 80.0049C36.447 79.6588 36.4675 79.2678 36.3502 78.9075C36.2329 78.5471 35.9862 78.2431 35.6578 78.0541C35.3294 77.8652 34.9425 77.8047 34.5721 77.8843C34.2017 77.964 33.8739 78.1782 33.6522 78.4855C33.4305 78.7928 33.3307 79.1714 33.3719 79.5481C33.4131 79.9247 33.5926 80.2727 33.8755 80.5248C34.1584 80.7768 34.5248 80.915 34.9037 80.9127Z" fill="#B4EDFF"/>
<path d="M37.4027 85.641C37.696 85.6418 37.9834 85.5585 38.2309 85.4011C38.5758 85.1797 38.8191 84.8308 38.9076 84.4306C38.9961 84.0303 38.9226 83.6114 38.7032 83.2652H38.7107C38.5668 83.0379 38.3662 82.8521 38.1285 82.726C37.8909 82.5999 37.6246 82.5379 37.3557 82.5461C37.0868 82.5544 36.8247 82.6325 36.5953 82.7729C36.3658 82.9133 36.1769 83.1111 36.0471 83.3467C35.9174 83.5823 35.8513 83.8477 35.8554 84.1167C35.8595 84.3857 35.9336 84.6489 36.0704 84.8805C36.2073 85.1121 36.4021 85.3041 36.6357 85.4374C36.8693 85.5708 37.1337 85.641 37.4027 85.641Z" fill="#5A859D"/>
<path d="M69.3533 97.7587C68.9626 97.8077 68.6052 98.0035 68.3536 98.3064C68.1021 98.6093 67.9752 98.9967 67.9989 99.3897C68.0226 99.7827 68.1949 100.152 68.481 100.423C68.7671 100.693 69.1455 100.845 69.5392 100.846C69.6039 100.845 69.6685 100.84 69.7327 100.831C70.1401 100.781 70.5108 100.571 70.7633 100.247C71.0158 99.9232 71.1294 99.5126 71.0791 99.1052C71.0288 98.6978 70.8187 98.327 70.4951 98.0745C70.1714 97.822 69.7607 97.7084 69.3533 97.7587Z" fill="#B4EDFF"/>
<path d="M74.3521 96.7372C73.9946 96.8416 73.6867 97.0715 73.4849 97.3846C73.2832 97.6978 73.2011 98.0732 73.2539 98.4419C73.3066 98.8107 73.4906 99.148 73.772 99.3921C74.0534 99.6361 74.4134 99.7705 74.7859 99.7705C74.9325 99.7722 75.0786 99.7513 75.2189 99.7085C75.6129 99.5936 75.9451 99.3268 76.1425 98.9669C76.3398 98.607 76.3861 98.1835 76.2712 97.7895C76.1562 97.3955 75.8895 97.0632 75.5296 96.8659C75.1697 96.6686 74.7461 96.6223 74.3521 96.7372Z" fill="#B4EDFF"/>
<path d="M81.1184 96.9268H81.126C81.9974 96.9278 82.8329 97.2748 83.4486 97.8916C84.0643 98.5083 84.4099 99.3444 84.4094 100.216C84.4089 101.087 84.0623 101.923 83.4459 102.539C82.8295 103.155 81.9937 103.501 81.1222 103.501C80.2507 103.501 79.4149 103.155 78.7984 102.539C78.182 101.923 77.8355 101.087 77.835 100.216C77.8345 99.3444 78.1801 98.5083 78.7958 97.8916C79.4115 97.2748 80.2469 96.9278 81.1184 96.9268Z" fill="#5A859D"/>
<path d="M54.2798 95.9481C54.0892 95.8761 53.8863 95.8424 53.6826 95.8489C53.479 95.8555 53.2786 95.9021 53.093 95.9861C52.9074 96.0701 52.7402 96.1899 52.6009 96.3385C52.4616 96.4872 52.353 96.6619 52.2813 96.8526C52.2096 97.0433 52.1762 97.2463 52.183 97.4499C52.1898 97.6535 52.2367 97.8538 52.3209 98.0393C52.4052 98.2248 52.5252 98.3919 52.6741 98.531C52.8229 98.67 52.9978 98.7784 53.1886 98.8499C53.3648 98.9138 53.5505 98.9478 53.738 98.9504C54.1007 98.9492 54.4516 98.821 54.7295 98.588C55.0075 98.3549 55.195 98.0319 55.2594 97.6749C55.3238 97.3179 55.2611 96.9497 55.0821 96.6342C54.9032 96.3187 54.6192 96.0759 54.2798 95.9481Z" fill="#B4EDFF"/>
<path d="M33.2009 75.8367C33.5229 75.8368 33.8368 75.7364 34.099 75.5496C34.3612 75.3628 34.5586 75.0988 34.6636 74.7944C34.7687 74.4901 34.7762 74.1606 34.6851 73.8518C34.5939 73.543 34.4087 73.2704 34.1553 73.0718C33.9018 72.8733 33.5928 72.7588 33.2711 72.7443C32.9495 72.7297 32.6314 72.8159 32.3611 72.9908C32.0907 73.1656 31.8817 73.4205 31.7631 73.7198C31.6445 74.0191 31.6222 74.3479 31.6994 74.6605C31.7821 74.9962 31.975 75.2945 32.2472 75.5078C32.5193 75.721 32.8552 75.8368 33.2009 75.8367Z" fill="#B4EDFF"/>
<path d="M65.5 72C66.5878 72 67.6512 71.6774 68.5556 71.0731C69.4601 70.4687 70.1651 69.6098 70.5813 68.6048C70.9976 67.5998 71.1065 66.4939 70.8943 65.427C70.6821 64.3601 70.1583 63.3801 69.3891 62.6109C68.6199 61.8417 67.6399 61.3179 66.573 61.1057C65.5061 60.8935 64.4002 61.0024 63.3952 61.4187C62.3902 61.8349 61.5313 62.5399 60.9269 63.4444C60.3226 64.3488 60 65.4122 60 66.5C60.0016 67.9582 60.5816 69.3562 61.6127 70.3873C62.6438 71.4184 64.0418 71.9984 65.5 72ZM65.5 63C66.1922 63 66.8689 63.2053 67.4445 63.5899C68.0201 63.9744 68.4687 64.5211 68.7336 65.1606C68.9985 65.8002 69.0678 66.5039 68.9327 67.1828C68.7977 67.8618 68.4644 68.4854 67.9749 68.9749C67.4854 69.4644 66.8617 69.7977 66.1828 69.9327C65.5039 70.0678 64.8001 69.9985 64.1606 69.7336C63.5211 69.4687 62.9744 69.0201 62.5899 68.4445C62.2053 67.8689 62 67.1922 62 66.5C62.0011 65.5721 62.3702 64.6825 63.0263 64.0263C63.6825 63.3702 64.5721 63.0011 65.5 63Z" fill="#B4EDFF"/>
<path d="M2.04762 117.336C2.90235 117.336 3.59524 116.643 3.59524 115.788C3.59524 114.934 2.90235 114.241 2.04762 114.241C1.19289 114.241 0.5 114.934 0.5 115.788C0.5 116.643 1.19289 117.336 2.04762 117.336Z" fill="#5A859D"/>
<path d="M9.01187 114.241H6.69044C6.27999 114.241 5.88634 114.404 5.59611 114.694C5.30587 114.984 5.14282 115.378 5.14282 115.788C5.14282 116.199 5.30587 116.592 5.59611 116.883C5.88634 117.173 6.27999 117.336 6.69044 117.336H9.01187C9.42232 117.336 9.81597 117.173 10.1062 116.883C10.3964 116.592 10.5595 116.199 10.5595 115.788C10.5595 115.378 10.3964 114.984 10.1062 114.694C9.81597 114.404 9.42232 114.241 9.01187 114.241Z" fill="#5A859D"/>
<path d="M124.309 114.241H121.988C121.578 114.241 121.184 114.404 120.894 114.694C120.603 114.984 120.44 115.378 120.44 115.788C120.44 116.199 120.603 116.592 120.894 116.883C121.184 117.173 121.578 117.336 121.988 117.336H124.309C124.72 117.336 125.114 117.173 125.404 116.883C125.694 116.592 125.857 116.199 125.857 115.788C125.857 115.378 125.694 114.984 125.404 114.694C125.114 114.404 124.72 114.241 124.309 114.241Z" fill="#5A859D"/>
<path d="M128.952 117.336C129.807 117.336 130.5 116.643 130.5 115.788C130.5 114.934 129.807 114.241 128.952 114.241C128.098 114.241 127.405 114.934 127.405 115.788C127.405 116.643 128.098 117.336 128.952 117.336Z" fill="#5A859D"/>
<path d="M95.9285 120.431H89.4999C89.1108 120.462 88.7478 120.639 88.483 120.926C88.2183 121.212 88.0713 121.588 88.0713 121.979C88.0713 122.369 88.2183 122.745 88.483 123.032C88.7478 123.319 89.1108 123.495 89.4999 123.526H95.9285C96.3175 123.495 96.6806 123.319 96.9453 123.032C97.21 122.745 97.3571 122.369 97.3571 121.979C97.3571 121.588 97.21 121.212 96.9453 120.926C96.6806 120.639 96.3175 120.462 95.9285 120.431Z" fill="#B4EDFF"/>
<path d="M41.4998 120.431H35.0712C34.6821 120.462 34.3191 120.639 34.0543 120.926C33.7896 121.212 33.6426 121.588 33.6426 121.979C33.6426 122.369 33.7896 122.745 34.0543 123.032C34.3191 123.319 34.6821 123.495 35.0712 123.526H41.4998C41.8888 123.495 42.2519 123.319 42.5166 123.032C42.7813 122.745 42.9283 122.369 42.9283 121.979C42.9283 121.588 42.7813 121.212 42.5166 120.926C42.2519 120.639 41.8888 120.462 41.4998 120.431Z" fill="#B4EDFF"/>
<path d="M80.9761 120.431H50.0237C49.6132 120.431 49.2196 120.594 48.9294 120.884C48.6391 121.175 48.4761 121.568 48.4761 121.979C48.4761 122.389 48.6391 122.783 48.9294 123.073C49.2196 123.363 49.6132 123.526 50.0237 123.526H62.3582V125.074H56.2142C55.8037 125.074 55.4101 125.237 55.1198 125.527C54.8296 125.818 54.6666 126.211 54.6666 126.622C54.6666 127.032 54.8296 127.426 55.1198 127.716C55.4101 128.006 55.8037 128.169 56.2142 128.169H75.5594C75.9699 128.169 76.3635 128.006 76.6537 127.716C76.944 127.426 77.107 127.032 77.107 126.622C77.107 126.211 76.944 125.818 76.6537 125.527C76.3635 125.237 75.9699 125.074 75.5594 125.074H68.6415V123.526H80.9761C81.3865 123.526 81.7802 123.363 82.0704 123.073C82.3606 122.783 82.5237 122.389 82.5237 121.979C82.5237 121.568 82.3606 121.175 82.0704 120.884C81.7802 120.594 81.3865 120.431 80.9761 120.431Z" fill="#B4EDFF"/>
<path d="M117.13 114.241H67.0476V110.155C67.3552 110.335 67.7161 110.404 68.0686 110.349C68.4212 110.293 68.7436 110.117 68.9809 109.851C69.2183 109.584 69.3558 109.244 69.3701 108.887C69.3843 108.531 69.2745 108.18 69.0592 107.895L66.7378 104.8C66.5874 104.617 66.3984 104.47 66.1844 104.369C65.9704 104.268 65.7367 104.216 65.5 104.216C65.2633 104.216 65.0296 104.268 64.8156 104.369C64.6016 104.47 64.4126 104.617 64.2622 104.8L61.9408 107.895C61.7267 108.181 61.6177 108.531 61.6322 108.887C61.6468 109.244 61.7839 109.584 62.0205 109.851C62.2571 110.118 62.5786 110.295 62.9306 110.352C63.2826 110.409 63.6435 110.343 63.9524 110.165V114.241H13.8704C13.6502 114.212 13.4265 114.231 13.214 114.295C13.0016 114.36 12.8054 114.469 12.6385 114.615C12.4717 114.762 12.338 114.942 12.2464 115.145C12.1548 115.347 12.1074 115.566 12.1074 115.788C12.1074 116.01 12.1548 116.23 12.2464 116.432C12.338 116.634 12.4717 116.815 12.6385 116.961C12.8054 117.108 13.0016 117.217 13.214 117.282C13.4265 117.346 13.6502 117.365 13.8704 117.336H117.13C117.35 117.365 117.574 117.346 117.786 117.282C117.998 117.217 118.195 117.108 118.361 116.961C118.528 116.815 118.662 116.634 118.754 116.432C118.845 116.23 118.893 116.01 118.893 115.788C118.893 115.566 118.845 115.347 118.754 115.145C118.662 114.942 118.528 114.762 118.361 114.615C118.195 114.469 117.998 114.36 117.786 114.295C117.574 114.231 117.35 114.212 117.13 114.241Z" fill="#5A859D"/>
<path d="M35.4591 16.8035C35.9183 16.8035 36.3671 16.6674 36.7488 16.4123C37.1306 16.1572 37.4281 15.7946 37.6038 15.3704C37.7795 14.9463 37.8255 14.4795 37.7359 14.0292C37.6464 13.5789 37.4253 13.1652 37.1006 12.8406C36.776 12.5159 36.3623 12.2948 35.912 12.2053C35.4617 12.1157 34.9949 12.1617 34.5708 12.3374C34.1466 12.5131 33.784 12.8106 33.5289 13.1924C33.2738 13.5741 33.1377 14.0229 33.1377 14.4821C33.1384 15.0975 33.3832 15.6876 33.8184 16.1228C34.2536 16.558 34.8437 16.8028 35.4591 16.8035ZM35.4591 13.3214C35.6887 13.3214 35.9131 13.3894 36.104 13.517C36.2949 13.6445 36.4436 13.8258 36.5315 14.0379C36.6193 14.25 36.6423 14.4834 36.5975 14.7085C36.5527 14.9337 36.4422 15.1405 36.2799 15.3028C36.1175 15.4652 35.9107 15.5757 35.6856 15.6205C35.4604 15.6653 35.227 15.6423 35.0149 15.5544C34.8028 15.4666 34.6216 15.3178 34.494 15.1269C34.3665 14.9361 34.2984 14.7116 34.2984 14.4821C34.2987 14.1743 34.4211 13.8793 34.6387 13.6617C34.8563 13.444 35.1514 13.3217 35.4591 13.3214Z" fill="#5A859D"/>
<path d="M123.405 42.9224C123.099 42.9224 122.8 43.0131 122.545 43.1832C122.291 43.3532 122.092 43.5949 121.975 43.8777C121.858 44.1605 121.827 44.4717 121.887 44.7719C121.947 45.0721 122.094 45.3479 122.311 45.5643C122.527 45.7808 122.803 45.9281 123.103 45.9879C123.403 46.0476 123.714 46.0169 123.997 45.8998C124.28 45.7827 124.522 45.5843 124.692 45.3298C124.862 45.0753 124.953 44.7761 124.953 44.47C124.952 44.0597 124.789 43.6663 124.499 43.3762C124.209 43.086 123.815 42.9228 123.405 42.9224ZM123.405 45.2438C123.252 45.2438 123.102 45.1984 122.975 45.1134C122.848 45.0284 122.749 44.9075 122.69 44.7661C122.632 44.6247 122.616 44.4691 122.646 44.319C122.676 44.1689 122.75 44.031 122.858 43.9228C122.966 43.8146 123.104 43.7409 123.254 43.711C123.404 43.6812 123.56 43.6965 123.701 43.7551C123.843 43.8136 123.963 43.9128 124.048 44.0401C124.133 44.1673 124.179 44.3169 124.179 44.47C124.179 44.6751 124.097 44.8719 123.952 45.0169C123.807 45.162 123.61 45.2436 123.405 45.2438Z" fill="#5A859D"/>
<path d="M90.488 13.6753C90.182 13.6753 89.8827 13.7661 89.6282 13.9361C89.3737 14.1062 89.1754 14.3479 89.0582 14.6307C88.9411 14.9135 88.9105 15.2246 88.9702 15.5248C89.0299 15.825 89.1773 16.1008 89.3937 16.3172C89.6102 16.5337 89.8859 16.6811 90.1861 16.7408C90.4863 16.8005 90.7975 16.7699 91.0803 16.6527C91.3631 16.5356 91.6048 16.3372 91.7748 16.0827C91.9449 15.8282 92.0357 15.529 92.0357 15.2229C92.0352 14.8126 91.872 14.4192 91.5819 14.1291C91.2917 13.839 90.8984 13.6758 90.488 13.6753ZM90.488 15.9967C90.335 15.9967 90.1854 15.9513 90.0581 15.8663C89.9309 15.7813 89.8317 15.6604 89.7731 15.519C89.7146 15.3776 89.6993 15.2221 89.7291 15.0719C89.759 14.9218 89.8327 14.784 89.9409 14.6757C90.0491 14.5675 90.187 14.4938 90.3371 14.464C90.4872 14.4341 90.6428 14.4494 90.7842 14.508C90.9256 14.5666 91.0464 14.6658 91.1314 14.793C91.2165 14.9203 91.2619 15.0699 91.2619 15.2229C91.2617 15.4281 91.1801 15.6248 91.035 15.7699C90.8899 15.9149 90.6932 15.9965 90.488 15.9967Z" fill="#5A859D"/>
<path d="M114.745 27.4434C114.439 27.4434 114.14 27.5341 113.885 27.7042C113.631 27.8742 113.432 28.1159 113.315 28.3987C113.198 28.6815 113.167 28.9927 113.227 29.2929C113.287 29.5931 113.434 29.8689 113.651 30.0853C113.867 30.3017 114.143 30.4491 114.443 30.5089C114.743 30.5686 115.054 30.5379 115.337 30.4208C115.62 30.3037 115.862 30.1053 116.032 29.8508C116.202 29.5963 116.292 29.2971 116.292 28.991C116.292 28.5807 116.129 28.1873 115.839 27.8972C115.549 27.607 115.155 27.4438 114.745 27.4434ZM114.745 29.7648C114.592 29.7648 114.442 29.7194 114.315 29.6344C114.188 29.5494 114.089 29.4285 114.03 29.2871C113.971 29.1457 113.956 28.9901 113.986 28.84C114.016 28.6899 114.09 28.552 114.198 28.4438C114.306 28.3356 114.444 28.2619 114.594 28.232C114.744 28.2022 114.9 28.2175 115.041 28.2761C115.182 28.3346 115.303 28.4338 115.388 28.5611C115.473 28.6883 115.519 28.8379 115.519 28.991C115.518 29.1961 115.437 29.3928 115.292 29.5379C115.147 29.683 114.95 29.7646 114.745 29.7648Z" fill="#5A859D"/>
<path d="M12.5279 41.3718C12.5279 41.0657 12.4371 40.7665 12.267 40.512C12.097 40.2575 11.8553 40.0592 11.5725 39.942C11.2897 39.8249 10.9785 39.7942 10.6783 39.854C10.3781 39.9137 10.1023 40.0611 9.88591 40.2775C9.66947 40.4939 9.52207 40.7697 9.46235 41.0699C9.40264 41.3701 9.43329 41.6813 9.55042 41.9641C9.66756 42.2469 9.86592 42.4886 10.1204 42.6586C10.3749 42.8287 10.6741 42.9195 10.9802 42.9195C11.3905 42.919 11.7839 42.7558 12.0741 42.4657C12.3642 42.1755 12.5274 41.7821 12.5279 41.3718ZM10.2064 41.3718C10.2064 41.2188 10.2518 41.0692 10.3368 40.9419C10.4219 40.8147 10.5427 40.7155 10.6841 40.6569C10.8255 40.5984 10.9811 40.583 11.1312 40.6129C11.2813 40.6428 11.4192 40.7165 11.5274 40.8247C11.6356 40.9329 11.7093 41.0708 11.7392 41.2209C11.769 41.371 11.7537 41.5266 11.6951 41.668C11.6366 41.8094 11.5374 41.9302 11.4101 42.0152C11.2829 42.1003 11.1333 42.1456 10.9802 42.1456C10.7751 42.1454 10.5784 42.0639 10.4333 41.9188C10.2882 41.7737 10.2066 41.577 10.2064 41.3718Z" fill="#5A859D"/>
<path d="M13.0218 7.527L14.1724 6.01421L13.4458 5.60254L12.7076 7.29718H12.6828L11.9322 5.61415L11.1932 6.03819L12.3315 7.5154V7.53938L10.5518 7.30956V8.1329L12.3439 7.90308V7.92706L11.1932 9.40349L11.8835 9.83992L12.6712 8.1329H12.6944L13.421 9.82754L14.184 9.39188L13.0218 7.93867V7.91468L14.8495 8.1329V7.30956L13.0218 7.55177V7.527Z" fill="#B4EDFF"/>
<path d="M108.186 9.8299L107.523 10.6803L107.92 10.9318L108.374 9.94829H108.388L108.806 10.9248L109.246 10.6741L108.576 9.83687V9.82294L109.629 9.94829V9.47472L108.576 9.61401V9.60008L109.239 8.72877L108.82 8.49121L108.395 9.46776H108.381L107.949 8.49818L107.523 8.7427L108.179 9.59312V9.60704L107.153 9.47472V9.94829L108.186 9.81597V9.8299Z" fill="#B4EDFF"/>
<path d="M126.995 15.6144V14.8066L125.202 15.0441V15.0209L126.33 13.536L125.617 13.1328L124.893 14.795H124.869L124.133 13.1444L123.408 13.56L124.525 15.0093V15.0325L122.778 14.8066V15.6144L124.536 15.3892V15.4125L123.408 16.861L124.085 17.2889L124.858 15.6144H124.881L125.593 17.2773L126.342 16.8494L125.202 15.4241V15.4008L126.995 15.6144Z" fill="#B4EDFF"/>
<path d="M64.466 5.45915L65.4395 4.17927L64.8243 3.83105L64.1998 5.26492H64.179L63.5444 3.84111L62.9184 4.19939L63.8818 5.44909V5.46998L62.376 5.27498V5.97141L63.8919 5.77719V5.7973L62.9184 7.04701L63.5026 7.41611L64.1689 5.97141H64.189L64.8042 7.40605L65.4495 7.03695L64.466 5.80736V5.78725L66.0121 5.97141V5.27498L64.466 5.48004V5.45915Z" fill="#B4EDFF"/>
</g>
<defs>
<clipPath id="clip0_48_9590">
<rect width="130" height="130" fill="white" transform="translate(0.5)"/>
</clipPath>
</defs>
</svg>
