<svg width="131" height="135" viewBox="0 0 131 135" fill="none" xmlns="http://www.w3.org/2000/svg">
<path d="M65.4999 88.346C70.834 88.34 75.9479 86.2184 79.7196 82.4466C83.4914 78.6749 85.613 73.561 85.619 68.2269V26.4412C85.619 25.2098 85.1298 24.0289 84.2591 23.1582C83.3884 22.2875 82.2075 21.7983 80.9761 21.7983C79.7447 21.7983 78.5638 22.2875 77.6931 23.1582C76.8224 24.0289 76.3332 25.2098 76.3332 26.4412V68.2269C76.3332 71.1001 75.1919 73.8556 73.1602 75.8872C71.1286 77.9189 68.3731 79.0602 65.4999 79.0602C62.6267 79.0602 59.8712 77.9189 57.8396 75.8872C55.8079 73.8556 54.6666 71.1001 54.6666 68.2269V26.4412C54.6666 25.2098 54.1774 24.0289 53.3067 23.1582C52.436 22.2875 51.2551 21.7983 50.0237 21.7983C48.7924 21.7983 47.6114 22.2875 46.7407 23.1582C45.87 24.0289 45.3809 25.2098 45.3809 26.4412V68.2269C45.3868 73.561 47.5084 78.6749 51.2802 82.4466C55.0519 86.2184 60.1658 88.34 65.4999 88.346ZM48.4761 26.4412C48.4761 26.0307 48.6391 25.6371 48.9294 25.3469C49.2196 25.0566 49.6133 24.8936 50.0237 24.8936C50.4342 24.8936 50.8278 25.0566 51.118 25.3469C51.4083 25.6371 51.5713 26.0307 51.5713 26.4412V68.2269C51.5713 70.056 51.9316 71.8673 52.6316 73.5571C53.3316 75.247 54.3575 76.7825 55.6509 78.0759C56.9443 79.3693 58.4798 80.3953 60.1697 81.0952C61.8596 81.7952 63.6708 82.1555 65.4999 82.1555C67.329 82.1555 69.1403 81.7952 70.8301 81.0952C72.52 80.3953 74.0555 79.3693 75.3489 78.0759C76.6423 76.7825 77.6683 75.247 78.3682 73.5571C79.0682 71.8673 79.4285 70.056 79.4285 68.2269V26.4412C79.4285 26.0307 79.5915 25.6371 79.8818 25.3469C80.172 25.0566 80.5656 24.8936 80.9761 24.8936C81.3866 24.8936 81.7802 25.0566 82.0704 25.3469C82.3607 25.6371 82.5237 26.0307 82.5237 26.4412V68.2269C82.5237 72.7419 80.7301 77.072 77.5376 80.2646C74.345 83.4571 70.0149 85.2507 65.4999 85.2507C60.9849 85.2507 56.6548 83.4571 53.4623 80.2646C50.2697 77.072 48.4761 72.7419 48.4761 68.2269V26.4412Z" fill="#5A859D"/>
<path d="M65.4998 74.965C67.0303 74.965 68.5263 74.5111 69.7989 73.6609C71.0714 72.8106 72.0632 71.6021 72.6489 70.1881C73.2346 68.7742 73.3878 67.2183 73.0892 65.7172C72.7906 64.2162 72.0537 62.8374 70.9715 61.7552C69.8893 60.673 68.5105 59.936 67.0094 59.6375C65.5084 59.3389 63.9525 59.4921 62.5386 60.0778C61.1246 60.6635 59.9161 61.6553 59.0658 62.9278C58.2155 64.2003 57.7617 65.6964 57.7617 67.2269C57.7641 69.2784 58.5801 71.2453 60.0307 72.6959C61.4814 74.1466 63.4483 74.9626 65.4998 74.965ZM65.4998 62.584C66.4181 62.584 67.3157 62.8563 68.0792 63.3665C68.8428 63.8766 69.4378 64.6018 69.7893 65.4501C70.1407 66.2985 70.2326 67.232 70.0535 68.1326C69.8743 69.0333 69.4321 69.8606 68.7828 70.5099C68.1335 71.1592 67.3062 71.6014 66.4056 71.7805C65.505 71.9597 64.5714 71.8677 63.7231 71.5163C62.8747 71.1649 62.1496 70.5698 61.6394 69.8063C61.1293 69.0428 60.857 68.1451 60.857 67.2269C60.8583 65.9959 61.3479 64.8158 62.2183 63.9454C63.0887 63.0749 64.2689 62.5854 65.4998 62.584Z" fill="#B4EDFF"/>
<path d="M33.5479 95.3099C33.5479 97.4525 34.1832 99.547 35.3736 101.329C36.564 103.11 38.2559 104.499 40.2354 105.319C42.215 106.139 44.3932 106.353 46.4947 105.935C48.5961 105.517 50.5264 104.485 52.0415 102.97C53.5566 101.455 54.5884 99.5248 55.0064 97.4234C55.4244 95.3219 55.2098 93.1437 54.3899 91.1642C53.5699 89.1846 52.1814 87.4927 50.3999 86.3023C48.6183 85.1119 46.5238 84.4766 44.3812 84.4766C41.509 84.4798 38.7554 85.6222 36.7244 87.6531C34.6935 89.6841 33.5511 92.4377 33.5479 95.3099ZM44.3812 87.5718C45.9116 87.5718 47.4077 88.0256 48.6802 88.8759C49.9528 89.7262 50.9446 90.9347 51.5303 92.3487C52.1159 93.7626 52.2692 95.3185 51.9706 96.8195C51.672 98.3206 50.935 99.6994 49.8528 100.782C48.7707 101.864 47.3919 102.601 45.8908 102.899C44.3898 103.198 42.8339 103.045 41.4199 102.459C40.006 101.873 38.7975 100.881 37.9472 99.609C37.0969 98.3364 36.6431 96.8403 36.6431 95.3099C36.6454 93.2583 37.4615 91.2915 38.9121 89.8408C40.3628 88.3902 42.3296 87.5741 44.3812 87.5718Z" fill="#B4EDFF"/>
<path d="M86.6195 84.4766C84.4768 84.4766 82.3823 85.1119 80.6008 86.3023C78.8193 87.4927 77.4307 89.1846 76.6108 91.1642C75.7908 93.1437 75.5763 95.3219 75.9943 97.4234C76.4123 99.5248 77.4441 101.455 78.9591 102.97C80.4742 104.485 82.4045 105.517 84.506 105.935C86.6075 106.353 88.7857 106.139 90.7652 105.319C92.7447 104.499 94.4367 103.11 95.6271 101.329C96.8174 99.547 97.4528 97.4525 97.4528 95.3099C97.4496 92.4377 96.3072 89.6841 94.2762 87.6531C92.2453 85.6222 89.4917 84.4798 86.6195 84.4766ZM86.6195 103.048C85.089 103.048 83.5929 102.594 82.3204 101.744C81.0479 100.894 80.0561 99.6851 79.4704 98.2711C78.8847 96.8572 78.7315 95.3013 79.0301 93.8003C79.3286 92.2992 80.0656 90.9204 81.1478 89.8382C82.23 88.756 83.6088 88.0191 85.1098 87.7205C86.6109 87.4219 88.1668 87.5752 89.5807 88.1608C90.9947 88.7465 92.2032 89.7383 93.0535 91.0108C93.9037 92.2834 94.3576 93.7794 94.3576 95.3099C94.3552 97.3614 93.5392 99.3283 92.0885 100.779C90.6379 102.23 88.671 103.046 86.6195 103.048Z" fill="#B4EDFF"/>
<path d="M60.0835 96.8576C60.0835 97.9289 60.4012 98.9762 60.9964 99.8669C61.5916 100.758 62.4375 101.452 63.4273 101.862C64.4171 102.272 65.5062 102.379 66.5569 102.17C67.6076 101.961 68.5728 101.445 69.3303 100.688C70.0879 99.9302 70.6037 98.9651 70.8127 97.9143C71.0218 96.8636 70.9145 95.7745 70.5045 94.7847C70.0945 93.795 69.4003 92.949 68.5095 92.3538C67.6187 91.7586 66.5715 91.4409 65.5002 91.4409C64.0641 91.4426 62.6873 92.0138 61.6719 93.0293C60.6564 94.0447 60.0852 95.4215 60.0835 96.8576ZM67.8216 96.8576C67.8216 97.3167 67.6854 97.7655 67.4304 98.1473C67.1753 98.5291 66.8127 98.8266 66.3885 99.0023C65.9643 99.178 65.4976 99.224 65.0473 99.1344C64.597 99.0448 64.1833 98.8237 63.8587 98.4991C63.534 98.1744 63.3129 97.7608 63.2233 97.3105C63.1338 96.8602 63.1797 96.3934 63.3554 95.9692C63.5311 95.545 63.8287 95.1825 64.2104 94.9274C64.5922 94.6723 65.041 94.5362 65.5002 94.5362C66.1156 94.5368 66.7057 94.7816 67.1409 95.2168C67.5761 95.652 67.8209 96.2421 67.8216 96.8576Z" fill="#5A859D"/>
<path d="M104.19 61.8097C104.19 60.7384 103.873 59.6912 103.277 58.8004C102.682 57.9096 101.836 57.2154 100.846 56.8054C99.8567 56.3954 98.7676 56.2881 97.7169 56.4971C96.6661 56.7062 95.701 57.222 94.9434 57.9796C94.1859 58.7371 93.67 59.7023 93.461 60.753C93.252 61.8037 93.3593 62.8928 93.7693 63.8826C94.1792 64.8724 94.8735 65.7183 95.7643 66.3135C96.655 66.9087 97.7023 67.2264 98.7736 67.2264C100.21 67.2247 101.586 66.6535 102.602 65.638C103.617 64.6226 104.189 63.2458 104.19 61.8097ZM96.4522 61.8097C96.4522 61.3506 96.5883 60.9018 96.8434 60.52C97.0985 60.1383 97.461 59.8407 97.8852 59.665C98.3094 59.4893 98.7762 59.4433 99.2265 59.5329C99.6768 59.6225 100.09 59.8436 100.415 60.1682C100.74 60.4929 100.961 60.9065 101.05 61.3568C101.14 61.8072 101.094 62.2739 100.918 62.6981C100.743 63.1223 100.445 63.4848 100.063 63.7399C99.6816 63.995 99.2327 64.1312 98.7736 64.1312C98.1581 64.1305 97.5681 63.8857 97.1328 63.4505C96.6976 63.0153 96.4528 62.4252 96.4522 61.8097Z" fill="#5A859D"/>
<path d="M32.2267 56.3931C31.1554 56.3931 30.1082 56.7108 29.2174 57.3059C28.3266 57.9011 27.6324 58.7471 27.2224 59.7369C26.8124 60.7266 26.7051 61.8157 26.9141 62.8665C27.1231 63.9172 27.639 64.8824 28.3966 65.6399C29.1541 66.3974 30.1193 66.9133 31.17 67.1223C32.2207 67.3313 33.3098 67.2241 34.2996 66.8141C35.2894 66.4041 36.1353 65.7098 36.7305 64.8191C37.3257 63.9283 37.6434 62.881 37.6434 61.8097C37.6417 60.3737 37.0705 58.9969 36.055 57.9814C35.0396 56.966 33.6628 56.3947 32.2267 56.3931ZM32.2267 64.1312C31.7676 64.1312 31.3188 63.995 30.937 63.7399C30.5553 63.4848 30.2577 63.1223 30.082 62.6981C29.9063 62.2739 29.8603 61.8072 29.9499 61.3568C30.0395 60.9065 30.2606 60.4929 30.5852 60.1682C30.9099 59.8436 31.3235 59.6225 31.7738 59.5329C32.2242 59.4433 32.6909 59.4893 33.1151 59.665C33.5393 59.8407 33.9018 60.1383 34.1569 60.52C34.412 60.9018 34.5482 61.3506 34.5482 61.8097C34.5475 62.4252 34.3027 63.0153 33.8675 63.4505C33.4323 63.8857 32.8422 64.1305 32.2267 64.1312Z" fill="#5A859D"/>
<path d="M57.762 51.2026H73.2382V54.2979H57.762V51.2026Z" fill="#5A859D"/>
<path d="M57.762 45.0122H73.2382V48.1074H57.762V45.0122Z" fill="#5A859D"/>
<path d="M71.1129 7.31766C71.5721 7.31766 72.0209 7.18151 72.4026 6.92643C72.7844 6.67135 73.0819 6.30879 73.2577 5.88461C73.4334 5.46042 73.4793 4.99366 73.3898 4.54335C73.3002 4.09303 73.0791 3.67939 72.7544 3.35474C72.4298 3.03008 72.0161 2.80898 71.5658 2.71941C71.1155 2.62984 70.6487 2.67581 70.2246 2.85151C69.8004 3.02722 69.4378 3.32476 69.1827 3.70652C68.9277 4.08827 68.7915 4.5371 68.7915 4.99623C68.7922 5.6117 69.037 6.20175 69.4722 6.63695C69.9074 7.07215 70.4975 7.31696 71.1129 7.31766ZM71.1129 3.83552C71.3425 3.83552 71.5669 3.90359 71.7578 4.03114C71.9487 4.15868 72.0974 4.33996 72.1853 4.55205C72.2731 4.76414 72.2961 4.99752 72.2513 5.22268C72.2066 5.44783 72.096 5.65465 71.9337 5.81698C71.7714 5.97931 71.5645 6.08986 71.3394 6.13465C71.1142 6.17943 70.8808 6.15645 70.6687 6.06859C70.4567 5.98074 70.2754 5.83197 70.1478 5.64109C70.0203 5.45021 69.9522 5.2258 69.9522 4.99623C69.9525 4.68849 70.0749 4.39343 70.2925 4.17582C70.5101 3.95821 70.8052 3.83582 71.1129 3.83552Z" fill="#5A859D"/>
<path d="M28.8665 0.320801C28.5604 0.320801 28.2612 0.411567 28.0067 0.581622C27.7522 0.751676 27.5538 0.993382 27.4367 1.27617C27.3195 1.55896 27.2889 1.87014 27.3486 2.17035C27.4083 2.47055 27.5557 2.74631 27.7721 2.96275C27.9886 3.17919 28.2643 3.32659 28.5645 3.3863C28.8648 3.44602 29.1759 3.41537 29.4587 3.29823C29.7415 3.1811 29.9832 2.98274 30.1533 2.72823C30.3233 2.47373 30.4141 2.17451 30.4141 1.86842C30.4136 1.45811 30.2504 1.06474 29.9603 0.774606C29.6701 0.484473 29.2768 0.32127 28.8665 0.320801ZM28.8665 2.64223C28.7134 2.64223 28.5638 2.59685 28.4366 2.51182C28.3093 2.42679 28.2101 2.30594 28.1516 2.16454C28.093 2.02315 28.0777 1.86756 28.1075 1.71746C28.1374 1.56735 28.2111 1.42947 28.3193 1.32125C28.4275 1.21303 28.5654 1.13934 28.7155 1.10948C28.8656 1.07962 29.0212 1.09495 29.1626 1.15351C29.304 1.21208 29.4248 1.31126 29.5099 1.43851C29.5949 1.56577 29.6403 1.71537 29.6403 1.86842C29.6401 2.07358 29.5585 2.27029 29.4134 2.41536C29.2683 2.56043 29.0716 2.64202 28.8665 2.64223Z" fill="#5A859D"/>
<path d="M106.593 4.96582C106.287 4.96582 105.988 5.05659 105.733 5.22664C105.479 5.3967 105.28 5.6384 105.163 5.92119C105.046 6.20398 105.015 6.51516 105.075 6.81536C105.135 7.11557 105.282 7.39133 105.499 7.60777C105.715 7.82421 105.991 7.97161 106.291 8.03132C106.591 8.09104 106.902 8.06039 107.185 7.94325C107.468 7.82612 107.71 7.62775 107.88 7.37325C108.05 7.11875 108.141 6.81953 108.141 6.51344C108.14 6.10313 107.977 5.70976 107.687 5.41963C107.397 5.12949 107.003 4.96629 106.593 4.96582ZM106.593 7.28725C106.44 7.28725 106.29 7.24187 106.163 7.15684C106.036 7.07181 105.937 6.95096 105.878 6.80956C105.82 6.66817 105.804 6.51258 105.834 6.36248C105.864 6.21237 105.938 6.07449 106.046 5.96627C106.154 5.85805 106.292 5.78436 106.442 5.7545C106.592 5.72464 106.748 5.73996 106.889 5.79853C107.031 5.8571 107.151 5.95628 107.236 6.08353C107.321 6.21079 107.367 6.36039 107.367 6.51344C107.367 6.7186 107.285 6.91531 107.14 7.06038C106.995 7.20545 106.798 7.28704 106.593 7.28725Z" fill="#5A859D"/>
<path d="M101.131 25.8296C100.825 25.8296 100.526 25.9204 100.271 26.0904C100.017 26.2605 99.8184 26.5022 99.7013 26.785C99.5842 27.0678 99.5535 27.3789 99.6132 27.6791C99.6729 27.9793 99.8203 28.2551 100.037 28.4715C100.253 28.688 100.529 28.8354 100.829 28.8951C101.129 28.9548 101.441 28.9242 101.723 28.807C102.006 28.6899 102.248 28.4915 102.418 28.237C102.588 27.9825 102.679 27.6833 102.679 27.3772C102.678 26.9669 102.515 26.5735 102.225 26.2834C101.935 25.9933 101.541 25.8301 101.131 25.8296ZM101.131 28.151C100.978 28.151 100.828 28.1056 100.701 28.0206C100.574 27.9356 100.475 27.8147 100.416 27.6733C100.358 27.5319 100.342 27.3764 100.372 27.2262C100.402 27.0761 100.476 26.9383 100.584 26.83C100.692 26.7218 100.83 26.6481 100.98 26.6183C101.13 26.5884 101.286 26.6037 101.427 26.6623C101.569 26.7209 101.689 26.8201 101.775 26.9473C101.86 27.0746 101.905 27.2242 101.905 27.3772C101.905 27.5824 101.823 27.7791 101.678 27.9241C101.533 28.0692 101.336 28.1508 101.131 28.151Z" fill="#5A859D"/>
<path d="M14.71 39.3049C14.71 38.9989 14.6192 38.6996 14.4492 38.4451C14.2791 38.1906 14.0374 37.9923 13.7546 37.8751C13.4718 37.758 13.1606 37.7273 12.8604 37.7871C12.5602 37.8468 12.2845 37.9942 12.068 38.2106C11.8516 38.427 11.7042 38.7028 11.6445 39.003C11.5848 39.3032 11.6154 39.6144 11.7326 39.8972C11.8497 40.18 12.048 40.4217 12.3026 40.5917C12.5571 40.7618 12.8563 40.8526 13.1624 40.8526C13.5727 40.8521 13.966 40.6889 14.2562 40.3988C14.5463 40.1086 14.7095 39.7153 14.71 39.3049ZM12.3886 39.3049C12.3886 39.1519 12.4339 39.0023 12.519 38.875C12.604 38.7478 12.7248 38.6486 12.8662 38.59C13.0076 38.5315 13.1632 38.5161 13.3133 38.546C13.4634 38.5759 13.6013 38.6496 13.7095 38.7578C13.8178 38.866 13.8914 39.0039 13.9213 39.154C13.9512 39.3041 13.9358 39.4597 13.8773 39.6011C13.8187 39.7425 13.7195 39.8633 13.5923 39.9483C13.465 40.0334 13.3154 40.0788 13.1624 40.0788C12.9572 40.0785 12.7605 39.997 12.6154 39.8519C12.4704 39.7068 12.3888 39.5101 12.3886 39.3049Z" fill="#5A859D"/>
<path d="M31.7852 24.8717L32.9359 23.3582L32.2093 22.9473L31.4703 24.6419H31.4463L30.6957 22.9589L29.9567 23.3829L31.095 24.8601V24.8841L29.3145 24.6535V25.4768L31.1066 25.247V25.2718L29.9567 26.7482L30.6462 27.1846L31.4339 25.4768H31.4579L32.1845 27.1723L32.9475 26.7366L31.7852 25.2834V25.2594L33.613 25.4768V24.6535L31.7852 24.8957V24.8717Z" fill="#B4EDFF"/>
<path d="M11.6651 15.7298L11.0027 16.5802L11.3997 16.8317L11.8531 15.8482H11.867L12.2857 16.8247L12.7244 16.5733L12.0558 15.7368V15.7228L13.1082 15.8482V15.3746L12.0558 15.5139V15.5L12.7182 14.6287L12.2996 14.3911L11.874 15.3669H11.8601L11.4283 14.3981L11.0027 14.6426L11.6581 15.493V15.5069L10.6328 15.3746V15.8482L11.6651 15.7159V15.7298Z" fill="#B4EDFF"/>
<path d="M117.809 35.6037V34.7958L116.016 35.0334V35.0094L117.145 33.5252L116.432 33.1221L115.708 34.7842H115.684L114.948 33.1337L114.223 33.5492L115.339 34.9978V35.0218L113.593 34.7958V35.6037L115.351 35.3785V35.4017L114.223 36.8503L114.899 37.2782L115.672 35.6037H115.695L116.408 37.2658L117.156 36.8387L116.016 35.4133V35.3901L117.809 35.6037Z" fill="#B4EDFF"/>
<path d="M126.993 14.5698L127.967 13.2891L127.352 12.9409L126.728 14.3748H126.707L126.072 12.951L125.447 13.31L126.41 14.5597V14.5798L124.903 14.3856V15.082L126.42 14.8878V14.9079L125.447 16.1576L126.03 16.5268L126.697 15.082H126.717L127.332 16.5159L127.977 16.1476L126.993 14.918V14.8979L128.54 15.082V14.3856L126.993 14.5899V14.5698Z" fill="#B4EDFF"/>
<path d="M2.04762 120.845C2.90235 120.845 3.59524 120.152 3.59524 119.298C3.59524 118.443 2.90235 117.75 2.04762 117.75C1.19289 117.75 0.5 118.443 0.5 119.298C0.5 120.152 1.19289 120.845 2.04762 120.845Z" fill="#5A859D"/>
<path d="M9.01187 117.75H6.69044C6.27999 117.75 5.88634 117.914 5.59611 118.204C5.30587 118.494 5.14282 118.888 5.14282 119.298C5.14282 119.709 5.30587 120.102 5.59611 120.392C5.88634 120.683 6.27999 120.846 6.69044 120.846H9.01187C9.42232 120.846 9.81597 120.683 10.1062 120.392C10.3964 120.102 10.5595 119.709 10.5595 119.298C10.5595 118.888 10.3964 118.494 10.1062 118.204C9.81597 117.914 9.42232 117.75 9.01187 117.75Z" fill="#5A859D"/>
<path d="M124.309 117.75H121.988C121.578 117.75 121.184 117.914 120.894 118.204C120.603 118.494 120.44 118.888 120.44 119.298C120.44 119.709 120.603 120.102 120.894 120.392C121.184 120.683 121.578 120.846 121.988 120.846H124.309C124.72 120.846 125.114 120.683 125.404 120.392C125.694 120.102 125.857 119.709 125.857 119.298C125.857 118.888 125.694 118.494 125.404 118.204C125.114 117.914 124.72 117.75 124.309 117.75Z" fill="#5A859D"/>
<path d="M128.952 120.845C129.807 120.845 130.5 120.152 130.5 119.298C130.5 118.443 129.807 117.75 128.952 117.75C128.098 117.75 127.405 118.443 127.405 119.298C127.405 120.152 128.098 120.845 128.952 120.845Z" fill="#5A859D"/>
<path d="M95.9285 123.941H89.4999C89.1108 123.972 88.7478 124.149 88.483 124.435C88.2183 124.722 88.0713 125.098 88.0713 125.489C88.0713 125.879 88.2183 126.255 88.483 126.542C88.7478 126.828 89.1108 127.005 89.4999 127.036H95.9285C96.3175 127.005 96.6806 126.828 96.9453 126.542C97.21 126.255 97.3571 125.879 97.3571 125.489C97.3571 125.098 97.21 124.722 96.9453 124.435C96.6806 124.149 96.3175 123.972 95.9285 123.941Z" fill="#B4EDFF"/>
<path d="M41.4998 123.941H35.0712C34.6821 123.972 34.3191 124.149 34.0543 124.435C33.7896 124.722 33.6426 125.098 33.6426 125.489C33.6426 125.879 33.7896 126.255 34.0543 126.542C34.3191 126.828 34.6821 127.005 35.0712 127.036H41.4998C41.8888 127.005 42.2519 126.828 42.5166 126.542C42.7813 126.255 42.9283 125.879 42.9283 125.489C42.9283 125.098 42.7813 124.722 42.5166 124.435C42.2519 124.149 41.8888 123.972 41.4998 123.941Z" fill="#B4EDFF"/>
<path d="M80.9761 123.941H50.0237C49.6132 123.941 49.2196 124.104 48.9294 124.394C48.6391 124.684 48.4761 125.078 48.4761 125.489C48.4761 125.899 48.6391 126.293 48.9294 126.583C49.2196 126.873 49.6132 127.036 50.0237 127.036H62.3582V128.584H56.2142C55.8037 128.584 55.4101 128.747 55.1198 129.037C54.8296 129.327 54.6666 129.721 54.6666 130.131C54.6666 130.542 54.8296 130.935 55.1198 131.226C55.4101 131.516 55.8037 131.679 56.2142 131.679H75.5594C75.9699 131.679 76.3635 131.516 76.6537 131.226C76.944 130.935 77.107 130.542 77.107 130.131C77.107 129.721 76.944 129.327 76.6537 129.037C76.3635 128.747 75.9699 128.584 75.5594 128.584H68.6415V127.036H80.9761C81.3865 127.036 81.7802 126.873 82.0704 126.583C82.3606 126.293 82.5237 125.899 82.5237 125.489C82.5237 125.078 82.3606 124.684 82.0704 124.394C81.7802 124.104 81.3865 123.941 80.9761 123.941Z" fill="#B4EDFF"/>
<path d="M117.13 117.75H98.7738V114.655H105.738C106.969 114.654 108.149 114.164 109.02 113.294C109.89 112.423 110.38 111.243 110.381 110.012V55.8455C110.38 54.6146 109.89 53.4344 109.02 52.564C108.149 51.6936 106.969 51.204 105.738 51.2027H98.7738V48.1074C98.7729 47.2868 98.4465 46.5 97.8663 45.9198C97.286 45.3395 96.4992 45.0131 95.6786 45.0122H88.7143V48.1074H95.6786V51.2027H88.7143V54.2979H105.738C106.148 54.2984 106.542 54.4616 106.832 54.7517C107.122 55.0419 107.285 55.4352 107.286 55.8455V110.012C107.285 110.423 107.122 110.816 106.832 111.106C106.542 111.396 106.148 111.559 105.738 111.56H25.2619C24.8516 111.559 24.4582 111.396 24.1681 111.106C23.878 110.816 23.7147 110.423 23.7143 110.012V55.8455C23.7147 55.4352 23.878 55.0419 24.1681 54.7517C24.4582 54.4616 24.8516 54.2984 25.2619 54.2979H42.2857V51.2027H35.3214V48.1074H42.2857V45.0122H35.3214C34.5008 45.0131 33.714 45.3395 33.1337 45.9198C32.5534 46.5 32.2271 47.2868 32.2262 48.1074V51.2027H25.2619C24.0309 51.204 22.8508 51.6936 21.9804 52.564C21.11 53.4344 20.6204 54.6146 20.619 55.8455V110.012C20.6204 111.243 21.11 112.423 21.9804 113.294C22.8508 114.164 24.0309 114.654 25.2619 114.655H32.2262V117.75H13.8704C13.6502 117.722 13.4265 117.74 13.214 117.805C13.0016 117.869 12.8054 117.978 12.6385 118.125C12.4717 118.271 12.338 118.452 12.2464 118.654C12.1548 118.856 12.1074 119.076 12.1074 119.298C12.1074 119.52 12.1548 119.739 12.2464 119.942C12.338 120.144 12.4717 120.324 12.6385 120.471C12.8054 120.617 13.0016 120.727 13.214 120.791C13.4265 120.856 13.6502 120.874 13.8704 120.846H117.13C117.35 120.874 117.574 120.856 117.786 120.791C117.998 120.727 118.195 120.617 118.361 120.471C118.528 120.324 118.662 120.144 118.754 119.942C118.845 119.739 118.893 119.52 118.893 119.298C118.893 119.076 118.845 118.856 118.754 118.654C118.662 118.452 118.528 118.271 118.361 118.125C118.195 117.978 117.998 117.869 117.786 117.805C117.574 117.74 117.35 117.722 117.13 117.75ZM35.3214 117.75V114.655H95.6793L95.6809 117.75H35.3214Z" fill="#5A859D"/>
</svg>
