<svg width="131" height="130" viewBox="0 0 131 130" fill="none" xmlns="http://www.w3.org/2000/svg">
<g clip-path="url(#clip0_2067_2131)">
<path d="M45.317 50.3354C44.9479 50.3409 44.594 50.4838 44.3245 50.7361C44.055 50.9884 43.8891 51.332 43.8591 51.6999C43.7361 57.2045 44.4013 62.6984 45.8343 68.0145C48.9621 79.5242 55.8376 87.4478 64.9976 90.9299C65.2862 91.0388 65.6014 91.0557 65.9 90.9783C66.1197 90.9212 70.9706 89.5111 76.2592 83.9909C81.056 78.9831 86.842 69.4586 87.1668 52.5221C87.1716 52.1672 87.0465 51.8227 86.8151 51.5536C86.5837 51.2844 86.2619 51.1091 85.9103 51.0606C85.7811 51.0417 72.9169 49.1231 66.6179 41.999C66.4809 41.8492 66.3149 41.7288 66.1301 41.6451C65.9452 41.5614 65.7452 41.5162 65.5423 41.512C65.3394 41.5079 65.1378 41.545 64.9496 41.6211C64.7615 41.6972 64.5908 41.8108 64.4478 41.9548C64.3671 42.0387 56.2571 50.3392 46.1735 50.3392C45.8864 50.3392 45.5978 50.3163 45.317 50.3354ZM65.4589 45.254C71.3397 50.8835 80.4983 53.1657 84.0316 53.8685C83.4499 68.9235 78.3077 77.3777 74.0242 81.8496C71.6645 84.4261 68.7776 86.4642 65.5599 87.8252C57.482 84.5407 51.5491 77.2408 48.8212 67.2027C47.6281 62.7039 46.9941 58.0751 46.9337 53.4212C55.6609 53.1185 62.716 47.6915 65.4589 45.254Z" fill="#3A576A"/>
<path d="M64.2622 27.7292C64.4064 27.9214 64.5932 28.0773 64.8081 28.1848C65.0229 28.2922 65.2598 28.3481 65.5 28.3481C65.7402 28.3481 65.9771 28.2922 66.192 28.1848C66.4068 28.0773 66.5937 27.9214 66.7378 27.7292L69.0593 24.634C69.2734 24.3488 69.3825 23.9984 69.368 23.642C69.3535 23.2857 69.2163 22.9453 68.9797 22.6784C68.743 22.4116 68.4215 22.2347 68.0694 22.1777C67.7173 22.1207 67.3564 22.1871 67.0477 22.3657V18.2886C67.0477 17.8781 66.8846 17.4845 66.5944 17.1943C66.3041 16.904 65.9105 16.741 65.5 16.741C65.0896 16.741 64.6959 16.904 64.4057 17.1943C64.1155 17.4845 63.9524 17.8781 63.9524 18.2886V22.3654C63.6436 22.1869 63.2827 22.1206 62.9306 22.1776C62.5786 22.2347 62.2571 22.4116 62.0204 22.6784C61.7838 22.9453 61.6467 23.2857 61.6321 23.642C61.6176 23.9984 61.7267 24.3488 61.9408 24.634L64.2622 27.7292Z" fill="#3A576A"/>
<path d="M113.477 64.7172H109.4C109.578 64.4083 109.645 64.0474 109.587 63.6954C109.53 63.3435 109.353 63.022 109.086 62.7855C108.82 62.5489 108.479 62.4117 108.123 62.3971C107.767 62.3824 107.416 62.4913 107.131 62.7052L104.036 65.0266C103.844 65.1708 103.688 65.3578 103.58 65.5727C103.473 65.7876 103.417 66.0245 103.417 66.2648C103.417 66.505 103.473 66.742 103.58 66.9569C103.688 67.1718 103.844 67.3588 104.036 67.503L107.131 69.8244C107.416 70.0383 107.767 70.1471 108.123 70.1325C108.479 70.1179 108.82 69.9807 109.086 69.7441C109.353 69.5075 109.53 69.1861 109.587 68.8341C109.645 68.4821 109.578 68.1212 109.4 67.8124H113.477C113.887 67.8124 114.281 67.6493 114.571 67.3591C114.861 67.0689 115.024 66.6752 115.024 66.2648C115.024 65.8543 114.861 65.4607 114.571 65.1704C114.281 64.8802 113.887 64.7172 113.477 64.7172Z" fill="#3A576A"/>
<path d="M26.9648 65.0266L23.8696 62.7052C23.5843 62.4913 23.2339 62.3824 22.8776 62.3971C22.5213 62.4117 22.181 62.5489 21.9142 62.7855C21.6474 63.022 21.4705 63.3435 21.4133 63.6954C21.3562 64.0474 21.4223 64.4083 21.6006 64.7172H17.5242C17.1137 64.7172 16.7201 64.8802 16.4298 65.1704C16.1396 65.4607 15.9766 65.8543 15.9766 66.2648C15.9766 66.6752 16.1396 67.0689 16.4298 67.3591C16.7201 67.6493 17.1137 67.8124 17.5242 67.8124H21.6006C21.4223 68.1212 21.3562 68.4821 21.4133 68.8341C21.4705 69.1861 21.6474 69.5075 21.9142 69.7441C22.181 69.9807 22.5213 70.1179 22.8776 70.1325C23.2339 70.1472 23.5843 70.0383 23.8696 69.8244L26.9648 67.503C27.157 67.3588 27.3129 67.1718 27.4204 66.9569C27.5278 66.742 27.5837 66.505 27.5837 66.2648C27.5837 66.0245 27.5278 65.7876 27.4204 65.5727C27.3129 65.3578 27.157 65.1708 26.9648 65.0266Z" fill="#3A576A"/>
<path d="M97.6354 96.2117C97.9798 96.1195 98.2819 95.9112 98.4904 95.6221C98.699 95.3329 98.8013 94.9806 98.78 94.6246C98.7588 94.2687 98.6153 93.9311 98.3737 93.6688C98.1322 93.4065 97.8076 93.2357 97.4546 93.1852L93.6248 92.6381C93.387 92.6041 93.1445 92.626 92.9166 92.702C92.6887 92.778 92.4816 92.906 92.3117 93.0758C92.1418 93.2457 92.0138 93.4528 91.9378 93.6808C91.8618 93.9087 91.84 94.1512 91.8739 94.389L92.421 98.2191C92.4736 98.5875 92.6572 98.9247 92.9381 99.1688C93.219 99.4129 93.5784 99.5476 93.9505 99.5484C94.0246 99.5483 94.0986 99.543 94.1719 99.5325C94.472 99.4895 94.7529 99.3593 94.9796 99.158C95.2063 98.9568 95.369 98.6934 95.4473 98.4005L98.3304 101.283C98.6209 101.572 99.0141 101.734 99.4237 101.734C99.8334 101.733 100.226 101.57 100.516 101.28C100.806 100.991 100.969 100.598 100.969 100.188C100.97 99.7786 100.808 99.3854 100.519 99.095L97.6354 96.2117Z" fill="#B4EDFF"/>
<path d="M33.3641 36.317C33.0198 36.4095 32.7179 36.6179 32.5095 36.9072C32.3011 37.1965 32.1989 37.5488 32.2203 37.9047C32.2416 38.2606 32.3852 38.5982 32.6266 38.8604C32.8681 39.1227 33.1927 39.2936 33.5457 39.3442L37.3754 39.8913C37.448 39.9015 37.5212 39.9067 37.5945 39.9068C37.8162 39.9068 38.0354 39.8591 38.237 39.767C38.4387 39.675 38.6182 39.5406 38.7635 39.3732C38.9087 39.2057 39.0163 39.0089 39.0789 38.7962C39.1415 38.5835 39.1577 38.3599 39.1263 38.1404L38.5792 34.3103C38.5289 33.9573 38.3582 33.6324 38.096 33.3908C37.8338 33.1491 37.4961 33.0055 37.1401 32.9841C36.7842 32.9628 36.4318 33.0651 36.1425 33.2737C35.8533 33.4823 35.645 33.7844 35.5529 34.1289L32.6699 31.2461C32.3795 30.9568 31.9862 30.7945 31.5763 30.7949C31.1664 30.7953 30.7734 30.9583 30.4835 31.2482C30.1937 31.538 30.0307 31.931 30.0303 32.3409C30.0299 32.7508 30.1921 33.1441 30.4814 33.4345L33.3641 36.317Z" fill="#B4EDFF"/>
<path d="M37.3749 92.6381L33.5452 93.1852C33.1923 93.2358 32.8676 93.4067 32.6262 93.669C32.3847 93.9313 32.2412 94.2689 32.2198 94.6248C32.1985 94.9807 32.3006 95.333 32.5091 95.6223C32.7175 95.9116 33.0193 96.12 33.3637 96.2124L30.4809 99.095C30.3372 99.2386 30.2231 99.4092 30.1453 99.597C30.0674 99.7847 30.0274 99.986 30.0273 100.189C30.0273 100.393 30.0673 100.594 30.1451 100.782C30.2229 100.969 30.3369 101.14 30.4806 101.284C30.6243 101.427 30.7949 101.541 30.9827 101.619C31.1705 101.697 31.3718 101.737 31.575 101.737C31.7783 101.737 31.9796 101.697 32.1673 101.619C32.3551 101.541 32.5257 101.427 32.6694 101.283L35.5524 98.4005C35.6308 98.6934 35.7934 98.9568 36.0202 99.158C36.2469 99.3593 36.5277 99.4895 36.8278 99.5325C36.9012 99.543 36.9752 99.5483 37.0492 99.5484C37.4214 99.5478 37.7809 99.4131 38.0618 99.1689C38.3427 98.9248 38.5263 98.5876 38.5788 98.2191L39.1258 94.389C39.1598 94.1512 39.1379 93.9087 39.062 93.6808C38.986 93.4528 38.858 93.2457 38.6881 93.0758C38.5182 92.906 38.3111 92.778 38.0832 92.702C37.8553 92.626 37.6128 92.6041 37.3749 92.6381Z" fill="#B4EDFF"/>
<path d="M98.3304 31.2462L95.4473 34.129C95.3552 33.7845 95.147 33.4824 94.8577 33.2738C94.5685 33.0652 94.2161 32.9629 93.8601 32.9842C93.5042 33.0056 93.1665 33.1492 92.9042 33.3909C92.642 33.6325 92.4713 33.9574 92.421 34.3104L91.874 38.1406C91.8426 38.36 91.8588 38.5837 91.9214 38.7964C91.9839 39.009 92.0915 39.2058 92.2368 39.3733C92.382 39.5408 92.5615 39.6751 92.7632 39.7672C92.9649 39.8593 93.184 39.9069 93.4057 39.9069C93.479 39.9068 93.5523 39.9017 93.6249 39.8915L97.4546 39.3444C97.8076 39.2939 98.1323 39.1231 98.3738 38.8608C98.6153 38.5985 98.7588 38.2608 98.7801 37.9049C98.8013 37.549 98.699 37.1967 98.4904 36.9075C98.2818 36.6183 97.9798 36.4101 97.6353 36.318L100.519 33.4346C100.808 33.1442 100.97 32.751 100.969 32.3413C100.969 31.9316 100.806 31.5388 100.516 31.2491C100.226 30.9594 99.8335 30.7964 99.4238 30.7959C99.0141 30.7954 98.6209 30.9573 98.3304 31.2462Z" fill="#B4EDFF"/>
<path d="M31.6613 58.0079C31.5652 58.4061 31.6311 58.8262 31.8445 59.1759C32.0579 59.5255 32.4013 59.7762 32.7993 59.8729C32.9206 59.9037 33.0452 59.9193 33.1704 59.9194C33.4614 59.9191 33.7464 59.8369 33.9929 59.6822C34.2394 59.5274 34.4373 59.3065 34.5641 59.0445C34.6909 58.7826 34.7413 58.4902 34.7097 58.2009C34.6781 57.9117 34.5657 57.6371 34.3854 57.4087C34.2051 57.1803 33.9641 57.0072 33.6901 56.9094C33.416 56.8115 33.1199 56.7928 32.8357 56.8553C32.5515 56.9178 32.2906 57.0591 32.0829 57.2629C31.8752 57.4668 31.7291 57.7249 31.6613 58.0079Z" fill="#3A576A"/>
<path d="M88.466 43.7389C88.8277 43.7411 89.1788 43.6173 89.4591 43.3886C89.7393 43.16 89.9311 42.8408 90.0015 42.486C90.0718 42.1313 90.0164 41.7631 89.8447 41.4448C89.673 41.1264 89.3957 40.8779 89.0606 40.7419C88.7255 40.6059 88.3534 40.5909 88.0084 40.6995C87.6635 40.8081 87.3671 41.0335 87.1703 41.337C86.9735 41.6404 86.8886 42.003 86.9302 42.3622C86.9718 42.7215 87.1373 43.0551 87.3982 43.3055C87.6849 43.5825 88.0675 43.7378 88.466 43.7389Z" fill="#B4EDFF"/>
<path d="M33.4253 52.6843C33.306 52.9659 33.2728 53.2765 33.33 53.5769C33.3872 53.8774 33.5323 54.1541 33.7467 54.3721C33.9612 54.5901 34.2355 54.7396 34.535 54.8017C34.8344 54.8639 35.1456 54.8358 35.4291 54.7211C35.7126 54.6064 35.9557 54.4102 36.1277 54.1574C36.2997 53.9045 36.3929 53.6063 36.3954 53.3005C36.3979 52.9947 36.3097 52.695 36.142 52.4393C35.9742 52.1836 35.7343 51.9834 35.4528 51.864C35.2658 51.7843 35.065 51.7424 34.8618 51.7405C34.6586 51.7387 34.4571 51.777 34.2687 51.8532C34.0804 51.9294 33.9089 52.042 33.7642 52.1846C33.6194 52.3273 33.5043 52.497 33.4253 52.6843Z" fill="#B4EDFF"/>
<path d="M83.4368 40.0866C83.6927 40.2671 83.998 40.3643 84.3111 40.3651C84.5623 40.3635 84.8095 40.3015 85.0318 40.1843C85.2541 40.0671 85.4449 39.8982 85.5882 39.6918C85.7628 39.4396 85.8587 39.1413 85.8637 38.8346C85.8687 38.5279 85.7826 38.2266 85.6162 37.9689C85.4498 37.7112 85.2107 37.5087 84.9292 37.387C84.6476 37.2653 84.3363 37.2299 84.0346 37.2852C83.7329 37.3406 83.4544 37.4843 83.2344 37.698C83.0144 37.9118 82.8628 38.186 82.7988 38.486C82.7348 38.786 82.7612 39.0982 82.8748 39.3832C82.9884 39.6681 83.1839 39.9129 83.4368 40.0866Z" fill="#3A576A"/>
<path d="M36.5054 49.8522C36.7526 50.0096 37.0398 50.0927 37.3328 50.0917C37.7055 50.0916 38.0656 49.957 38.3469 49.7126C38.6283 49.4682 38.812 49.1305 38.8642 48.7615C38.9165 48.3926 38.8339 48.0171 38.6315 47.7042C38.4291 47.3913 38.1205 47.162 37.7626 47.0583C37.4046 46.9547 37.0213 46.9838 36.683 47.1402C36.3448 47.2965 36.0744 47.5698 35.9214 47.9096C35.7685 48.2494 35.7434 48.633 35.8507 48.9899C35.9579 49.3468 36.1904 49.653 36.5054 49.8522Z" fill="#3A576A"/>
<path d="M32.3338 70.5517H32.4653C32.8885 70.5345 33.288 70.3521 33.5782 70.0436C33.8684 69.7352 34.0261 69.3253 34.0175 68.9018C34.0089 68.4784 33.8347 68.0752 33.5322 67.7788C33.2297 67.4824 32.8231 67.3164 32.3996 67.3164C31.9761 67.3164 31.5694 67.4824 31.2669 67.7788C30.9644 68.0752 30.7902 68.4784 30.7816 68.9018C30.773 69.3253 30.9307 69.7352 31.2209 70.0436C31.5111 70.3521 31.9107 70.5345 32.3338 70.5517Z" fill="#B4EDFF"/>
<path d="M53.6139 36.728C53.9444 36.7282 54.2662 36.6226 54.5324 36.4268C54.7986 36.231 54.9952 35.9552 55.0935 35.6397C55.1918 35.3243 55.1866 34.9856 55.0787 34.6733C54.9709 34.3609 54.7659 34.0913 54.4939 33.9037C54.2219 33.7161 53.897 33.6204 53.5667 33.6306C53.2364 33.6408 52.918 33.7564 52.6581 33.9604C52.3981 34.1644 52.2103 34.4462 52.1219 34.7646C52.0335 35.083 52.0492 35.4214 52.1668 35.7302C52.2775 36.0242 52.4755 36.2773 52.7341 36.4557C52.9928 36.634 53.2998 36.7291 53.6139 36.728Z" fill="#3A576A"/>
<path d="M30.7864 63.5401C30.7698 63.742 30.7933 63.9452 30.8556 64.138C30.9178 64.3308 31.0177 64.5094 31.1493 64.6634C31.281 64.8174 31.4418 64.9438 31.6226 65.0353C31.8033 65.1268 32.0004 65.1816 32.2024 65.1966C32.2434 65.2029 32.2849 65.2056 32.3264 65.2045C32.7151 65.2046 33.0897 65.0581 33.3751 64.7942C33.6606 64.5303 33.836 64.1684 33.8664 63.7808V63.7729C33.8826 63.5702 33.8586 63.3662 33.7958 63.1728C33.733 62.9794 33.6326 62.8003 33.5004 62.6458C33.3681 62.4912 33.2067 62.3643 33.0253 62.2724C32.8439 62.1804 32.6461 62.1252 32.4433 62.1099C32.2405 62.0945 32.0367 62.1194 31.8436 62.1831C31.6504 62.2467 31.4717 62.3479 31.3178 62.4808C31.1638 62.6137 31.0376 62.7757 30.9465 62.9575C30.8553 63.1392 30.8009 63.3372 30.7864 63.5401Z" fill="#3A576A"/>
<path d="M58.7445 35.227C58.8508 35.224 58.9569 35.2136 59.0618 35.196C59.4631 35.1102 59.8142 34.8694 60.0388 34.526C60.2634 34.1826 60.3433 33.7644 60.2611 33.3624C60.2014 33.0758 60.0617 32.812 59.8581 32.6016C59.6546 32.3912 59.3956 32.2428 59.1112 32.1736C58.8267 32.1043 58.5285 32.1172 58.251 32.2105C57.9736 32.3039 57.7283 32.474 57.5435 32.7011C57.3588 32.9282 57.2422 33.203 57.2073 33.4937C57.1724 33.7843 57.2206 34.0789 57.3463 34.3433C57.472 34.6077 57.6701 34.831 57.9175 34.9874C58.165 35.1438 58.4517 35.2269 58.7445 35.227Z" fill="#B4EDFF"/>
<path d="M79.0105 37.5485C79.2157 37.6466 79.4405 37.6968 79.6679 37.6954C80.049 37.6957 80.4169 37.5552 80.7009 37.3011C80.9849 37.0469 81.1651 36.6969 81.207 36.3181C81.249 35.9392 81.1497 35.5583 80.9281 35.2481C80.7066 34.938 80.3784 34.7205 80.0064 34.6374C79.6345 34.5542 79.2449 34.6112 78.9124 34.7975C78.5799 34.9838 78.3278 35.2862 78.2044 35.6468C78.081 36.0074 78.0951 36.4008 78.2438 36.7518C78.3926 37.1027 78.6655 37.3864 79.0105 37.5485Z" fill="#3A576A"/>
<path d="M63.9909 31.4742C63.5866 31.4923 63.2055 31.668 62.9291 31.9636C62.6527 32.2592 62.503 32.6512 62.5121 33.0558C62.5212 33.4604 62.6883 33.8454 62.9777 34.1283C63.2671 34.4112 63.6557 34.5695 64.0604 34.5695H64.1224C64.326 34.5613 64.5259 34.5131 64.7109 34.4276C64.8958 34.342 65.062 34.2208 65.2 34.0709C65.338 33.9211 65.4451 33.7454 65.5152 33.5541C65.5852 33.3628 65.6168 33.1595 65.6081 32.9559C65.5995 32.7524 65.5508 32.5525 65.4648 32.3678C65.3788 32.1831 65.2572 32.0172 65.1069 31.8795C64.9567 31.7419 64.7808 31.6353 64.5893 31.5657C64.3978 31.4962 64.1944 31.4651 63.9909 31.4742Z" fill="#3A576A"/>
<path d="M48.7851 39.0343C49.0595 39.0337 49.3291 38.9617 49.5673 38.8254C49.8321 38.6708 50.0451 38.4412 50.1795 38.1655C50.3138 37.8899 50.3633 37.5806 50.3219 37.2767C50.2804 36.9729 50.1498 36.6882 49.9465 36.4586C49.7432 36.2291 49.4764 36.0649 49.1798 35.987C48.8833 35.909 48.5702 35.9208 48.2803 36.0207C47.9904 36.1207 47.7367 36.3044 47.5512 36.5485C47.3657 36.7927 47.2568 37.0864 47.2382 37.3925C47.2196 37.6986 47.2922 38.0033 47.4468 38.2681C47.5827 38.5023 47.778 38.6966 48.013 38.8311C48.248 38.9657 48.5143 39.0358 48.7851 39.0343Z" fill="#3A576A"/>
<path d="M67.8678 33.0375C67.8443 33.2397 67.8609 33.4446 67.9166 33.6404C67.9723 33.8362 68.0661 34.0191 68.1926 34.1786C68.3191 34.3381 68.4757 34.4711 68.6537 34.5701C68.8316 34.669 69.0273 34.7319 69.2295 34.7551C69.2887 34.7617 69.3483 34.7644 69.4079 34.7631C69.7056 34.762 69.9967 34.675 70.2461 34.5125C70.4956 34.35 70.6928 34.1189 70.814 33.847C70.9353 33.575 70.9754 33.2739 70.9295 32.9797C70.8836 32.6855 70.7538 32.4109 70.5555 32.1887C70.3573 31.9666 70.0991 31.8065 69.812 31.7276C69.5249 31.6487 69.2212 31.6544 68.9373 31.7441C68.6533 31.8337 68.4014 32.0035 68.2116 32.2329C68.0219 32.4624 67.9025 32.7418 67.8678 33.0375Z" fill="#3A576A"/>
<path d="M39.5156 45.4184C39.7986 45.6709 40.1656 45.8089 40.5449 45.8053C40.9058 45.8037 41.2547 45.6756 41.531 45.4434C41.8073 45.2112 41.9935 44.8895 42.0572 44.5342C42.1209 44.179 42.0582 43.8126 41.8798 43.4989C41.7015 43.1851 41.4188 42.9437 41.081 42.8167C40.7431 42.6897 40.3715 42.6851 40.0306 42.8037C39.6897 42.9223 39.4012 43.1566 39.2151 43.4658C39.029 43.7751 38.9572 44.1398 39.0121 44.4965C39.067 44.8532 39.2452 45.1794 39.5156 45.4184Z" fill="#3A576A"/>
<path d="M64.2536 97.9675C64.0501 97.9595 63.847 97.9916 63.6559 98.0621C63.4648 98.1327 63.2896 98.2402 63.1401 98.3786C62.9906 98.517 62.8699 98.6835 62.7849 98.8685C62.6999 99.0536 62.6522 99.2537 62.6446 99.4572C62.637 99.6607 62.6697 99.8638 62.7406 100.055C62.8116 100.246 62.9195 100.421 63.0583 100.57C63.197 100.719 63.3637 100.839 63.549 100.924C63.7343 101.008 63.9345 101.056 64.138 101.063H64.1917C64.597 101.063 64.9862 100.904 65.2757 100.62C65.5652 100.337 65.7319 99.9508 65.74 99.5455C65.7481 99.1403 65.597 98.748 65.3191 98.453C65.0412 98.1579 64.6586 97.9836 64.2536 97.9675Z" fill="#B4EDFF"/>
<path d="M74.2287 35.7533C74.3671 35.7928 74.5102 35.8136 74.6541 35.8153C75.0472 35.8175 75.4266 35.6706 75.7156 35.404C76.0046 35.1375 76.1818 34.7713 76.2113 34.3793C76.2408 33.9872 76.1205 33.5986 75.8747 33.2918C75.6289 32.985 75.2758 32.7828 74.8868 32.7262C74.4978 32.6695 74.1017 32.7625 73.7786 32.9865C73.4555 33.2104 73.2293 33.5486 73.1458 33.9328C73.0623 34.3169 73.1276 34.7185 73.3286 35.0564C73.5296 35.3943 73.8512 35.6433 74.2287 35.7533Z" fill="#B4EDFF"/>
<path d="M45.4653 90.8718C45.3083 90.7429 45.1275 90.6461 44.9331 90.5871C44.7388 90.5281 44.5347 90.508 44.3325 90.528C44.1304 90.548 43.9341 90.6076 43.7551 90.7035C43.576 90.7994 43.4176 90.9297 43.2889 91.0868C43.1602 91.244 43.0638 91.425 43.0052 91.6195C42.9466 91.814 42.9269 92.0182 42.9472 92.2203C42.9676 92.4224 43.0276 92.6185 43.1238 92.7974C43.2201 92.9763 43.3506 93.1344 43.5081 93.2628C43.7846 93.4905 44.1323 93.6138 44.4905 93.6112C44.8097 93.6126 45.1215 93.5148 45.3827 93.3314C45.644 93.1479 45.8418 92.8878 45.9488 92.5871C46.0559 92.2863 46.0668 91.9597 45.9802 91.6525C45.8936 91.3452 45.7136 91.0724 45.4653 90.8718Z" fill="#3A576A"/>
<path d="M97.0715 78.3438C97.46 78.3427 97.8339 78.1954 98.1187 77.9311C98.4035 77.6668 98.5784 77.305 98.6084 76.9176C98.6385 76.5302 98.5216 76.1457 98.2809 75.8407C98.0403 75.5356 97.6936 75.3323 97.3099 75.2714C96.9262 75.2104 96.5335 75.2961 96.2102 75.5116C95.8868 75.727 95.6565 76.0563 95.565 76.4339C95.4735 76.8115 95.5275 77.2098 95.7164 77.5493C95.9052 77.8889 96.215 78.1449 96.5841 78.2663C96.7413 78.3183 96.9059 78.3445 97.0715 78.3438Z" fill="#3A576A"/>
<path d="M94.2546 83.095C94.4768 83.2109 94.7235 83.2719 94.974 83.273C95.2491 83.2737 95.5194 83.2012 95.7572 83.063C95.995 82.9247 96.1917 82.7257 96.3271 82.4863C96.4626 82.2469 96.5319 81.9758 96.528 81.7008C96.5241 81.4257 96.447 81.1567 96.3048 80.9213C96.1625 80.6859 95.9602 80.4925 95.7186 80.3611C95.4769 80.2298 95.2047 80.165 94.9297 80.1736C94.6548 80.1822 94.3871 80.2638 94.1541 80.41C93.9212 80.5562 93.7313 80.7618 93.604 81.0056V80.998C93.5088 81.1784 93.4502 81.3758 93.4314 81.5788C93.4126 81.7819 93.4341 81.9867 93.4945 82.1814C93.5549 82.3762 93.6532 82.5571 93.7836 82.7139C93.914 82.8707 94.0741 83.0002 94.2546 83.095Z" fill="#3A576A"/>
<path d="M92.0336 47.7242C92.3815 47.7224 92.7186 47.6032 92.9902 47.3859C93.2619 47.1686 93.4522 46.866 93.5304 46.527C93.6086 46.188 93.57 45.8326 93.421 45.5183C93.2719 45.204 93.0211 44.9492 92.7091 44.7952C92.3972 44.6413 92.0424 44.5971 91.7023 44.67C91.3621 44.7428 91.0565 44.9284 90.835 45.1966C90.6135 45.4649 90.489 45.8 90.4818 46.1478C90.4745 46.4956 90.5849 46.8357 90.7951 47.1129C90.9397 47.3041 91.127 47.4589 91.342 47.5651C91.5571 47.6712 91.7939 47.7257 92.0336 47.7242Z" fill="#3A576A"/>
<path d="M99.8799 71.8438C99.9279 71.5419 99.8854 71.2325 99.7577 70.9546C99.63 70.6768 99.4229 70.443 99.1625 70.2828C98.9021 70.1226 98.6001 70.043 98.2946 70.0543C97.989 70.0655 97.6936 70.167 97.4457 70.3459C97.1978 70.5248 97.0084 70.7732 96.9015 71.0596C96.7945 71.3461 96.7748 71.6578 96.8448 71.9554C96.9149 72.253 97.0715 72.5232 97.2949 72.7319C97.5184 72.9406 97.7986 73.0785 98.1003 73.1281C98.1823 73.1407 98.2652 73.1459 98.3482 73.1436C98.7165 73.145 99.0732 73.0149 99.3541 72.7766C99.6349 72.5383 99.8214 72.2075 99.8799 71.8438Z" fill="#B4EDFF"/>
<path d="M87.4842 89.1386C87.2637 89.3534 87.1121 89.6291 87.0488 89.9303C86.9855 90.2316 87.0132 90.5449 87.1285 90.8304C87.2439 91.1159 87.4415 91.3605 87.6964 91.5333C87.9512 91.706 88.2517 91.799 88.5595 91.8004C88.813 91.8005 89.0627 91.7383 89.2865 91.6194C89.5104 91.5004 89.7016 91.3283 89.8434 91.1181C89.9852 90.908 90.0732 90.6663 90.0997 90.4141C90.1262 90.162 90.0905 89.9073 89.9955 89.6722C89.9006 89.4372 89.7493 89.229 89.5551 89.0661C89.3609 88.9031 89.1297 88.7904 88.8817 88.7377C88.6338 88.685 88.3767 88.694 88.133 88.7639C87.8893 88.8338 87.6665 88.9625 87.4842 89.1386Z" fill="#3A576A"/>
<path d="M93.3416 87.173C93.5252 86.9287 93.6322 86.6353 93.6491 86.3302C93.6659 86.025 93.5918 85.7216 93.4361 85.4586C93.2805 85.1955 93.0502 84.9846 92.7746 84.8525C92.499 84.7203 92.1904 84.6729 91.8878 84.7163C91.5853 84.7597 91.3024 84.8918 91.075 85.0961C90.8476 85.3003 90.6859 85.5674 90.6104 85.8636C90.5349 86.1598 90.5489 86.4717 90.6508 86.7599C90.7527 87.0481 90.9378 87.2995 91.1827 87.4825C91.3446 87.6044 91.5289 87.6931 91.7252 87.7435C91.9215 87.7939 92.1258 87.8051 92.3264 87.7763C92.527 87.7476 92.72 87.6795 92.8942 87.5759C93.0684 87.4724 93.2204 87.3355 93.3416 87.173Z" fill="#B4EDFF"/>
<path d="M100.322 66.1949V66.1254C100.321 65.7149 100.157 65.3217 99.8659 65.0322C99.5749 64.7426 99.1809 64.5805 98.7704 64.5815C98.36 64.5826 97.9667 64.7466 97.6772 65.0375C97.3877 65.3285 97.2256 65.7225 97.2266 66.1329V66.2648C97.2266 66.6753 97.3896 67.0689 97.6799 67.3591C97.9701 67.6494 98.3637 67.8124 98.7742 67.8124C99.1846 67.8124 99.5783 67.6494 99.8685 67.3591C100.159 67.0689 100.322 66.6753 100.322 66.2648V66.1949Z" fill="#3A576A"/>
<path d="M83.5371 92.3654C83.2846 92.5391 83.0893 92.7839 82.976 93.0686C82.8626 93.3534 82.8364 93.6654 82.9005 93.9652C82.9645 94.2649 83.1161 94.5389 83.336 94.7524C83.5559 94.9659 83.8342 95.1094 84.1357 95.1647C84.4372 95.22 84.7483 95.1845 85.0296 95.0629C85.3109 94.9413 85.5499 94.7389 85.7161 94.4814C85.8824 94.2239 85.9685 93.9229 85.9636 93.6164C85.9587 93.31 85.8629 93.0118 85.6885 92.7598C85.4545 92.4235 85.097 92.1933 84.694 92.1195C84.291 92.0456 83.8752 92.134 83.5371 92.3654Z" fill="#3A576A"/>
<path d="M94.185 49.3261C93.9143 49.4691 93.692 49.6892 93.5464 49.9586C93.4009 50.228 93.3385 50.5346 93.3672 50.8394C93.3959 51.1443 93.5144 51.4338 93.7077 51.6713C93.901 51.9088 94.1604 52.0836 94.4531 52.1735C94.7458 52.2635 95.0586 52.2646 95.352 52.1768C95.6453 52.0889 95.906 51.9159 96.101 51.6798C96.296 51.4437 96.4166 51.1551 96.4474 50.8504C96.4783 50.5458 96.4181 50.2388 96.2745 49.9684C96.1797 49.7888 96.0503 49.6297 95.8939 49.5002C95.7375 49.3707 95.5571 49.2733 95.363 49.2137C95.1689 49.154 94.965 49.1332 94.7628 49.1525C94.5607 49.1718 94.3643 49.2308 94.185 49.3261Z" fill="#3A576A"/>
<path d="M98.077 59.2694C97.6936 59.3329 97.348 59.5382 97.1088 59.8445C96.8696 60.1508 96.7541 60.5358 96.7853 60.9232C96.8165 61.3106 96.992 61.6721 97.2771 61.9362C97.5623 62.2003 97.9362 62.3477 98.3249 62.3491C98.4105 62.349 98.496 62.3412 98.5803 62.3257C98.9856 62.259 99.3478 62.0339 99.5872 61.7002C99.8266 61.3664 99.9235 60.9512 99.8568 60.5459C99.7901 60.1406 99.5651 59.7784 99.2313 59.539C98.8975 59.2996 98.4823 59.2026 98.077 59.2694Z" fill="#3A576A"/>
<path d="M96.5298 54.1388C96.1831 54.2567 95.8896 54.4938 95.7014 54.8079C95.5131 55.122 95.4425 55.4927 95.502 55.854C95.5615 56.2153 95.7473 56.5438 96.0263 56.7809C96.3053 57.0181 96.6593 57.1485 97.0255 57.149C97.1936 57.1505 97.3608 57.1244 97.5205 57.0716C97.7141 57.0074 97.8931 56.9055 98.0472 56.7719C98.2013 56.6383 98.3275 56.4755 98.4185 56.2929C98.5095 56.1104 98.5635 55.9116 98.5774 55.7081C98.5913 55.5046 98.5649 55.3004 98.4996 55.1071C98.4343 54.9139 98.3315 54.7354 98.197 54.5821C98.0626 54.4287 97.8991 54.3034 97.716 54.2134C97.533 54.1234 97.3339 54.0705 97.1304 54.0577C96.9268 54.0449 96.7227 54.0725 96.5298 54.1388Z" fill="#B4EDFF"/>
<path d="M59.1852 97.3641C58.7836 97.2847 58.3669 97.3677 58.0264 97.5948C57.6859 97.822 57.4493 98.1749 57.3684 98.5762C57.2875 98.9775 57.369 99.3945 57.5949 99.7358C57.8209 100.077 58.1729 100.315 58.5739 100.397C58.6758 100.419 58.7796 100.429 58.8837 100.428C59.2677 100.428 59.6379 100.285 59.9223 100.027C60.2067 99.7694 60.3851 99.4149 60.4227 99.0328C60.4603 98.6507 60.3545 98.2682 60.1257 97.9598C59.897 97.6514 59.5618 97.4391 59.1852 97.3641Z" fill="#3A576A"/>
<path d="M44.3902 42.0906C44.7497 42.0917 45.0979 41.9656 45.3734 41.7347C45.6515 41.5032 45.839 41.181 45.9031 40.8249C45.9671 40.4687 45.9035 40.1014 45.7234 39.7876C45.5434 39.4737 45.2584 39.2333 44.9187 39.1088C44.5789 38.9843 44.2061 38.9836 43.8659 39.1068C43.5257 39.2299 43.2398 39.4692 43.0585 39.7823C42.8772 40.0955 42.8121 40.4625 42.8748 40.8189C42.9374 41.1753 43.1237 41.4982 43.4009 41.7308C43.6781 41.9634 44.0284 42.0908 44.3902 42.0906Z" fill="#B4EDFF"/>
<path d="M49.6679 93.7659C49.3119 93.5615 48.8894 93.5066 48.493 93.6135C48.0966 93.7203 47.7588 93.9801 47.5537 94.3358C47.3487 94.6914 47.2932 95.114 47.3995 95.5105C47.5057 95.9071 47.765 96.2453 48.1203 96.4508V96.4433C48.3544 96.5821 48.622 96.6544 48.8941 96.6522C49.2344 96.6518 49.5651 96.5393 49.8349 96.332C50.1048 96.1247 50.2988 95.8342 50.3869 95.5055C50.475 95.1769 50.4523 94.8283 50.3224 94.5138C50.1924 94.1993 49.9624 93.9365 49.6679 93.7659Z" fill="#B4EDFF"/>
<path d="M39.5924 87.2041C39.3628 87.4077 39.1988 87.6747 39.121 87.9715C39.0432 88.2683 39.0552 88.5815 39.1554 88.8715C39.2556 89.1615 39.4396 89.4153 39.684 89.6007C39.9284 89.7862 40.2224 89.895 40.5286 89.9134C40.8349 89.9317 41.1398 89.8589 41.4046 89.704C41.6695 89.5492 41.8825 89.3192 42.0167 89.0433C42.1509 88.7674 42.2002 88.4579 42.1585 88.1539C42.1168 87.85 41.9859 87.5652 41.7823 87.3356C41.509 87.0283 41.1251 86.8419 40.7145 86.8172C40.304 86.7926 39.9005 86.9317 39.5924 87.2041Z" fill="#3A576A"/>
<path d="M34.9032 80.9127C35.1137 80.9099 35.3215 80.8652 35.5145 80.7812C35.8609 80.6276 36.138 80.351 36.2923 80.0049C36.4465 79.6588 36.467 79.2678 36.3497 78.9075C36.2325 78.5471 35.9858 78.2431 35.6573 78.0541C35.3289 77.8652 34.9421 77.8047 34.5716 77.8843C34.2012 77.964 33.8734 78.1782 33.6517 78.4855C33.43 78.7928 33.3302 79.1714 33.3714 79.5481C33.4126 79.9247 33.5921 80.2727 33.875 80.5248C34.1579 80.7768 34.5243 80.915 34.9032 80.9127Z" fill="#3A576A"/>
<path d="M37.4029 85.641C37.6962 85.6418 37.9836 85.5585 38.2311 85.4011C38.576 85.1797 38.8193 84.8308 38.9078 84.4306C38.9963 84.0303 38.9228 83.6114 38.7034 83.2652H38.711C38.5671 83.0379 38.3664 82.8521 38.1288 82.726C37.8912 82.5999 37.6248 82.5379 37.3559 82.5461C37.0871 82.5544 36.825 82.6325 36.5955 82.7729C36.366 82.9133 36.1771 83.1111 36.0474 83.3467C35.9177 83.5823 35.8516 83.8477 35.8556 84.1167C35.8597 84.3857 35.9338 84.6489 36.0707 84.8805C36.2075 85.1121 36.4023 85.3041 36.6359 85.4374C36.8696 85.5708 37.1339 85.641 37.4029 85.641Z" fill="#B4EDFF"/>
<path d="M69.3533 97.7585C68.9626 97.8074 68.6052 98.0032 68.3536 98.3062C68.1021 98.6091 67.9752 98.9964 67.9989 99.3895C68.0226 99.7825 68.1949 100.152 68.481 100.422C68.7671 100.693 69.1455 100.844 69.5392 100.846C69.6039 100.844 69.6685 100.839 69.7327 100.831C70.1401 100.78 70.5108 100.57 70.7633 100.247C71.0158 99.923 71.1294 99.5123 71.0791 99.1049C71.0288 98.6975 70.8187 98.3268 70.4951 98.0743C70.1714 97.8218 69.7607 97.7082 69.3533 97.7585Z" fill="#3A576A"/>
<path d="M74.3521 96.7372C73.9946 96.8416 73.6867 97.0715 73.4849 97.3846C73.2832 97.6978 73.2011 98.0732 73.2539 98.4419C73.3066 98.8107 73.4906 99.148 73.772 99.3921C74.0534 99.6361 74.4134 99.7705 74.7859 99.7705C74.9325 99.7722 75.0786 99.7513 75.2189 99.7085C75.6129 99.5936 75.9451 99.3268 76.1425 98.9669C76.3398 98.607 76.3861 98.1835 76.2712 97.7895C76.1562 97.3955 75.8895 97.0632 75.5296 96.8659C75.1697 96.6686 74.7461 96.6223 74.3521 96.7372Z" fill="#3A576A"/>
<path d="M79.1184 94.9268H79.126C79.9974 94.9278 80.8329 95.2748 81.4486 95.8916C82.0643 96.5083 82.4099 97.3444 82.4094 98.2159C82.4089 99.0874 82.0623 99.923 81.4459 100.539C80.8295 101.155 79.9937 101.501 79.1222 101.501C78.2507 101.501 77.4149 101.155 76.7984 100.539C76.182 99.923 75.8355 99.0874 75.835 98.2159C75.8345 97.3444 76.1801 96.5083 76.7958 95.8916C77.4115 95.2748 78.2469 94.9278 79.1184 94.9268Z" fill="#B4EDFF"/>
<path d="M54.2793 95.9481C54.0887 95.8761 53.8858 95.8424 53.6821 95.8489C53.4785 95.8555 53.2781 95.9021 53.0925 95.9861C52.9069 96.0701 52.7397 96.1899 52.6004 96.3385C52.4611 96.4872 52.3525 96.6619 52.2808 96.8526C52.2091 97.0433 52.1757 97.2463 52.1825 97.4499C52.1893 97.6535 52.2362 97.8538 52.3204 98.0393C52.4047 98.2248 52.5247 98.3919 52.6736 98.531C52.8225 98.67 52.9973 98.7784 53.1881 98.8499C53.3643 98.9138 53.55 98.9478 53.7375 98.9504C54.1002 98.9492 54.4511 98.821 54.729 98.588C55.007 98.3549 55.1945 98.0319 55.2589 97.6749C55.3233 97.3179 55.2606 96.9497 55.0816 96.6342C54.9027 96.3187 54.6187 96.0759 54.2793 95.9481Z" fill="#3A576A"/>
<path d="M33.2009 75.8364C33.5229 75.8365 33.8368 75.7362 34.099 75.5493C34.3612 75.3625 34.5586 75.0985 34.6636 74.7942C34.7687 74.4899 34.7762 74.1604 34.6851 73.8516C34.5939 73.5428 34.4087 73.2701 34.1553 73.0716C33.9018 72.8731 33.5928 72.7585 33.2711 72.744C32.9495 72.7295 32.6314 72.8156 32.3611 72.9905C32.0907 73.1654 31.8817 73.4202 31.7631 73.7195C31.6445 74.0188 31.6222 74.3477 31.6994 74.6603C31.7821 74.996 31.975 75.2943 32.2472 75.5075C32.5193 75.7207 32.8552 75.8365 33.2009 75.8364Z" fill="#3A576A"/>
<path d="M65.5002 74.7767C67.1837 74.7767 68.8294 74.2775 70.2291 73.3422C71.6289 72.4069 72.7199 71.0776 73.3642 69.5222C74.0084 67.9669 74.177 66.2554 73.8485 64.6042C73.5201 62.9531 72.7094 61.4364 71.519 60.246C70.3286 59.0556 68.8119 58.2449 67.1608 57.9165C65.5096 57.5881 63.7982 57.7566 62.2428 58.4009C60.6875 59.0451 59.3581 60.1361 58.4228 61.5359C57.4875 62.9357 56.9883 64.5813 56.9883 66.2648C56.9908 68.5216 57.8884 70.6851 59.4842 72.2808C61.0799 73.8766 63.2435 74.7742 65.5002 74.7767ZM65.5002 60.8482C66.5715 60.8482 67.6188 61.1659 68.5095 61.761C69.4003 62.3562 70.0946 63.2022 70.5045 64.192C70.9145 65.1817 71.0218 66.2708 70.8128 67.3216C70.6038 68.3723 70.0879 69.3375 69.3303 70.095C68.5728 70.8525 67.6077 71.3684 66.5569 71.5774C65.5062 71.7864 64.4171 71.6792 63.4273 71.2692C62.4375 70.8592 61.5916 70.1649 60.9964 69.2742C60.4012 68.3834 60.0835 67.3362 60.0835 66.2648C60.0852 64.8288 60.6564 63.452 61.6719 62.4365C62.6873 61.4211 64.0641 60.8498 65.5002 60.8482Z" fill="#B4EDFF"/>
<path d="M2.04762 117.336C2.90235 117.336 3.59524 116.643 3.59524 115.788C3.59524 114.934 2.90235 114.241 2.04762 114.241C1.19289 114.241 0.5 114.934 0.5 115.788C0.5 116.643 1.19289 117.336 2.04762 117.336Z" fill="#3A576A"/>
<path d="M9.01163 114.241H6.6902C6.27974 114.241 5.8861 114.404 5.59587 114.694C5.30563 114.984 5.14258 115.378 5.14258 115.789C5.14258 116.199 5.30563 116.593 5.59587 116.883C5.8861 117.173 6.27974 117.336 6.6902 117.336H9.01163C9.42208 117.336 9.81572 117.173 10.106 116.883C10.3962 116.593 10.5592 116.199 10.5592 115.789C10.5592 115.378 10.3962 114.984 10.106 114.694C9.81572 114.404 9.42208 114.241 9.01163 114.241Z" fill="#3A576A"/>
<path d="M124.309 114.241H121.988C121.578 114.241 121.184 114.404 120.894 114.694C120.603 114.984 120.44 115.378 120.44 115.789C120.44 116.199 120.603 116.593 120.894 116.883C121.184 117.173 121.578 117.336 121.988 117.336H124.309C124.72 117.336 125.114 117.173 125.404 116.883C125.694 116.593 125.857 116.199 125.857 115.789C125.857 115.378 125.694 114.984 125.404 114.694C125.114 114.404 124.72 114.241 124.309 114.241Z" fill="#3A576A"/>
<path d="M128.952 117.336C129.807 117.336 130.5 116.643 130.5 115.788C130.5 114.934 129.807 114.241 128.952 114.241C128.097 114.241 127.404 114.934 127.404 115.788C127.404 116.643 128.097 117.336 128.952 117.336Z" fill="#3A576A"/>
<path d="M91.9285 120.431H85.4999C85.1108 120.463 84.7478 120.639 84.483 120.926C84.2183 121.213 84.0713 121.589 84.0713 121.979C84.0713 122.369 84.2183 122.745 84.483 123.032C84.7478 123.319 85.1108 123.495 85.4999 123.527H91.9285C92.3175 123.495 92.6806 123.319 92.9453 123.032C93.21 122.745 93.3571 122.369 93.3571 121.979C93.3571 121.589 93.21 121.213 92.9453 120.926C92.6806 120.639 92.3175 120.463 91.9285 120.431Z" fill="#B4EDFF"/>
<path d="M45.4998 120.431H39.0712C38.6821 120.463 38.3191 120.639 38.0543 120.926C37.7896 121.213 37.6426 121.589 37.6426 121.979C37.6426 122.369 37.7896 122.745 38.0543 123.032C38.3191 123.319 38.6821 123.495 39.0712 123.527H45.4998C45.8888 123.495 46.2519 123.319 46.5166 123.032C46.7813 122.745 46.9283 122.369 46.9283 121.979C46.9283 121.589 46.7813 121.213 46.5166 120.926C46.2519 120.639 45.8888 120.463 45.4998 120.431Z" fill="#B4EDFF"/>
<path d="M80.9766 120.431H50.0242C49.6137 120.431 49.2201 120.594 48.9298 120.885C48.6396 121.175 48.4766 121.569 48.4766 121.979C48.4766 122.389 48.6396 122.783 48.9298 123.073C49.2201 123.364 49.6137 123.527 50.0242 123.527H62.3587V125.074H56.2147C55.8042 125.074 55.4106 125.237 55.1203 125.528C54.8301 125.818 54.667 126.211 54.667 126.622C54.667 127.032 54.8301 127.426 55.1203 127.716C55.4106 128.006 55.8042 128.169 56.2147 128.169H75.5599C75.9703 128.169 76.364 128.006 76.6542 127.716C76.9445 127.426 77.1075 127.032 77.1075 126.622C77.1075 126.211 76.9445 125.818 76.6542 125.528C76.364 125.237 75.9703 125.074 75.5599 125.074H68.642V123.527H80.9766C81.387 123.527 81.7807 123.364 82.0709 123.073C82.3611 122.783 82.5242 122.389 82.5242 121.979C82.5242 121.569 82.3611 121.175 82.0709 120.885C81.7807 120.594 81.387 120.431 80.9766 120.431Z" fill="#B4EDFF"/>
<path d="M117.13 114.241H67.0476V110.155C67.3552 110.336 67.7161 110.404 68.0686 110.349C68.4212 110.294 68.7436 110.118 68.9809 109.851C69.2183 109.585 69.3558 109.244 69.3701 108.887C69.3843 108.531 69.2745 108.18 69.0592 107.896L66.7378 104.8C66.5874 104.618 66.3984 104.471 66.1844 104.369C65.9704 104.268 65.7367 104.216 65.5 104.216C65.2633 104.216 65.0296 104.268 64.8156 104.369C64.6016 104.471 64.4126 104.618 64.2622 104.8L61.9408 107.896C61.7267 108.181 61.6177 108.531 61.6322 108.888C61.6468 109.244 61.7839 109.584 62.0205 109.851C62.2571 110.118 62.5786 110.295 62.9306 110.352C63.2826 110.409 63.6435 110.343 63.9524 110.165V114.241H13.8704C13.6502 114.212 13.4265 114.231 13.214 114.295C13.0016 114.36 12.8054 114.469 12.6385 114.616C12.4717 114.762 12.338 114.943 12.2464 115.145C12.1548 115.347 12.1074 115.567 12.1074 115.789C12.1074 116.011 12.1548 116.23 12.2464 116.432C12.338 116.635 12.4717 116.815 12.6385 116.962C12.8054 117.108 13.0016 117.217 13.214 117.282C13.4265 117.346 13.6502 117.365 13.8704 117.336H117.13C117.35 117.365 117.574 117.346 117.786 117.282C117.998 117.217 118.195 117.108 118.361 116.962C118.528 116.815 118.662 116.635 118.754 116.432C118.845 116.23 118.893 116.011 118.893 115.789C118.893 115.567 118.845 115.347 118.754 115.145C118.662 114.943 118.528 114.762 118.361 114.616C118.195 114.469 117.998 114.36 117.786 114.295C117.574 114.231 117.35 114.212 117.13 114.241Z" fill="#3A576A"/>
<path d="M38.4591 20.8035C38.9183 20.8035 39.3671 20.6674 39.7488 20.4123C40.1306 20.1572 40.4281 19.7946 40.6038 19.3704C40.7795 18.9463 40.8255 18.4795 40.7359 18.0292C40.6464 17.5789 40.4253 17.1652 40.1006 16.8406C39.776 16.5159 39.3623 16.2948 38.912 16.2053C38.4617 16.1157 37.9949 16.1617 37.5708 16.3374C37.1466 16.5131 36.784 16.8106 36.5289 17.1924C36.2738 17.5741 36.1377 18.0229 36.1377 18.4821C36.1384 19.0975 36.3832 19.6876 36.8184 20.1228C37.2536 20.558 37.8437 20.8028 38.4591 20.8035ZM38.4591 17.3214C38.6887 17.3214 38.9131 17.3894 39.104 17.517C39.2949 17.6445 39.4436 17.8258 39.5315 18.0379C39.6193 18.25 39.6423 18.4834 39.5975 18.7085C39.5527 18.9337 39.4422 19.1405 39.2799 19.3028C39.1175 19.4652 38.9107 19.5757 38.6856 19.6205C38.4604 19.6653 38.227 19.6423 38.0149 19.5544C37.8028 19.4666 37.6216 19.3178 37.494 19.1269C37.3665 18.9361 37.2984 18.7116 37.2984 18.4821C37.2987 18.1743 37.4211 17.8793 37.6387 17.6617C37.8563 17.444 38.1514 17.3217 38.4591 17.3214Z" fill="#3A576A"/>
<path d="M127.405 40.9226C127.099 40.9226 126.8 41.0134 126.545 41.1834C126.291 41.3535 126.092 41.5952 125.975 41.878C125.858 42.1608 125.827 42.4719 125.887 42.7722C125.947 43.0724 126.094 43.3481 126.311 43.5646C126.527 43.781 126.803 43.9284 127.103 43.9881C127.403 44.0478 127.714 44.0172 127.997 43.9C128.28 43.7829 128.522 43.5845 128.692 43.33C128.862 43.0755 128.953 42.7763 128.953 42.4702C128.952 42.0599 128.789 41.6665 128.499 41.3764C128.209 41.0863 127.815 40.9231 127.405 40.9226ZM127.405 43.244C127.252 43.244 127.102 43.1987 126.975 43.1136C126.848 43.0286 126.749 42.9077 126.69 42.7664C126.632 42.625 126.616 42.4694 126.646 42.3193C126.676 42.1692 126.75 42.0313 126.858 41.9231C126.966 41.8148 127.104 41.7411 127.254 41.7113C127.404 41.6814 127.56 41.6968 127.701 41.7553C127.843 41.8139 127.963 41.9131 128.048 42.0403C128.133 42.1676 128.179 42.3172 128.179 42.4702C128.179 42.6754 128.097 42.8721 127.952 43.0172C127.807 43.1622 127.61 43.2438 127.405 43.244Z" fill="#3A576A"/>
<path d="M89.488 18.6755C89.182 18.6755 88.8827 18.7663 88.6282 18.9364C88.3737 19.1064 88.1754 19.3481 88.0582 19.6309C87.9411 19.9137 87.9105 20.2249 87.9702 20.5251C88.0299 20.8253 88.1773 21.101 88.3937 21.3175C88.6102 21.5339 88.8859 21.6813 89.1861 21.741C89.4863 21.8008 89.7975 21.7701 90.0803 21.653C90.3631 21.5358 90.6048 21.3375 90.7748 21.083C90.9449 20.8285 91.0357 20.5292 91.0357 20.2232C91.0352 19.8128 90.872 19.4195 90.5819 19.1293C90.2917 18.8392 89.8984 18.676 89.488 18.6755ZM89.488 20.997C89.335 20.997 89.1854 20.9516 89.0581 20.8666C88.9309 20.7815 88.8317 20.6607 88.7731 20.5193C88.7146 20.3779 88.6993 20.2223 88.7291 20.0722C88.759 19.9221 88.8327 19.7842 88.9409 19.676C89.0491 19.5678 89.187 19.4941 89.3371 19.4642C89.4872 19.4344 89.6428 19.4497 89.7842 19.5082C89.9256 19.5668 90.0464 19.666 90.1314 19.7933C90.2165 19.9205 90.2619 20.0701 90.2619 20.2232C90.2617 20.4283 90.1801 20.625 90.035 20.7701C89.8899 20.9152 89.6932 20.9968 89.488 20.997Z" fill="#3A576A"/>
<path d="M112.745 31.4434C112.439 31.4434 112.14 31.5341 111.885 31.7042C111.631 31.8742 111.432 32.1159 111.315 32.3987C111.198 32.6815 111.167 32.9927 111.227 33.2929C111.287 33.5931 111.434 33.8689 111.651 34.0853C111.867 34.3017 112.143 34.4491 112.443 34.5089C112.743 34.5686 113.054 34.5379 113.337 34.4208C113.62 34.3037 113.862 34.1053 114.032 33.8508C114.202 33.5963 114.292 33.2971 114.292 32.991C114.292 32.5807 114.129 32.1873 113.839 31.8972C113.549 31.607 113.155 31.4438 112.745 31.4434ZM112.745 33.7648C112.592 33.7648 112.442 33.7194 112.315 33.6344C112.188 33.5494 112.089 33.4285 112.03 33.2871C111.971 33.1457 111.956 32.9901 111.986 32.84C112.016 32.6899 112.09 32.552 112.198 32.4438C112.306 32.3356 112.444 32.2619 112.594 32.232C112.744 32.2022 112.9 32.2175 113.041 32.2761C113.182 32.3346 113.303 32.4338 113.388 32.5611C113.473 32.6883 113.519 32.8379 113.519 32.991C113.518 33.1961 113.437 33.3928 113.292 33.5379C113.147 33.683 112.95 33.7646 112.745 33.7648Z" fill="#3A576A"/>
<path d="M9.52786 45.3718C9.52786 45.0657 9.43709 44.7665 9.26703 44.512C9.09698 44.2575 8.85528 44.0592 8.57248 43.942C8.28969 43.8249 7.97852 43.7942 7.67831 43.854C7.3781 43.9137 7.10234 44.0611 6.88591 44.2775C6.66947 44.4939 6.52207 44.7697 6.46235 45.0699C6.40264 45.3701 6.43329 45.6813 6.55042 45.9641C6.66756 46.2469 6.86592 46.4886 7.12043 46.6586C7.37493 46.8287 7.67415 46.9195 7.98024 46.9195C8.39055 46.919 8.78392 46.7558 9.07405 46.4657C9.36418 46.1755 9.52739 45.7821 9.52786 45.3718ZM7.20643 45.3718C7.20643 45.2188 7.25181 45.0692 7.33684 44.9419C7.42186 44.8147 7.54272 44.7155 7.68411 44.6569C7.82551 44.5984 7.9811 44.583 8.1312 44.6129C8.2813 44.6428 8.41918 44.7165 8.5274 44.8247C8.63562 44.9329 8.70932 45.0708 8.73918 45.2209C8.76904 45.371 8.75371 45.5266 8.69514 45.668C8.63658 45.8094 8.53739 45.9302 8.41014 46.0152C8.28289 46.1003 8.13328 46.1456 7.98024 46.1456C7.77507 46.1454 7.57837 46.0639 7.4333 45.9188C7.28822 45.7737 7.20663 45.577 7.20643 45.3718Z" fill="#3A576A"/>
<path d="M8.02176 9.52725L9.17241 8.01445L8.44581 7.60278L7.70759 9.29743H7.68283L6.93223 7.61439L6.19325 8.03844L7.33152 9.51564V9.53963L5.55176 9.30981V10.1331L7.3439 9.90332V9.92731L6.19325 11.4037L6.88348 11.8402L7.67122 10.1331H7.69444L8.42104 11.8278L9.18402 11.3921L8.02176 9.93891V9.91493L9.8495 10.1331V9.30981L8.02176 9.55201V9.52725Z" fill="#B4EDFF"/>
<path d="M110.186 5.8299L109.523 6.68032L109.92 6.93181L110.374 5.94829H110.388L110.806 6.92484L111.246 6.67413L110.576 5.83687V5.82294L111.629 5.94829V5.47472L110.576 5.61401V5.60008L111.239 4.72877L110.82 4.49121L110.395 5.46776H110.381L109.949 4.49818L109.523 4.7427L110.179 5.59312V5.60704L109.153 5.47472V5.94829L110.186 5.81597V5.8299Z" fill="#B4EDFF"/>
<path d="M128.995 19.6144V18.8066L127.202 19.0441V19.0209L128.33 17.536L127.617 17.1328L126.893 18.795H126.869L126.133 17.1444L125.408 17.56L126.525 19.0093V19.0325L124.778 18.8066V19.6144L126.536 19.3892V19.4125L125.408 20.861L126.085 21.2889L126.858 19.6144H126.881L127.593 21.2773L128.342 20.8494L127.202 19.4241V19.4008L128.995 19.6144Z" fill="#B4EDFF"/>
<path d="M66.466 3.45891L67.4395 2.17902L66.8243 1.83081L66.1998 3.26468H66.179L65.5444 1.84087L64.9184 2.19914L65.8818 3.44885V3.46974L64.376 3.27474V3.97117L65.8919 3.77694V3.79706L64.9184 5.04676L65.5026 5.41587L66.1689 3.97117H66.189L66.8042 5.40581L67.4495 5.0367L66.466 3.80712V3.787L68.0121 3.97117V3.27474L66.466 3.4798V3.45891Z" fill="#B4EDFF"/>
</g>
<defs>
<clipPath id="clip0_2067_2131">
<rect width="130" height="130" fill="white" transform="translate(0.5)"/>
</clipPath>
</defs>
</svg>
